<?xml version="1.0" encoding="UTF-8"?>
<svg id="Layer_1" data-name="Layer 1" xmlns="http://www.w3.org/2000/svg" xmlns:xlink="http://www.w3.org/1999/xlink" viewBox="0 0 430.6 201.04">
  <defs>
    <style>
      .cls-1 {
        fill: none;
      }

      .cls-2 {
        clip-path: url(#clippath);
      }

      .cls-3 {
        fill: #231f20;
      }
    </style>
    <clipPath id="clippath">
      <rect class="cls-1" x="0" y=".04" width="211" height="201"/>
    </clipPath>
  </defs>
  <path class="cls-3" d="M269.17,134.44c1.79,0,3.36,.43,4.73,1.3,1.39,.85,2.45,2.04,3.2,3.56,.76,1.52,1.14,3.25,1.14,5.17s-.58,3.81-1.74,5.49c-1.14,1.66-2.57,2.99-4.29,3.98-1.7,.97-3.33,1.46-4.89,1.46-.8,0-1.6-.04-2.42-.13-1.33-.09-2.37-.13-3.09-.13h-3.3v-.81l2.44-1.92v-15.81l-2.7-.88,.52-1.04h3.02c1.65,0,3.25-.05,4.81-.16,1.18-.07,2.04-.1,2.57-.1v.03Zm-1.12,19.03c1.25,0,2.38-.33,3.41-.99,1.02-.68,1.82-1.6,2.39-2.78,.59-1.2,.88-2.53,.88-4,0-1.77-.28-3.37-.83-4.81-.55-1.46-1.4-2.62-2.55-3.48-1.13-.87-2.53-1.3-4.21-1.3-1.06,0-2.04,.31-2.94,.94v15.78c1.06,.43,2.34,.65,3.85,.65Zm22.82-12.4c.57,0,1.08,.16,1.51,.47,.43,.31,.77,.75,1.01,1.3l-1.72,2.16h-.99c-.07-.43-.2-.74-.39-.91-.17-.19-.42-.29-.73-.29-.38,0-.79,.1-1.22,.31-.42,.19-.89,.56-1.43,1.12v7.75l3.64,1.12-.52,1.04h-8.55v-.81l2.31-1.82v-7.36l-2.31-1.35v-.81l4.45-2.18,.81,3.2,2.7-2.76c.36-.14,.84-.21,1.43-.21v.03Zm12.96,14.09c-.69,.14-1.52,.21-2.5,.21-1.14,0-2.17-.29-3.09-.88-.9-.61-1.61-1.42-2.13-2.44-.5-1.02-.75-2.15-.75-3.38,0-1.34,.41-2.58,1.22-3.74,.82-1.18,1.83-2.12,3.04-2.81,1.23-.71,2.42-1.07,3.56-1.07,1.65,0,2.92,.65,3.82,1.95,.92,1.3,1.38,3.02,1.38,5.15h-9.62c.1,1.47,.5,2.68,1.2,3.61,.71,.94,1.67,1.4,2.89,1.4,1.13,0,2.73-.88,4.81-2.63l.78,.99-4.6,3.64Zm-2.16-11.93c-1.87,0-2.85,1.28-2.94,3.85h6.08c-.16-.94-.32-1.65-.49-2.13-.16-.5-.44-.91-.86-1.22-.4-.33-1-.49-1.79-.49Zm18.37,9.07c0-.49-.27-.93-.81-1.33-.54-.42-1.36-.91-2.47-1.48-.9-.47-1.63-.88-2.18-1.22s-1.03-.74-1.43-1.2c-.38-.47-.57-.97-.57-1.51,0-.62,.26-1.29,.78-2,.52-.71,1.16-1.31,1.92-1.79s1.47-.73,2.13-.73c.8,0,1.72,.1,2.76,.31,1.06,.19,1.82,.41,2.29,.65v4h-.99c-.56-1.07-1.2-1.91-1.92-2.5-.73-.61-1.47-.91-2.24-.91-.54,0-.97,.15-1.3,.44-.33,.28-.49,.63-.49,1.07,0,.54,.28,1.02,.83,1.46,.57,.42,1.43,.91,2.57,1.48,.88,.45,1.6,.84,2.13,1.17,.54,.33,.99,.72,1.35,1.17,.38,.43,.57,.92,.57,1.46,0,.64-.28,1.32-.83,2.03-.54,.69-1.21,1.28-2,1.77-.78,.49-1.5,.73-2.16,.73-.85,0-1.86-.1-3.04-.29-1.16-.21-1.99-.43-2.5-.68v-4h.99c.61,1.07,1.33,1.91,2.16,2.52,.83,.59,1.67,.88,2.52,.88,.57,0,1.03-.15,1.38-.44,.36-.29,.55-.65,.55-1.07Zm14.52,0c0-.49-.27-.93-.81-1.33-.54-.42-1.36-.91-2.47-1.48-.9-.47-1.63-.88-2.18-1.22-.55-.35-1.03-.74-1.43-1.2-.38-.47-.57-.97-.57-1.51,0-.62,.26-1.29,.78-2,.52-.71,1.16-1.31,1.92-1.79,.76-.49,1.47-.73,2.13-.73,.8,0,1.72,.1,2.76,.31,1.06,.19,1.82,.41,2.29,.65v4h-.99c-.55-1.07-1.2-1.91-1.92-2.5-.73-.61-1.47-.91-2.24-.91-.54,0-.97,.15-1.3,.44-.33,.28-.49,.63-.49,1.07,0,.54,.28,1.02,.83,1.46,.57,.42,1.43,.91,2.57,1.48,.88,.45,1.59,.84,2.13,1.17,.54,.33,.99,.72,1.35,1.17,.38,.43,.57,.92,.57,1.46,0,.64-.28,1.32-.83,2.03-.54,.69-1.2,1.28-2,1.77-.78,.49-1.5,.73-2.16,.73-.85,0-1.86-.1-3.04-.29-1.16-.21-1.99-.43-2.5-.68v-4h.99c.61,1.07,1.33,1.91,2.16,2.52,.83,.59,1.67,.88,2.52,.88,.57,0,1.03-.15,1.38-.44,.36-.29,.55-.65,.55-1.07Zm19.7,2.81h-4.94v-2.26l-2.94,2.31c-.35,.14-.78,.21-1.3,.21-1.49,0-2.57-.37-3.25-1.12-.66-.74-.99-1.64-.99-2.68,0-.62,.23-1.24,.68-1.85,.45-.61,1.09-1.18,1.92-1.72h5.88v-1.66c0-1.13-.3-1.92-.91-2.39-.59-.47-1.4-.7-2.44-.7s-2.39,.65-3.95,1.95l-.78-.99,3.74-2.96c.69-.14,1.52-.21,2.5-.21,1.58,0,2.8,.39,3.67,1.17,.87,.76,1.3,1.88,1.3,3.35v7.59l2.34,.91-.52,1.04Zm-8.35-1.95c1.06,0,2.19-.49,3.41-1.46v-2.63h-4.6c-.23,.28-.39,.55-.49,.83-.09,.28-.13,.58-.13,.91,0,.64,.16,1.2,.49,1.66,.33,.45,.77,.68,1.33,.68Zm22.34-10.06c.49,.69,.73,1.47,.73,2.34,0,.76-.22,1.52-.65,2.26-.43,.73-1.01,1.37-1.74,1.92-.73,.55-1.53,.97-2.39,1.25-.47,.47-.7,.96-.7,1.48,0,.29,.23,.57,.68,.83,.47,.24,1.15,.54,2.05,.88,1.23,.49,2.18,.93,2.83,1.33,.68,.42,1.01,.92,1.01,1.51,0,.52-.34,1.19-1.01,2-.66,.81-1.48,1.52-2.47,2.13-.99,.61-1.94,.91-2.86,.91-.97,0-2.12-.16-3.46-.49-1.32-.33-2.42-.66-3.3-.99v-4h.99c.97,1.2,1.96,2.11,2.96,2.73,1.01,.62,2.14,.94,3.41,.94,.47,0,.89-.1,1.27-.29,.4-.19,.7-.43,.91-.73,.23-.28,.34-.55,.34-.81,0-.47-.27-.88-.81-1.22-.54-.33-1.38-.74-2.52-1.22-1.09-.45-1.91-.84-2.44-1.17-.52-.33-.78-.71-.78-1.14s.28-.84,.83-1.27c.56-.43,1.21-.82,1.98-1.14-.28,.05-.56,.08-.86,.08-.92,0-1.76-.2-2.52-.6-.76-.42-1.37-.96-1.82-1.64-.43-.68-.65-1.41-.65-2.21,0-.95,.33-1.87,.99-2.76,.66-.88,1.51-1.6,2.55-2.13,1.06-.56,2.13-.83,3.22-.83,1.21,0,2.28,.35,3.2,1.04h4.08l.03,1.01h-3.07Zm-4.5,5.88c.78,0,1.37-.19,1.77-.57,.42-.4,.62-.98,.62-1.74,0-1.04-.34-1.88-1.01-2.52-.66-.64-1.53-.96-2.63-.96-.76,0-1.35,.19-1.77,.57-.4,.36-.6,.93-.6,1.69,0,1.06,.33,1.91,.99,2.57,.68,.64,1.55,.96,2.63,.96Zm18.1,6.19c-.69,.14-1.52,.21-2.5,.21-1.14,0-2.17-.29-3.09-.88-.9-.61-1.61-1.42-2.13-2.44-.5-1.02-.75-2.15-.75-3.38,0-1.34,.41-2.58,1.22-3.74,.82-1.18,1.83-2.12,3.04-2.81,1.23-.71,2.42-1.07,3.56-1.07,1.65,0,2.92,.65,3.82,1.95,.92,1.3,1.38,3.02,1.38,5.15h-9.62c.1,1.47,.5,2.68,1.2,3.61,.71,.94,1.67,1.4,2.89,1.4,1.13,0,2.73-.88,4.81-2.63l.78,.99-4.6,3.64Zm-2.16-11.93c-1.87,0-2.85,1.28-2.94,3.85h6.08c-.16-.94-.32-1.65-.49-2.13-.16-.5-.44-.91-.86-1.22-.4-.33-1-.49-1.79-.49Z"/>
  <path class="cls-3" d="M247.1,122.13h-7.9v-.81l2.44-1.92v-14.38l-6.94,17.11h-1.43l-6.89-17.29v14.87l2.73,1.38-.52,1.04h-6.08v-.81l2.44-1.92v-15.24l-2.7-1.46,.52-1.04h5.64l6.5,16.33,6.47-16.33h5.98v.81l-2.47,1.92v15.73l2.73,.96-.52,1.04Zm10.51-.03h-7.25v-.81l2.31-1.82v-7.59l-2.31-1.61v-.81l4.45-1.66h.99v12.35l2.34,.91-.52,1.04Zm-3.48-22.1c.52,0,.95,.19,1.27,.57,.35,.38,.52,.86,.52,1.43,0,.4-.12,.78-.36,1.14-.24,.35-.55,.62-.91,.83-.36,.21-.72,.31-1.07,.31-.52,0-.95-.19-1.3-.57-.33-.38-.49-.86-.49-1.43,0-.4,.12-.77,.36-1.12,.24-.36,.55-.65,.91-.86,.36-.21,.72-.31,1.07-.31Zm14.03,8.03c.71,0,1.53,.1,2.47,.31,.95,.19,1.64,.41,2.05,.65v4h-.99c-.68-.87-1.46-1.54-2.34-2.03-.87-.5-1.77-.75-2.7-.75-.8,0-1.4,.36-1.82,1.07-.4,.71-.6,1.75-.6,3.12,0,1.63,.35,3,1.07,4.11,.71,1.09,1.73,1.64,3.04,1.64,.99,0,2.39-.71,4.21-2.13l.78,.99-4,3.15c-.69,.14-1.52,.21-2.5,.21-1.14,0-2.17-.29-3.09-.88-.9-.61-1.61-1.42-2.13-2.44-.5-1.02-.75-2.15-.75-3.38,0-1.33,.37-2.59,1.12-3.77,.76-1.18,1.72-2.11,2.86-2.81s2.25-1.04,3.33-1.04Zm23.82,14.07h-4.94v-8.76c0-.95-.15-1.62-.44-2-.29-.38-.82-.57-1.59-.57-.57,0-1.14,.1-1.72,.31-.55,.21-1.21,.61-1.98,1.2v7.88l2.34,.91-.52,1.04h-7.25v-.81l2.31-1.82v-15.99l-2.31-1.61v-.81l4.45-1.66h.99v11.65l3.56-2.81c.36-.14,.84-.21,1.43-.21,1.18,0,2.11,.36,2.81,1.09,.69,.71,1.04,1.68,1.04,2.91v8.11l2.34,.91-.52,1.04Zm9.86,0h-7.25v-.81l2.31-1.82v-7.59l-2.31-1.61v-.81l4.45-1.66h.99v12.35l2.34,.91-.52,1.04Zm-3.48-22.1c.52,0,.94,.19,1.27,.57,.35,.38,.52,.86,.52,1.43,0,.4-.12,.78-.36,1.14-.24,.35-.55,.62-.91,.83s-.72,.31-1.07,.31c-.52,0-.95-.19-1.3-.57-.33-.38-.49-.86-.49-1.43,0-.4,.12-.77,.36-1.12,.24-.36,.55-.65,.91-.86s.72-.31,1.07-.31Zm13.59,21.06l-.52,1.04h-7.25v-.81l2.31-1.82v-15.99l-2.31-1.61v-.81l4.45-1.66h.99v20.75l2.34,.91Zm8.32,1.04h-4.39l-4.89-6.86,4.86-4.08-2.5-1.82,.52-1.04h6.21v.81l-6.03,5.07,4.39,5.98,2.34,.91-.52,1.04Zm10.57-14.07c1.14,0,2.17,.3,3.07,.91,.92,.59,1.63,1.39,2.13,2.42,.52,1.02,.78,2.15,.78,3.38,0,1.33-.41,2.59-1.22,3.77-.81,1.16-1.84,2.1-3.07,2.81-1.21,.69-2.39,1.04-3.54,1.04s-2.17-.29-3.09-.88c-.9-.61-1.61-1.42-2.13-2.44-.5-1.02-.75-2.15-.75-3.38,0-1.33,.41-2.58,1.22-3.74,.82-1.18,1.83-2.11,3.04-2.81,1.23-.71,2.42-1.07,3.56-1.07Zm-1.51,2.18c-1.96,0-2.94,1.4-2.94,4.19,0,1.65,.36,3.03,1.07,4.13,.71,1.09,1.73,1.64,3.04,1.64,1.96,0,2.94-1.4,2.94-4.21,0-1.63-.36-2.99-1.07-4.08-.71-1.11-1.72-1.66-3.04-1.66Zm29.62,7.28c0-.54-.22-1.04-.65-1.51-.43-.47-.98-.89-1.64-1.27-.64-.4-1.52-.88-2.63-1.46-1.32-.69-2.37-1.28-3.17-1.77-.8-.5-1.48-1.09-2.05-1.77-.55-.68-.83-1.42-.83-2.24,0-.87,.36-1.79,1.09-2.78,.73-1.01,1.61-1.85,2.65-2.52,1.06-.69,2.03-1.04,2.91-1.04,1.07,0,2.32,.13,3.74,.39,1.42,.26,2.46,.54,3.12,.83v5.04h-.99c-.85-1.4-1.79-2.5-2.81-3.28-1.01-.78-2.06-1.17-3.17-1.17-.99,0-1.78,.31-2.37,.94-.57,.61-.86,1.4-.86,2.39,0,.57,.22,1.11,.65,1.61,.45,.49,1,.92,1.64,1.3,.66,.38,1.57,.88,2.73,1.48,1.28,.64,2.32,1.21,3.12,1.72,.8,.49,1.46,1.06,2,1.72,.55,.64,.83,1.37,.83,2.18,0,.87-.39,1.8-1.17,2.81-.78,.99-1.73,1.83-2.86,2.52-1.11,.68-2.12,1.01-3.04,1.01-1.13,0-2.47-.13-4.03-.39-1.54-.26-2.65-.54-3.33-.83v-5.04h.99c.88,1.4,1.89,2.5,3.02,3.28,1.13,.78,2.29,1.17,3.48,1.17,.71,0,1.34-.16,1.9-.47,.56-.31,.98-.72,1.27-1.22,.29-.52,.44-1.07,.44-1.64Zm31.02,4.6h-4.94v-8.76c0-.95-.15-1.62-.44-2-.29-.38-.82-.57-1.59-.57-.54,0-1.07,.1-1.59,.31-.52,.19-1.13,.58-1.85,1.17v7.9l2.34,.91-.52,1.04h-4.94v-8.76c0-.95-.15-1.62-.44-2-.29-.38-.82-.57-1.59-.57-.54,0-1.07,.1-1.59,.31-.52,.19-1.14,.58-1.85,1.17v7.9l2.34,.91-.52,1.04h-7.25v-.81l2.31-1.82v-7.36l-2.31-1.35v-.81l4.45-2.18,.83,3.33,3.46-2.89c.36-.14,.84-.21,1.43-.21,1.01,0,1.84,.28,2.5,.83,.66,.54,1.08,1.28,1.25,2.24l3.38-2.83c.36-.14,.84-.21,1.43-.21,1.18,0,2.11,.36,2.81,1.09,.69,.71,1.04,1.68,1.04,2.91v8.11l2.37,.91-.52,1.04Zm9.83,0h-7.25v-.81l2.31-1.82v-7.59l-2.31-1.61v-.81l4.45-1.66h.99v12.35l2.34,.91-.52,1.04Zm-3.48-22.1c.52,0,.94,.19,1.27,.57,.35,.38,.52,.86,.52,1.43,0,.4-.12,.78-.36,1.14-.24,.35-.55,.62-.91,.83s-.72,.31-1.07,.31c-.52,0-.95-.19-1.3-.57-.33-.38-.49-.86-.49-1.43,0-.4,.12-.77,.36-1.12,.24-.36,.55-.65,.91-.86,.36-.21,.72-.31,1.07-.31Zm13.74,22.15c-.4,.14-.88,.21-1.46,.21-1.44,0-2.5-.37-3.17-1.12-.66-.76-.99-1.93-.99-3.51v-7.59h-2.81v-1.07l4.94-5.75h.99v5.75h4.68v1.07h-4.68v7.9c0,1.4,.68,2.11,2.03,2.11,.36,0,.71-.08,1.04-.23,.35-.16,.77-.43,1.27-.83l.78,.99-2.63,2.08Zm20.02-.05h-4.94v-8.76c0-.95-.15-1.62-.44-2-.29-.38-.82-.57-1.59-.57-.57,0-1.14,.1-1.72,.31-.55,.21-1.21,.61-1.98,1.2v7.88l2.34,.91-.52,1.04h-7.25v-.81l2.31-1.82v-15.99l-2.31-1.61v-.81l4.45-1.66h.99v11.65l3.56-2.81c.36-.14,.84-.21,1.43-.21,1.18,0,2.11,.36,2.81,1.09,.69,.71,1.04,1.68,1.04,2.91v8.11l2.34,.91-.52,1.04Z"/>
  <g class="cls-2">
    <g>
      <path class="cls-3" d="M31.65,25.32c12.48-1.65,23.96-7.49,35.74-12.2,12.52-5.01,26.29-8.67,39.16-3.12,1.28,.55,1.85-1.84,.57-2.39C81.22-3.57,56.8,19.52,31.68,22.83c-1.35,.18-1.37,2.65,0,2.47h-.01v.03Z"/>
      <path class="cls-3" d="M122.32,14.68c16.54,7.51,32.74,18.07,44.36,33.91,6.26,8.55,10.53,18.4,13.35,29.08,3.22,12.19,5.53,24.75,8.18,37.11,3.03,14.2,6.07,28.41,9.12,42.6,.32,1.54,2.4,.88,2.07-.65-2.84-13.25-5.66-26.5-8.5-39.76-2.84-13.25-5.2-25.91-8.45-38.64-2.66-10.46-6.55-20.23-12.39-28.86-5.84-8.62-12.42-15.11-19.85-20.94-8.49-6.64-17.75-11.87-27.28-16.21-1.28-.58-1.83,1.8-.57,2.39h-.03v-.02Z"/>
      <path class="cls-3" d="M26.57,25.05C18.4,20.62,9.99,16.87,1.36,13.82c-.61-.21-1.43,.4-1.35,1.19,.8,8.82,4.08,17.11,9.38,23.53,2.81,3.4,6.07,5.42,9.35,8.09,2.24,1.84,2.21,4.58,2.21,7.49,0,3.11-.2,6.21-.66,9.26-.77,5.29-2.13,10.36-1.06,15.75,.86,4.31,2.85,8.21,4.5,12.17,2.08,5.03,3,9.87,2.23,15.43-.68,4.92-2.08,9.69-2.43,14.68-.74,10.92,5.62,19.07,12.92,24.92,1.14,.91,2.21-1.23,1.08-2.13-7.19-5.76-12.92-13.59-11.71-24.26,.52-4.75,1.88-9.34,2.42-14.1,.52-4.77-.03-8.79-1.56-12.99-1.53-4.22-3.86-8.39-5.04-12.92-1.46-5.57,0-10.78,.79-16.31,.64-4.51,1.3-9.98,.38-14.49-.86-4.11-4.49-5.48-7.19-7.66C8.07,35.42,3.11,25.52,2.15,15.01l-1.35,1.19c8.45,2.99,16.7,6.63,24.7,10.95,1.24,.67,2.33-1.46,1.08-2.13v.03Z"/>
      <path class="cls-3" d="M94.49,85.89c3.49,8.09,6.26,16.75,4.59,25.89-1.47,8-5.52,14.99-9.83,21.31-4.31,6.31-9.16,12.43-13.37,18.99-4.21,6.57-8.1,13.75-11.17,21.26-3.42,8.42-5.83,17.3-6.89,26.52-.19,1.57,1.95,1.57,2.14,0,2.05-17.67,9.38-33.83,18.61-47.89,8.2-12.48,20.05-24.19,22.67-40.29,1.56-9.61-1.27-18.57-4.94-27.07-.61-1.43-2.46-.18-1.85,1.25h.01v.02Z"/>
      <path class="cls-3" d="M77.09,78.67c-.93,3.93-2.36,7.63-4.4,10.95-1.86,3.03-4.35,5.38-6.33,8.29-3.9,5.68-3.68,13.92-3.25,20.79,.23,3.92,1.11,8.15-.13,11.93-1.03,3.12-3.33,5.36-5.77,7.02-2.43,1.66-5.23,2.92-7.95,4.1-3.83,1.65-7.82,3.11-11.97,2.33-1.35-.26-1.94,2.13-.57,2.39,6.76,1.25,13.98-2.16,19.94-5.65,5.33-3.12,9.16-7.89,9.07-15.12-.1-8.59-2.69-19.36,2.56-26.64,2.17-3.03,4.75-5.56,6.64-8.83,1.91-3.29,3.31-7.01,4.21-10.86,.36-1.54-1.72-2.19-2.07-.65h.01v-.03Z"/>
      <path class="cls-3" d="M107.55,52.3c15.06,1.39,28.72,10.48,38.46,23.62,10.91,14.7,15.57,33.57,16.56,52.61,.6,11.58,0,23.18-.95,34.71-.12,1.58,2.02,1.58,2.14,0,1.72-21.51,2.36-43.87-3.99-64.54-5.04-16.34-14.74-30.65-27.62-39.66-7.49-5.24-15.89-8.42-24.61-9.22-1.37-.12-1.37,2.36,0,2.47h.01Z"/>
      <path class="cls-3" d="M35.32,17.33c-.09-.12-.26-.15-.38-.08-.06,.05-.09,.08-.12,.14-.16,.21-.31,.46-.36,.73-.06,.29,.03,.64,.22,.85,.19,.21,.48,.32,.74,.26,.03,0,.06,0,.07-.05,.06-.06,.01-.15,0-.24-.06-.24,.06-.47,.19-.64,.13-.17,.35-.27,.51-.38,.07-.05,.16-.09,.2-.18,.09-.15,.01-.38-.1-.49s-.29-.15-.45-.2c-.07,0-.16-.05-.2,0-.07,.06-.1,.21-.19,.2"/>
      <path class="cls-3" d="M35.16,19.69c-.26-.05-.52-.08-.74-.27-.26-.24-.35-.64-.41-1.01-.26,0-.51,.02-.76,.09-.07,0-.12,.05-.17,.09-.09,.09-.06,.26,0,.4,.06,.14,.06,.29-.06,.4-.03,.02-.07,.05-.1,.08-.1,.08-.07,.26,0,.38,.16,.32,.47,.47,.77,.53,.52,.08,1.08-.18,1.4-.65"/>
      <path class="cls-3" d="M35.32,20.24c-.1,.2-.28,.35-.47,.46-.19,.11-.39,.14-.6,.18-.19,.05-.36,.08-.55,.09,.03,.2-.06,.41,0,.64,.06,.23,.23,.38,.42,.34,.07,0,.12-.05,.19-.05s.13,.06,.13,.12c0,.08-.07,.14-.03,.21,.01,.05,.09,.05,.12,.05,.36-.06,.71-.24,.95-.55,.23-.3,.32-.79,.17-1.19-.06-.14-.16-.27-.29-.27"/>
      <path class="cls-3" d="M37.74,20.91c-.2-.2-.29-.52-.51-.72-.19-.15-.42-.2-.66-.24-.19-.02-.41-.05-.57,.12,.09,.05,.12,.15,.13,.26,.06,.29,.1,.58,.12,.87,.01,.26,.03,.58,.2,.73,.1,.09,.26,.12,.39,.14,.09,0,.19,0,.23-.08,.03-.06,0-.15,.03-.24,.03-.14,.2-.15,.35-.21,.22-.09,.32-.47,.19-.72"/>
      <path class="cls-3" d="M37.62,18.09c-.48-.02-.96,.15-1.34,.53-.22,.21-.42,.58-.32,.91,0-.05,.03-.08,.09-.08,.55-.09,1.18-.02,1.57,.44,0,0,.03,.05,.06,.05h.07c.29-.18,.47-.58,.41-.94-.19,.06-.39-.15-.36-.4,0-.09,.07-.2,.07-.29s-.09-.21-.17-.18"/>
      <path class="cls-3" d="M42,15.77c-.09-.12-.26-.15-.38-.08-.06,.05-.09,.08-.12,.14-.16,.21-.31,.46-.36,.73-.06,.29,.03,.64,.22,.85,.19,.21,.48,.32,.74,.26,.03,0,.06,0,.07-.05,.06-.06,.01-.15,0-.24-.06-.24,.06-.47,.19-.64,.13-.17,.35-.27,.51-.38,.07-.05,.16-.09,.2-.18,.09-.15,.01-.38-.1-.49s-.29-.15-.45-.2c-.07,0-.16-.05-.2,0-.07,.06-.1,.21-.19,.2"/>
      <path class="cls-3" d="M41.83,18.12c-.26-.05-.52-.08-.74-.27-.26-.24-.35-.64-.41-1.01-.26,0-.51,.02-.76,.09-.07,0-.12,.05-.17,.09-.09,.09-.06,.26,0,.4,.06,.14,.06,.29-.06,.4-.03,.02-.07,.05-.1,.08-.1,.08-.07,.26,0,.38,.16,.32,.47,.47,.77,.53,.52,.08,1.08-.18,1.4-.65"/>
      <path class="cls-3" d="M41.97,18.65c-.1,.2-.28,.35-.47,.46-.19,.11-.39,.14-.6,.18-.19,.05-.36,.08-.55,.09,.03,.2-.06,.41,0,.64,.06,.23,.23,.38,.42,.34,.07,0,.12-.05,.19-.05s.13,.06,.13,.12c0,.08-.07,.14-.03,.21,.01,.05,.09,.05,.12,.05,.36-.06,.71-.24,.95-.55,.23-.3,.32-.79,.17-1.19-.06-.14-.16-.27-.29-.27"/>
      <path class="cls-3" d="M44.39,19.32c-.2-.2-.29-.52-.51-.72-.19-.15-.42-.2-.66-.24-.19-.02-.41-.05-.57,.12,.09,.05,.12,.15,.13,.26,.06,.29,.1,.58,.12,.87,.01,.26,.03,.58,.2,.73,.1,.09,.26,.12,.39,.14,.09,0,.19,0,.23-.08,.03-.06,0-.15,.03-.24,.03-.14,.2-.15,.35-.21,.22-.09,.32-.47,.19-.72"/>
      <path class="cls-3" d="M44.28,16.52c-.48-.02-.96,.15-1.34,.53-.22,.21-.42,.58-.32,.91,0-.05,.03-.08,.09-.08,.55-.09,1.18-.02,1.57,.44,0,0,.03,.05,.06,.05h.07c.29-.18,.47-.58,.41-.94-.19,.06-.39-.15-.36-.4,0-.09,.07-.2,.07-.29s-.09-.21-.17-.18"/>
      <path class="cls-3" d="M48.13,13.69c-.1-.09-.28-.09-.38,0-.03,.05-.07,.09-.1,.15-.12,.26-.22,.52-.2,.81,0,.32,.16,.61,.39,.78,.23,.17,.52,.18,.77,.06,.01,0,.06-.05,.07-.06,.03-.08,0-.15-.06-.24-.09-.21-.06-.47,.07-.67,.13-.2,.28-.35,.42-.52,.07-.06,.13-.14,.16-.24,.06-.18-.06-.38-.2-.46-.15-.08-.31-.08-.48-.08-.07,0-.16,0-.19,.06-.07,.08-.07,.24-.16,.24"/>
      <path class="cls-3" d="M48.43,16c-.26,.05-.52,.06-.77-.06-.29-.15-.47-.53-.6-.87-.23,.06-.48,.15-.7,.29-.06,.05-.12,.08-.13,.14-.06,.12,0,.27,.07,.4,.07,.12,.1,.27,.03,.4-.03,.05-.07,.06-.09,.09-.07,.12,0,.27,.07,.38,.22,.26,.55,.35,.86,.32,.52-.06,1-.46,1.25-1.01"/>
      <path class="cls-3" d="M48.67,16.5c-.06,.24-.2,.41-.36,.55-.16,.14-.36,.24-.55,.34-.17,.08-.35,.15-.51,.24,.07,.2,.03,.41,.12,.61,.09,.2,.31,.29,.48,.21,.07-.02,.12-.08,.17-.08s.13,0,.16,.08c0,.08-.03,.15,0,.21,.03,.05,.09,.02,.13,0,.35-.15,.66-.41,.8-.79,.15-.38,.16-.87-.07-1.19-.09-.12-.2-.21-.35-.2"/>
      <path class="cls-3" d="M51.16,16.54c-.23-.14-.39-.44-.64-.55-.2-.12-.45-.08-.67-.06-.19,.02-.41,.06-.51,.26,.09,0,.13,.12,.19,.21,.1,.27,.2,.53,.28,.81,.07,.26,.13,.55,.35,.67,.12,.08,.28,.06,.41,.05,.09,0,.19-.05,.2-.14,.01-.08-.01-.15,0-.24,0-.15,.17-.21,.29-.29,.2-.15,.22-.55,.06-.75"/>
      <path class="cls-3" d="M50.49,13.81c-.48,.09-.9,.41-1.19,.87-.17,.27-.29,.67-.13,.97-.01-.05,.01-.09,.07-.09,.51-.26,1.15-.34,1.62,.02,.01,0,.03,.02,.06,.02s.06,0,.07-.05c.23-.26,.35-.67,.22-1.04-.17,.09-.41-.06-.42-.27,0-.09,.03-.2,0-.32-.03-.12-.12-.2-.19-.12"/>
      <path class="cls-3" d="M54.69,11.07c-.1-.09-.28-.09-.38,0-.03,.05-.07,.09-.1,.15-.12,.26-.22,.52-.2,.81,0,.32,.16,.61,.39,.78,.23,.17,.52,.18,.77,.06,.01,0,.06-.05,.07-.06,.03-.08,0-.15-.06-.24-.09-.21-.06-.47,.07-.67,.13-.2,.28-.35,.42-.52,.07-.06,.13-.14,.16-.24,.06-.18-.06-.38-.2-.46-.15-.08-.31-.08-.48-.08-.07,0-.16,0-.19,.06-.07,.08-.07,.24-.16,.24"/>
      <path class="cls-3" d="M54.98,13.37c-.26,.05-.52,.06-.77-.06-.29-.15-.47-.53-.6-.87-.23,.06-.48,.15-.7,.29-.06,.05-.12,.08-.13,.14-.06,.12,0,.27,.07,.4,.07,.12,.1,.27,.03,.4-.03,.05-.07,.06-.09,.09-.07,.12,0,.27,.07,.38,.22,.26,.55,.35,.86,.32,.52-.06,1-.46,1.25-1.01"/>
      <path class="cls-3" d="M55.24,13.87c-.06,.24-.2,.41-.36,.55-.16,.14-.36,.24-.55,.34-.17,.08-.35,.15-.51,.24,.07,.2,.03,.41,.12,.61,.09,.2,.31,.29,.48,.21,.07-.02,.12-.08,.17-.08s.13,0,.16,.08c0,.08-.03,.15,0,.21,.03,.05,.09,.02,.13,0,.35-.15,.66-.41,.8-.79,.15-.38,.16-.87-.07-1.19-.09-.12-.2-.21-.35-.2"/>
      <path class="cls-3" d="M57.72,13.89c-.23-.14-.39-.44-.64-.55-.2-.12-.45-.08-.67-.06-.19,.02-.41,.06-.51,.26,.09,0,.13,.12,.19,.21,.1,.27,.2,.53,.28,.81,.07,.26,.13,.55,.35,.67,.12,.08,.28,.06,.41,.05,.09,0,.19-.05,.2-.14,.01-.08-.01-.15,0-.24,0-.15,.17-.21,.29-.29,.2-.15,.22-.55,.06-.75"/>
      <path class="cls-3" d="M57.05,11.17c-.48,.09-.9,.41-1.19,.87-.17,.27-.29,.67-.13,.97-.01-.05,.01-.09,.07-.09,.51-.26,1.15-.34,1.62,.02,.01,0,.03,.02,.06,.02s.06,0,.07-.05c.23-.26,.35-.67,.22-1.04-.17,.09-.41-.06-.42-.27,0-.09,.03-.2,0-.32-.03-.12-.12-.2-.19-.12"/>
      <path class="cls-3" d="M60.85,8.31c-.1-.09-.28-.09-.38,0-.03,.05-.07,.09-.1,.15-.12,.26-.22,.52-.2,.81,0,.32,.16,.61,.39,.78,.23,.17,.52,.18,.77,.06,.01,0,.06-.05,.07-.06,.03-.08,0-.15-.06-.24-.09-.21-.06-.47,.07-.67,.13-.2,.28-.35,.42-.52,.07-.06,.13-.14,.16-.24,.06-.18-.06-.38-.2-.46-.15-.08-.31-.08-.48-.08-.07,0-.16,0-.19,.06-.07,.08-.07,.24-.16,.24"/>
      <path class="cls-3" d="M61.17,10.64c-.26,.05-.52,.06-.77-.06-.29-.15-.47-.53-.6-.87-.23,.06-.48,.15-.7,.29-.06,.05-.12,.08-.13,.14-.06,.12,0,.27,.07,.4,.07,.12,.1,.27,.03,.4-.03,.05-.07,.06-.09,.09-.07,.12,0,.27,.07,.38,.22,.26,.55,.35,.86,.32,.52-.06,1-.46,1.25-1.01"/>
      <path class="cls-3" d="M61.42,11.14c-.06,.24-.2,.41-.36,.55-.16,.14-.36,.24-.55,.34-.17,.08-.35,.15-.51,.24,.07,.2,.03,.41,.12,.61,.09,.2,.31,.29,.48,.21,.07-.02,.12-.08,.17-.08s.13,0,.16,.08c0,.08-.03,.15,0,.21,.03,.05,.09,.02,.13,0,.35-.15,.66-.41,.8-.79,.15-.38,.16-.87-.07-1.19-.09-.12-.2-.21-.35-.2"/>
      <path class="cls-3" d="M63.91,11.16c-.23-.14-.39-.44-.64-.55-.2-.12-.45-.08-.67-.06-.19,.02-.41,.06-.51,.26,.09,0,.13,.12,.19,.21,.1,.27,.2,.53,.28,.81,.07,.26,.13,.55,.35,.67,.12,.08,.28,.06,.41,.05,.09,0,.19-.05,.2-.14,.01-.08-.01-.15,0-.24,0-.15,.17-.21,.29-.29,.2-.15,.22-.55,.06-.75"/>
      <path class="cls-3" d="M63.24,8.45c-.48,.09-.9,.41-1.19,.87-.17,.27-.29,.67-.13,.97-.01-.05,.01-.09,.07-.09,.51-.26,1.15-.34,1.62,.02,.01,0,.03,.02,.06,.02s.06,0,.07-.05c.23-.26,.35-.67,.22-1.04-.17,.09-.41-.06-.42-.27,0-.09,.03-.2,0-.32-.03-.12-.12-.2-.19-.12"/>
      <path class="cls-3" d="M67.52,5.58c-.1-.09-.28-.09-.38,0-.03,.05-.07,.09-.1,.15-.12,.26-.22,.52-.2,.81,0,.32,.16,.61,.39,.78,.23,.17,.52,.18,.77,.06,.01,0,.06-.05,.07-.06,.03-.08,0-.15-.06-.24-.09-.21-.06-.47,.07-.67,.13-.2,.28-.35,.42-.52,.07-.06,.13-.14,.16-.24,.06-.18-.06-.38-.2-.46-.15-.08-.31-.08-.48-.08-.07,0-.16,0-.19,.06-.07,.08-.07,.24-.16,.24"/>
      <path class="cls-3" d="M67.81,7.91c-.26,.05-.52,.06-.77-.06-.29-.15-.47-.53-.6-.87-.23,.06-.48,.15-.7,.29-.06,.05-.12,.08-.13,.14-.06,.12,0,.27,.07,.4,.07,.12,.1,.27,.03,.4-.03,.05-.07,.06-.09,.09-.07,.12,0,.27,.07,.38,.22,.26,.55,.35,.86,.32,.52-.06,1-.46,1.25-1.01"/>
      <path class="cls-3" d="M68.09,8.42c-.06,.24-.2,.41-.36,.55-.16,.14-.36,.24-.55,.34-.17,.08-.35,.15-.51,.24,.07,.2,.03,.41,.12,.61,.09,.2,.31,.29,.48,.21,.07-.02,.12-.08,.17-.08s.13,0,.16,.08c0,.08-.03,.15,0,.21,.03,.05,.09,.02,.13,0,.35-.15,.66-.41,.8-.79,.15-.38,.16-.87-.07-1.19-.09-.12-.2-.21-.35-.2"/>
      <path class="cls-3" d="M70.55,8.43c-.23-.14-.39-.44-.64-.55-.2-.12-.45-.08-.67-.06-.19,.02-.41,.06-.51,.26,.09,0,.13,.12,.19,.21,.1,.27,.2,.53,.28,.81,.07,.26,.13,.55,.35,.67,.12,.08,.28,.06,.41,.05,.09,0,.19-.05,.2-.14,.01-.08-.01-.15,0-.24,0-.15,.17-.21,.29-.29,.2-.15,.22-.55,.06-.75"/>
      <path class="cls-3" d="M69.88,5.72c-.48,.09-.9,.41-1.19,.87-.17,.27-.29,.67-.13,.97-.01-.05,.01-.09,.07-.09,.51-.26,1.15-.34,1.62,.02,.01,0,.03,.02,.06,.02s.06,0,.07-.05c.23-.26,.35-.67,.22-1.04-.17,.09-.41-.06-.42-.27,0-.09,.03-.2,0-.32-.03-.12-.12-.2-.19-.12"/>
      <path class="cls-3" d="M74.35,3.28c-.1-.09-.28-.09-.38,0-.03,.05-.07,.09-.1,.15-.12,.26-.22,.52-.2,.81,0,.32,.16,.61,.39,.78,.23,.17,.52,.18,.77,.06,.01,0,.06-.05,.07-.06,.03-.08,0-.15-.06-.24-.09-.21-.06-.47,.07-.67,.13-.2,.28-.35,.42-.52,.07-.06,.13-.14,.16-.24,.06-.18-.06-.38-.2-.46-.15-.08-.31-.08-.48-.08-.07,0-.16,0-.19,.06-.07,.08-.07,.24-.16,.24"/>
      <path class="cls-3" d="M74.65,5.61c-.26,.05-.52,.06-.77-.06-.29-.15-.47-.53-.6-.87-.23,.06-.48,.15-.7,.29-.06,.05-.12,.08-.13,.14-.06,.12,0,.27,.07,.4,.07,.12,.1,.27,.03,.4-.03,.05-.07,.06-.09,.09-.07,.12,0,.27,.07,.38,.22,.26,.55,.35,.86,.32,.52-.06,1-.46,1.25-1.01"/>
      <path class="cls-3" d="M74.92,6.12c-.06,.24-.2,.41-.36,.55-.16,.14-.36,.24-.55,.34-.17,.08-.35,.15-.51,.24,.07,.2,.03,.41,.12,.61,.09,.2,.31,.29,.48,.21,.07-.02,.12-.08,.17-.08s.13,0,.16,.08c0,.08-.03,.15,0,.21,.03,.05,.09,.02,.13,0,.35-.15,.66-.41,.8-.79s.16-.87-.07-1.19c-.09-.12-.2-.21-.35-.2"/>
      <path class="cls-3" d="M77.39,6.13c-.23-.14-.39-.44-.64-.55-.2-.12-.45-.08-.67-.06-.19,.02-.41,.06-.51,.26,.09,0,.13,.12,.19,.21,.1,.27,.2,.53,.28,.81,.07,.26,.13,.55,.35,.67,.12,.08,.28,.06,.41,.05,.09,0,.19-.05,.2-.14,.01-.08-.01-.15,0-.24,0-.15,.17-.21,.29-.29,.2-.15,.22-.55,.06-.75"/>
      <path class="cls-3" d="M76.72,3.42c-.48,.09-.9,.41-1.19,.87-.17,.27-.29,.67-.13,.97-.01-.05,.01-.09,.07-.09,.51-.26,1.15-.34,1.62,.02,.01,0,.03,.02,.06,.02s.06,0,.07-.05c.23-.26,.35-.67,.22-1.04-.17,.09-.41-.06-.42-.27,0-.09,.03-.2,0-.32-.03-.12-.12-.2-.19-.12"/>
      <path class="cls-3" d="M16.36,49.47c-.09-.12-.26-.15-.38-.08-.06,.05-.09,.08-.12,.14-.16,.21-.31,.46-.36,.73-.06,.29,.03,.64,.22,.85,.19,.21,.48,.32,.74,.26,.03,0,.06,0,.07-.05,.06-.06,.01-.15,0-.24-.06-.24,.06-.47,.19-.64,.13-.17,.35-.27,.51-.38,.07-.05,.16-.09,.2-.18,.09-.15,.01-.38-.1-.49-.12-.11-.29-.15-.45-.2-.07,0-.16-.05-.2,0-.07,.06-.1,.21-.19,.2"/>
      <path class="cls-3" d="M16.2,51.83c-.26-.05-.52-.08-.74-.27-.26-.24-.35-.64-.41-1.01-.26,0-.51,.02-.76,.09-.07,0-.12,.05-.17,.09-.09,.09-.06,.26,0,.4,.06,.14,.06,.29-.06,.4-.03,.02-.07,.05-.1,.08-.1,.08-.07,.26,0,.38,.16,.32,.47,.47,.77,.53,.52,.08,1.08-.18,1.4-.65"/>
      <path class="cls-3" d="M16.34,52.38c-.1,.2-.28,.35-.47,.46-.19,.11-.39,.14-.6,.18-.19,.05-.36,.08-.55,.09,.03,.2-.06,.41,0,.64,.06,.23,.23,.38,.42,.34,.07,0,.12-.05,.19-.05s.13,.06,.13,.12c0,.08-.07,.14-.03,.21,.01,.05,.09,.05,.12,.05,.36-.06,.71-.24,.95-.55,.23-.3,.32-.79,.17-1.19-.06-.14-.16-.27-.29-.27"/>
      <path class="cls-3" d="M18.76,53.03c-.2-.2-.29-.52-.51-.72-.19-.15-.42-.2-.66-.24-.19-.02-.41-.05-.57,.12,.09,.05,.12,.15,.13,.26,.06,.29,.1,.58,.12,.87,.01,.26,.03,.58,.2,.73,.1,.09,.26,.12,.39,.14,.09,0,.19,0,.23-.08,.03-.06,0-.15,.03-.24,.03-.14,.2-.15,.35-.21,.22-.09,.32-.47,.19-.72"/>
      <path class="cls-3" d="M18.64,50.23c-.48-.02-.96,.15-1.34,.53-.22,.21-.42,.58-.32,.91,0-.05,.03-.08,.09-.08,.55-.09,1.18-.02,1.57,.44,0,0,.03,.05,.06,.05h.07c.29-.18,.47-.58,.41-.94-.19,.06-.39-.15-.36-.4,0-.09,.07-.2,.07-.29s-.09-.21-.17-.18"/>
      <path class="cls-3" d="M17.33,60.89c-.07-.12-.22-.14-.35-.08-.06,.05-.09,.08-.12,.12-.13,.2-.28,.4-.32,.65-.06,.27,.03,.58,.2,.78,.17,.2,.42,.27,.67,.21,.01,0,.06,0,.07-.05,.06-.06,.01-.14,0-.21-.06-.2,.06-.41,.17-.58,.12-.17,.31-.24,.47-.34,.07-.05,.13-.09,.17-.15,.07-.14,0-.34-.1-.46-.1-.12-.26-.14-.39-.18-.07,0-.13-.02-.19,0-.07,.06-.1,.2-.17,.18"/>
      <path class="cls-3" d="M17.2,62.98c-.22-.05-.48-.08-.66-.24-.22-.21-.31-.58-.38-.88-.22,0-.45,.02-.67,.09-.06,0-.12,.05-.16,.08-.07,.09-.03,.24,0,.35,.03,.11,.06,.27-.03,.34-.03,.02-.07,.05-.1,.06-.09,.08-.07,.24,0,.34,.13,.27,.42,.44,.7,.47,.47,.06,.96-.15,1.25-.58"/>
      <path class="cls-3" d="M17.33,63.48c-.09,.18-.23,.32-.41,.4-.17,.08-.35,.12-.52,.15-.16,.05-.32,.06-.48,.09,.03,.18-.03,.38,0,.55,.03,.2,.22,.34,.39,.29,.06,0,.12-.05,.17-.05s.12,.05,.12,.12c0,.06-.06,.14-.03,.18,.01,.05,.07,.05,.12,.05,.32-.06,.64-.21,.86-.49,.22-.27,.29-.72,.16-1.05-.06-.12-.13-.24-.26-.24"/>
      <path class="cls-3" d="M19.49,64.07c-.19-.18-.26-.47-.45-.64-.16-.14-.38-.18-.58-.2-.17-.02-.38-.05-.5,.09,.09,.05,.1,.14,.12,.24,.06,.26,.09,.52,.1,.78,0,.24,.01,.52,.19,.65,.1,.09,.22,.12,.36,.14,.07,0,.17,0,.2-.06,.03-.06,0-.14,.03-.21,.03-.14,.19-.14,.31-.2,.2-.09,.29-.41,.17-.64"/>
      <path class="cls-3" d="M19.39,61.56c-.42-.02-.87,.15-1.19,.47-.2,.2-.38,.52-.29,.81,0-.05,.03-.08,.07-.08,.5-.09,1.06-.02,1.4,.4,0,0,.03,.05,.06,.05h.06c.26-.15,.41-.52,.38-.85-.17,.05-.36-.14-.32-.35,0-.09,.06-.18,.07-.26,.01-.08-.09-.2-.16-.15"/>
      <path class="cls-3" d="M14.58,76.93c-.07-.12-.22-.14-.35-.08-.06,.05-.09,.08-.12,.12-.13,.2-.28,.4-.32,.65-.06,.27,.03,.58,.2,.78,.17,.2,.42,.27,.67,.21,.01,0,.06,0,.07-.05,.06-.06,.01-.14,0-.21-.06-.2,.06-.41,.17-.58,.12-.17,.31-.24,.47-.34,.07-.05,.13-.09,.17-.15,.07-.14,0-.34-.1-.46-.1-.12-.26-.14-.39-.18-.07,0-.13-.02-.19,0-.07,.06-.1,.2-.17,.18"/>
      <path class="cls-3" d="M14.42,79.03c-.22-.05-.48-.08-.66-.24-.22-.21-.31-.58-.38-.88-.22,0-.45,.02-.67,.09-.06,0-.12,.05-.16,.08-.07,.09-.03,.24,0,.35,.03,.11,.06,.27-.03,.34-.03,.02-.07,.05-.1,.06-.09,.08-.07,.24,0,.34,.13,.27,.42,.44,.7,.47,.47,.06,.96-.15,1.25-.58"/>
      <path class="cls-3" d="M14.57,79.52c-.09,.18-.23,.32-.41,.4-.17,.08-.35,.12-.52,.15-.16,.05-.32,.06-.48,.09,.03,.18-.03,.38,0,.55,.03,.2,.22,.34,.39,.29,.06,0,.12-.05,.17-.05s.12,.05,.12,.12c0,.06-.06,.14-.03,.18,.01,.05,.07,.05,.12,.05,.32-.06,.64-.21,.86-.49,.22-.27,.29-.72,.16-1.05-.06-.12-.13-.24-.26-.24"/>
      <path class="cls-3" d="M16.72,80.11c-.19-.18-.26-.47-.45-.64-.16-.14-.38-.18-.58-.2-.17-.02-.38-.05-.5,.09,.09,.05,.1,.14,.12,.24,.06,.26,.09,.52,.1,.78,0,.24,.01,.52,.19,.65,.1,.09,.22,.12,.36,.14,.07,0,.17,0,.2-.06,.03-.06,0-.14,.03-.21,.03-.14,.19-.14,.31-.2,.2-.09,.29-.41,.17-.64"/>
      <path class="cls-3" d="M16.62,77.6c-.42-.02-.87,.15-1.19,.47-.2,.2-.38,.52-.29,.81,0-.05,.03-.08,.07-.08,.5-.09,1.06-.02,1.4,.4,0,0,.03,.05,.06,.05h.06c.26-.15,.41-.52,.38-.85-.17,.05-.36-.14-.32-.35,0-.09,.06-.18,.07-.26,.01-.08-.09-.2-.16-.15"/>
      <path class="cls-3" d="M13.2,59.29c.09-.21,.23-.4,.41-.52,.17-.12,.38-.2,.57-.27,.17-.06,.35-.12,.52-.18-.06-.2,0-.44-.07-.61-.07-.2-.28-.34-.47-.27-.07,.02-.12,.06-.19,.06s-.13-.05-.16-.09c0-.08,.06-.15,0-.21-.03-.05-.09-.05-.13-.02-.36,.09-.68,.34-.87,.69-.19,.35-.23,.84-.03,1.19,.07,.14,.19,.26,.31,.24"/>
      <path class="cls-3" d="M12.18,63.28c0,.24-.12,.46-.26,.64-.15,.18-.31,.32-.47,.46-.16,.12-.29,.24-.45,.38,.1,.15,.12,.4,.22,.58,.12,.18,.36,.21,.51,.08,.06-.05,.1-.09,.16-.14,.06-.05,.13-.02,.17,.05,.04,.06,0,.15,.06,.2,.03,.05,.09,0,.13-.02,.31-.24,.57-.58,.66-.99,.09-.41,0-.87-.29-1.14-.1-.09-.23-.15-.36-.09"/>
      <path class="cls-3" d="M15.78,68.58c0,.24-.12,.46-.26,.64-.15,.18-.31,.32-.47,.46-.16,.12-.29,.24-.45,.38,.1,.15,.12,.4,.22,.58,.12,.18,.36,.21,.51,.08,.06-.05,.1-.09,.16-.14,.06-.05,.13-.02,.17,.05,.04,.06,0,.15,.06,.2,.03,.05,.09,0,.13-.02,.31-.24,.57-.58,.66-.99,.09-.41,0-.87-.29-1.14-.1-.09-.23-.15-.36-.09"/>
      <path class="cls-3" d="M16.01,91.63c-.07-.12-.22-.14-.35-.08-.06,.05-.09,.08-.12,.12-.13,.2-.28,.4-.32,.65-.06,.27,.03,.58,.2,.78,.17,.2,.42,.27,.67,.21,.01,0,.06,0,.07-.05,.06-.06,.01-.14,0-.21-.06-.2,.06-.41,.17-.58,.12-.17,.31-.24,.47-.33,.07-.05,.13-.09,.17-.15,.07-.14,0-.33-.1-.46-.1-.12-.26-.14-.39-.18-.07,0-.13-.01-.19,0-.07,.06-.1,.2-.17,.18"/>
      <path class="cls-3" d="M15.86,93.72c-.22-.05-.48-.08-.66-.24-.22-.21-.31-.58-.38-.88-.22,0-.45,.01-.67,.09-.06,0-.12,.05-.16,.08-.07,.09-.03,.24,0,.35,.03,.11,.06,.27-.03,.33-.03,.01-.07,.05-.1,.06-.09,.08-.07,.24,0,.33,.13,.27,.42,.44,.7,.47,.47,.06,.96-.15,1.25-.58"/>
      <path class="cls-3" d="M16.01,94.22c-.09,.18-.23,.32-.41,.4-.17,.08-.35,.12-.52,.15-.16,.05-.32,.06-.48,.09,.03,.18-.03,.38,0,.55,.03,.2,.22,.34,.39,.29,.06,0,.12-.04,.17-.04s.12,.04,.12,.12c0,.06-.06,.14-.03,.18,.01,.05,.07,.05,.12,.05,.32-.06,.64-.21,.86-.49,.22-.27,.29-.71,.16-1.05-.06-.12-.13-.24-.26-.24"/>
      <path class="cls-3" d="M18.16,94.81c-.19-.18-.26-.47-.45-.64-.16-.14-.38-.18-.58-.2-.17-.01-.38-.05-.5,.09,.09,.05,.1,.14,.12,.24,.06,.26,.09,.52,.1,.78,0,.24,.01,.52,.19,.66,.1,.09,.22,.12,.36,.14,.07,0,.17,0,.2-.06s0-.14,.03-.21c.03-.14,.19-.14,.31-.2,.2-.09,.29-.41,.17-.64"/>
      <path class="cls-3" d="M18.06,92.3c-.42-.01-.87,.15-1.19,.47-.2,.2-.38,.52-.29,.81,0-.05,.03-.08,.07-.08,.5-.09,1.06-.01,1.4,.4,0,0,.03,.05,.06,.05h.06c.26-.15,.41-.52,.38-.85-.17,.04-.36-.14-.32-.35,0-.09,.06-.18,.07-.26,.01-.08-.09-.2-.16-.15"/>
      <path class="cls-3" d="M11.04,72.8c.2,0,.41,.09,.57,.24s.29,.32,.42,.52c.12,.15,.23,.34,.35,.49,.13-.14,.35-.15,.48-.29,.13-.15,.16-.44,.03-.59-.03-.06-.09-.09-.12-.18-.03-.09-.03-.15,.03-.2,.06-.05,.13,0,.17-.06,.01-.05,0-.09-.03-.15-.22-.34-.52-.61-.89-.67-.36-.06-.76,.06-.98,.41-.09,.12-.13,.29-.07,.44"/>
      <path class="cls-3" d="M16.15,84c0,.24-.12,.46-.26,.64-.15,.18-.31,.32-.47,.46-.16,.12-.29,.24-.45,.38,.1,.15,.12,.4,.22,.58,.12,.18,.36,.21,.51,.08,.06-.05,.1-.09,.16-.14,.06-.05,.13-.02,.17,.05,.04,.06,0,.15,.06,.2,.03,.05,.09,0,.13-.02,.31-.24,.57-.58,.66-.99,.09-.41,0-.87-.29-1.14-.1-.09-.23-.15-.36-.09"/>
      <path class="cls-3" d="M81.47,1.5c-.1-.12-.28-.14-.38-.05-.06,.05-.09,.09-.12,.15-.13,.24-.28,.49-.29,.78-.03,.32,.09,.64,.29,.84,.2,.2,.51,.26,.77,.15,.03,0,.06-.02,.07-.05,.06-.06,0-.15-.01-.24-.07-.21,0-.47,.13-.65,.13-.18,.31-.32,.48-.44,.07-.06,.13-.12,.19-.21,.07-.18,0-.38-.16-.47-.16-.09-.31-.14-.47-.15-.07,0-.16,0-.2,.05-.07,.08-.09,.24-.17,.21"/>
      <path class="cls-3" d="M81.51,3.86c-.26,0-.52,0-.76-.18-.28-.2-.39-.59-.5-.94-.26,.02-.5,.08-.74,.2-.06,.02-.12,.06-.16,.12-.07,.12-.01,.27,.01,.4,.03,.12,.07,.29,0,.4-.03,.05-.07,.06-.1,.08-.09,.09-.06,.27,.03,.38,.19,.29,.51,.41,.82,.44,.52,0,1.05-.29,1.34-.81"/>
      <path class="cls-3" d="M81.72,4.4c-.09,.21-.23,.4-.42,.52-.19,.12-.38,.18-.58,.26-.17,.06-.36,.12-.52,.18,.06,.2,0,.44,.06,.64,.07,.2,.28,.34,.47,.27,.07,0,.12-.06,.19-.06s.13,.05,.16,.12c0,.08-.06,.15,0,.21,.03,.05,.09,.05,.13,.02,.37-.09,.69-.32,.89-.67,.2-.35,.26-.84,.07-1.19-.07-.14-.19-.26-.31-.24"/>
      <path class="cls-3" d="M84.18,4.78c-.22-.18-.35-.49-.57-.65-.19-.14-.42-.14-.67-.15-.19,0-.42,0-.55,.18,.09,.02,.13,.14,.16,.24,.07,.27,.16,.55,.19,.85,.03,.26,.07,.58,.28,.72,.12,.08,.26,.09,.41,.09,.09,0,.19,0,.22-.09,.03-.08,0-.15,0-.24,.03-.15,.19-.18,.31-.26,.22-.14,.29-.52,.13-.73"/>
      <path class="cls-3" d="M83.8,1.97c-.48,.05-.95,.27-1.28,.67-.2,.26-.38,.61-.23,.93-.01-.05,.03-.08,.07-.09,.55-.18,1.18-.15,1.62,.26,0,0,.03,.05,.06,.05s.06,0,.07-.02c.28-.21,.41-.64,.32-.99-.19,.08-.41-.12-.39-.34,0-.09,.06-.2,.06-.29s-.1-.21-.17-.15"/>
      <path class="cls-3" d="M89.13,.36c-.07-.14-.23-.18-.38-.12-.06,.05-.1,.08-.13,.12-.17,.2-.35,.41-.41,.69-.07,.29,0,.64,.17,.87,.18,.24,.47,.35,.71,.32,.03,0,.06,0,.09-.05,.06-.06,.03-.15,.01-.24-.03-.24,.09-.47,.23-.64,.14-.17,.36-.24,.52-.34,.09-.05,.16-.08,.2-.18,.09-.15,.03-.38-.07-.52-.1-.14-.28-.2-.42-.24-.07-.02-.13-.05-.2,0-.09,.06-.12,.21-.2,.18"/>
      <path class="cls-3" d="M88.82,2.69c-.26-.06-.52-.12-.71-.34-.23-.26-.31-.65-.36-1.04-.26-.02-.51,0-.76,.05-.07,0-.12,.05-.17,.08-.09,.09-.07,.26-.03,.4,.04,.14,.03,.29-.07,.38-.03,.02-.09,.05-.12,.06-.1,.08-.09,.26-.03,.38,.13,.32,.45,.52,.74,.59,.51,.12,1.08-.08,1.44-.53"/>
      <path class="cls-3" d="M88.94,3.25c-.12,.2-.29,.34-.5,.41-.2,.08-.39,.12-.6,.14-.19,.02-.36,.05-.55,.06,.01,.21-.07,.41-.03,.64,.04,.23,.22,.4,.41,.38,.07,0,.13-.05,.19-.02,.06,.03,.13,.06,.13,.14s-.07,.14-.06,.2c.01,.06,.09,.06,.12,.06,.36-.02,.74-.18,.98-.47,.23-.29,.38-.78,.23-1.17-.06-.14-.13-.27-.28-.29"/>
      <path class="cls-3" d="M91.3,4.12c-.19-.21-.26-.55-.47-.75-.18-.18-.41-.24-.64-.27-.19-.05-.41-.08-.57,.08,.09,.05,.1,.15,.12,.27,.03,.29,.07,.58,.07,.87,0,.27,0,.58,.16,.75,.1,.12,.23,.14,.38,.18,.09,0,.19,.02,.23-.06,.03-.06,.01-.15,.06-.24,.06-.14,.22-.14,.35-.2,.23-.08,.36-.46,.23-.69"/>
      <path class="cls-3" d="M91.36,1.3c-.48-.06-.97,.08-1.37,.41-.23,.2-.47,.53-.38,.87,0-.05,.06-.08,.09-.08,.57-.06,1.18,.08,1.54,.58,0,0,.03,.05,.06,.05h.07c.29-.15,.5-.53,.47-.91-.19,.05-.38-.2-.35-.41,.01-.09,.09-.2,.09-.29s-.07-.21-.16-.18"/>
      <path class="cls-3" d="M96.22,.65c-.07-.14-.22-.21-.36-.15-.06,.02-.1,.06-.16,.12-.19,.18-.38,.38-.47,.65-.1,.29-.06,.64,.1,.88,.16,.26,.42,.4,.7,.4,.03,0,.06,0,.09-.02,.07-.05,.06-.15,.03-.24,0-.24,.12-.46,.29-.59,.17-.14,.38-.2,.57-.27,.09-.05,.17-.08,.22-.14,.1-.14,.07-.38-.03-.52-.1-.14-.26-.21-.41-.27-.07-.05-.13-.06-.2-.02-.09,.05-.13,.2-.22,.15"/>
      <path class="cls-3" d="M95.73,2.95c-.26-.08-.51-.18-.68-.4-.22-.27-.26-.69-.28-1.07-.26-.06-.5-.06-.76-.05-.07,0-.13,0-.17,.06-.09,.08-.09,.26-.07,.4,.01,.14,0,.32-.1,.38-.03,.02-.09,.02-.12,.06-.1,.06-.1,.24-.07,.38,.12,.34,.39,.58,.7,.67,.49,.18,1.08,.02,1.47-.38"/>
      <path class="cls-3" d="M95.8,3.53c-.12,.18-.32,.29-.51,.35-.19,.06-.41,.06-.61,.08h-.55c0,.21-.1,.41-.09,.61,0,.21,.19,.41,.38,.41h.19s.12,.08,.12,.15-.09,.14-.07,.2c0,.06,.07,.06,.12,.06,.36,0,.74-.09,1-.38,.26-.29,.42-.73,.32-1.13-.03-.14-.12-.29-.23-.34"/>
      <path class="cls-3" d="M98.08,4.62c-.18-.24-.22-.58-.39-.79-.16-.2-.39-.27-.6-.35-.19-.06-.41-.12-.57,0,.09,.06,.09,.18,.1,.27v.87c-.01,.26-.06,.58,.1,.78,.09,.12,.23,.18,.36,.21,.09,.02,.19,.05,.23-.02,.04-.06,.03-.15,.07-.21,.07-.14,.23-.12,.36-.15,.23-.06,.39-.41,.29-.67"/>
      <path class="cls-3" d="M98.36,1.84c-.47-.12-.98,0-1.38,.27-.26,.18-.5,.49-.45,.84,0-.06,.06-.08,.1-.08,.57,0,1.18,.2,1.49,.73,0,.02,.01,.05,.06,.06h.07c.31-.12,.53-.47,.55-.85-.19,0-.36-.24-.31-.46,.03-.09,.09-.18,.12-.27,.03-.09-.06-.24-.13-.2"/>
      <path class="cls-3" d="M103.2,1.56c-.06-.15-.19-.26-.32-.21-.06,0-.1,.05-.16,.08-.2,.14-.42,.32-.55,.55-.13,.27-.16,.61-.03,.88,.13,.27,.36,.47,.64,.52h.09s.07-.14,.07-.21c0-.24,.17-.44,.36-.53,.19-.09,.39-.14,.6-.18,.09,0,.17-.05,.23-.09,.12-.12,.12-.35,.03-.52-.09-.17-.22-.26-.36-.35-.07-.05-.13-.08-.2-.06-.09,.05-.16,.15-.23,.12"/>
      <path class="cls-3" d="M102.4,3.74c-.23-.14-.48-.27-.61-.53-.18-.32-.16-.73-.12-1.11-.23-.09-.48-.15-.74-.18-.07,0-.13,0-.19,.05-.1,.08-.12,.24-.12,.38s-.03,.29-.16,.35c-.03,0-.09,0-.12,.02-.12,.05-.13,.21-.12,.35,.07,.35,.31,.64,.6,.79,.48,.26,1.06,.24,1.5-.09"/>
      <path class="cls-3" d="M102.4,4.32c-.16,.15-.36,.24-.57,.26-.2,.02-.41,0-.61-.05-.19-.05-.36-.06-.55-.09-.01,.21-.16,.38-.17,.59,0,.21,.13,.44,.32,.47,.07,0,.13,0,.19,.05,.06,.05,.12,.09,.1,.18-.01,.09-.1,.12-.09,.18,0,.06,.07,.08,.1,.08,.36,.08,.74,.05,1.06-.18,.32-.23,.53-.64,.48-1.05,0-.15-.07-.32-.2-.38"/>
      <path class="cls-3" d="M104.49,5.84c-.13-.26-.13-.61-.28-.87-.12-.21-.35-.34-.55-.46-.17-.09-.38-.2-.57-.09,.07,.06,.07,.2,.06,.29-.03,.29-.07,.58-.13,.87-.06,.26-.13,.55,0,.78,.07,.14,.2,.21,.32,.27,.07,.05,.18,.08,.23,0,.06-.06,.06-.14,.1-.21,.09-.12,.23-.08,.38-.08,.23,0,.45-.34,.38-.61"/>
      <path class="cls-3" d="M105.16,3.13c-.45-.2-.96-.2-1.4,0-.28,.12-.57,.4-.55,.73,0-.06,.07-.06,.1-.06,.55,.09,1.14,.41,1.37,1.01,0,.02,.01,.05,.03,.06h.07c.32-.06,.6-.38,.65-.75-.19,0-.32-.29-.23-.49,.03-.09,.12-.15,.16-.26,.04-.11-.01-.24-.1-.21"/>
      <path class="cls-3" d="M126.92,9.03c-.01-.15-.16-.27-.29-.27-.06,0-.12,.02-.18,.06-.22,.09-.47,.21-.61,.44-.18,.24-.22,.58-.16,.87,.06,.29,.29,.53,.55,.64h.09s.09-.14,.1-.21c.06-.24,.23-.4,.42-.46,.19-.06,.41-.06,.61-.06,.09,0,.18,0,.26-.06,.13-.09,.18-.32,.1-.49-.07-.17-.19-.29-.31-.41-.06-.06-.12-.09-.19-.09-.09,0-.19,.14-.26,.06"/>
      <path class="cls-3" d="M125.83,11.01c-.2-.18-.42-.35-.55-.64-.13-.35-.06-.75,.03-1.11-.22-.14-.47-.26-.7-.32-.07,0-.12-.05-.19,0-.12,.05-.16,.21-.18,.34-.01,.12-.09,.29-.19,.32h-.12c-.12,.02-.18,.2-.16,.34,0,.35,.22,.67,.48,.88,.42,.35,1.03,.41,1.5,.2"/>
      <path class="cls-3" d="M125.74,11.57c-.18,.14-.39,.15-.6,.15s-.41-.08-.6-.15c-.18-.06-.35-.14-.51-.2-.06,.2-.2,.35-.26,.55-.06,.21,.07,.46,.23,.53,.07,.02,.12,.05,.19,.08,.07,.03,.1,.12,.07,.18-.03,.06-.12,.09-.12,.15s.06,.08,.1,.09c.35,.14,.74,.18,1.06,0,.32-.18,.6-.53,.64-.94,0-.15-.03-.32-.13-.4"/>
      <path class="cls-3" d="M127.59,13.47c-.1-.27-.06-.61-.16-.91-.1-.24-.29-.4-.48-.55-.16-.12-.36-.26-.55-.2,.07,.08,.03,.2,0,.29-.07,.27-.16,.55-.26,.84-.09,.24-.2,.52-.12,.78,.06,.14,.17,.26,.29,.34,.07,.06,.16,.12,.23,.06,.06-.05,.07-.14,.12-.2,.1-.09,.26-.02,.39,0,.23,.02,.48-.24,.47-.53"/>
      <path class="cls-3" d="M128.64,10.91c-.41-.27-.93-.38-1.38-.26-.29,.08-.6,.27-.66,.61,0-.06,.07-.05,.1-.05,.52,.2,1.06,.61,1.19,1.25,0,.02,0,.06,.03,.06h.07c.32,0,.64-.26,.76-.61-.19-.06-.29-.35-.18-.53,.06-.08,.13-.14,.19-.21,.06-.08,0-.24-.07-.24"/>
      <path class="cls-3" d="M132.98,12.24c-.02-.15-.16-.27-.29-.27-.06,0-.12,.02-.17,.06-.22,.09-.47,.21-.61,.44-.18,.24-.22,.58-.16,.87s.29,.53,.55,.64h.09s.09-.14,.1-.21c.06-.24,.23-.4,.42-.46,.19-.06,.41-.06,.61-.06,.09,0,.18,0,.26-.06,.13-.09,.17-.32,.1-.49-.07-.17-.19-.29-.31-.41-.06-.06-.12-.09-.19-.09-.09,0-.19,.14-.26,.06"/>
      <path class="cls-3" d="M131.88,14.22c-.2-.18-.42-.35-.55-.64-.13-.35-.06-.75,.03-1.11-.22-.14-.47-.26-.7-.32-.07,0-.12-.05-.19,0-.12,.05-.16,.21-.18,.34-.01,.12-.09,.29-.19,.32h-.12c-.12,.02-.18,.2-.16,.34,0,.35,.22,.67,.48,.88,.42,.35,1.03,.41,1.5,.2"/>
      <path class="cls-3" d="M131.8,14.8c-.18,.14-.39,.15-.6,.15s-.41-.08-.6-.15c-.18-.06-.35-.14-.51-.2-.06,.2-.2,.35-.26,.55-.06,.21,.07,.46,.23,.53,.07,.02,.12,.05,.19,.08,.07,.03,.1,.12,.07,.18-.03,.06-.12,.09-.12,.15s.06,.08,.1,.09c.35,.14,.74,.18,1.06,0,.32-.18,.6-.53,.64-.94,0-.15-.03-.32-.13-.4"/>
      <path class="cls-3" d="M133.65,16.7c-.1-.27-.06-.61-.16-.91-.1-.24-.29-.4-.48-.55-.16-.12-.36-.26-.55-.2,.07,.08,.03,.2,0,.29-.07,.27-.16,.55-.26,.84-.09,.24-.2,.52-.12,.78,.06,.14,.17,.26,.29,.34,.07,.06,.16,.12,.23,.06,.06-.05,.07-.14,.12-.2,.1-.09,.26-.02,.39,0,.23,.02,.48-.24,.47-.53"/>
      <path class="cls-3" d="M134.7,14.14c-.41-.27-.93-.38-1.38-.26-.29,.08-.6,.27-.66,.61,0-.06,.07-.05,.1-.05,.53,.2,1.06,.61,1.19,1.25,0,.02,0,.06,.03,.06h.07c.32,0,.64-.26,.76-.61-.19-.06-.29-.35-.18-.53,.06-.08,.13-.14,.19-.21,.06-.08,0-.24-.07-.24"/>
      <path class="cls-3" d="M139.17,15.74c0-.15-.13-.29-.29-.29-.06,0-.12,0-.18,.05-.23,.08-.48,.2-.64,.4-.19,.24-.26,.58-.19,.87,.07,.29,.28,.55,.51,.67,.03,0,.06,.02,.09,0,.07,0,.09-.12,.1-.2,.07-.21,.26-.38,.47-.44,.2-.06,.41-.05,.61,0,.09,0,.18,0,.26-.05,.13-.08,.19-.32,.13-.49-.06-.17-.18-.32-.29-.44-.06-.06-.12-.12-.19-.12-.09,0-.19,.12-.26,.06"/>
      <path class="cls-3" d="M137.97,17.65c-.2-.18-.41-.4-.51-.67-.12-.35,0-.75,.09-1.11-.2-.15-.45-.27-.69-.35-.07-.02-.12-.05-.19,0-.12,.05-.16,.2-.19,.34-.03,.14-.09,.29-.2,.29h-.12c-.12,0-.18,.18-.18,.32,0,.35,.19,.69,.42,.91,.41,.38,.99,.49,1.49,.29"/>
      <path class="cls-3" d="M137.87,18.23c-.18,.12-.39,.14-.6,.12-.2-.02-.39-.12-.6-.2-.18-.08-.35-.15-.51-.24-.07,.2-.22,.34-.29,.53-.06,.21,.06,.46,.22,.55,.06,.02,.12,.05,.19,.08,.07,.03,.09,.12,.07,.2-.03,.06-.12,.08-.12,.15,0,.06,.06,.09,.09,.12,.32,.15,.71,.21,1.06,.08,.35-.14,.64-.49,.67-.91,0-.15,0-.34-.12-.41"/>
      <path class="cls-3" d="M139.6,20.24c-.09-.29,0-.64-.12-.91-.09-.24-.28-.41-.45-.59-.16-.14-.35-.27-.53-.24,.06,.08,.03,.2,0,.29-.09,.27-.17,.55-.29,.81-.1,.24-.23,.49-.16,.75,.06,.15,.16,.26,.28,.35,.07,.06,.16,.12,.22,.08s.09-.12,.13-.18c.1-.09,.26,0,.39,0,.23,.05,.5-.21,.48-.49"/>
      <path class="cls-3" d="M140.77,17.77c-.39-.32-.9-.44-1.37-.35-.29,.06-.61,.24-.68,.58,0-.05,.07-.05,.12-.02,.51,.24,1.03,.69,1.15,1.33,0,.02,0,.06,.01,.06,0,0,.03,.02,.07,.02,.32,.02,.65-.21,.77-.55-.19-.06-.26-.38-.13-.55,.06-.08,.13-.12,.19-.21s.01-.24-.07-.24"/>
      <path class="cls-3" d="M145.18,19.49c0-.15-.13-.29-.28-.29-.06,0-.12,0-.17,.05-.23,.08-.48,.18-.65,.38-.19,.21-.28,.55-.22,.87,.06,.32,.26,.58,.49,.67,.03,0,.06,.02,.09,0,.07,0,.09-.12,.12-.2,.07-.21,.28-.38,.47-.41,.19-.03,.41,0,.61,0,.09,0,.17,0,.26-.05,.16-.08,.19-.29,.16-.49-.03-.2-.18-.32-.28-.46-.06-.06-.1-.12-.17-.12-.09,0-.19,.12-.26,.05"/>
      <path class="cls-3" d="M143.93,21.35c-.2-.2-.41-.4-.49-.69-.1-.35,0-.75,.12-1.11-.2-.15-.45-.29-.68-.38-.07-.02-.12-.05-.19-.02-.12,.05-.16,.2-.2,.32-.04,.12-.1,.27-.22,.29h-.12c-.12,0-.19,.18-.19,.32,0,.35,.18,.69,.41,.93,.39,.4,.98,.53,1.49,.34"/>
      <path class="cls-3" d="M143.78,21.91c-.19,.12-.39,.12-.6,.08s-.39-.12-.58-.21c-.18-.08-.35-.15-.49-.26-.07,.2-.23,.32-.29,.52-.07,.21,.03,.46,.2,.55,.06,.05,.12,.05,.17,.08,.06,.03,.09,.14,.06,.2-.03,.06-.12,.08-.12,.15,0,.06,.06,.09,.09,.12,.32,.18,.71,.26,1.06,.12,.35-.14,.66-.47,.7-.88,.01-.15,0-.34-.12-.41"/>
      <path class="cls-3" d="M145.5,24c-.07-.29,0-.64-.09-.91-.07-.26-.26-.44-.42-.59-.16-.14-.32-.29-.52-.26,.06,.08,.01,.2,0,.29-.1,.27-.19,.53-.31,.79-.1,.24-.26,.49-.18,.75,.06,.15,.16,.26,.26,.38,.07,.06,.16,.14,.22,.08,.07-.05,.09-.12,.13-.18,.1-.09,.26,0,.38,.02,.23,.06,.5-.2,.5-.47"/>
      <path class="cls-3" d="M146.72,21.56c-.39-.32-.89-.47-1.37-.4-.29,.05-.61,.21-.68,.55,0-.05,.07-.05,.12-.02,.51,.26,1,.73,1.11,1.37,0,.02,0,.06,.01,.06,0,0,.03,.02,.07,.02,.32,.05,.66-.2,.79-.53-.19-.08-.26-.4-.12-.55,.06-.08,.16-.12,.2-.2,.04-.08,.03-.24-.06-.24"/>
      <path class="cls-3" d="M150.86,23.69c0-.15-.1-.32-.23-.34h-.18c-.23,.05-.49,.12-.68,.29-.2,.2-.32,.52-.31,.84,.01,.32,.19,.59,.42,.75,.01,0,.06,.02,.09,.02,.07,0,.1-.09,.13-.18,.09-.21,.31-.34,.51-.35,.2-.02,.41,.05,.61,.08,.09,0,.18,.05,.26,0,.16-.06,.22-.27,.19-.46-.03-.18-.13-.34-.22-.49-.06-.06-.1-.14-.18-.14-.09,0-.2,.09-.26,0"/>
      <path class="cls-3" d="M149.42,25.39c-.18-.21-.36-.46-.41-.75-.07-.38,.09-.75,.23-1.08-.19-.2-.41-.35-.64-.47-.06-.05-.12-.06-.19-.05-.12,.02-.19,.18-.22,.29-.03,.11-.13,.27-.26,.26-.03,0-.09-.02-.12-.02-.12,0-.2,.15-.22,.29-.06,.35,.09,.72,.31,.99,.36,.46,.93,.66,1.44,.53"/>
      <path class="cls-3" d="M149.26,25.93c-.19,.08-.41,.08-.6,0-.19-.08-.38-.18-.57-.29-.16-.09-.32-.21-.48-.32-.09,.18-.28,.29-.35,.47-.09,.2,0,.46,.16,.58,.06,.05,.12,.06,.17,.12,.06,.06,.07,.14,.03,.2-.03,.06-.13,.06-.13,.14,0,.06,.03,.09,.07,.12,.3,.21,.68,.34,1.05,.27,.36-.06,.68-.38,.79-.79,.03-.14,.03-.32-.07-.44"/>
      <path class="cls-3" d="M150.73,28.23c-.06-.29,.07-.61,0-.93-.06-.26-.2-.46-.38-.65-.13-.15-.29-.34-.49-.32,.06,.09,0,.21-.03,.29-.12,.26-.23,.52-.39,.75-.13,.21-.29,.46-.26,.72,.03,.15,.12,.27,.22,.4,.06,.08,.13,.15,.22,.12,.07-.02,.1-.12,.16-.15,.12-.08,.26,.05,.38,.08,.23,.08,.51-.12,.55-.4"/>
      <path class="cls-3" d="M152.2,25.98c-.36-.38-.84-.59-1.33-.58-.29,0-.65,.14-.74,.46,0-.05,.07-.05,.12,0,.48,.34,.93,.85,.96,1.51v.08s.03,.02,.07,.05c.32,.08,.67-.09,.85-.41-.18-.09-.2-.41-.07-.58,.07-.06,.16-.09,.22-.18s.06-.24-.03-.26"/>
      <path class="cls-3" d="M156.22,27.91c0-.15-.1-.32-.23-.34h-.17c-.23,.05-.5,.12-.68,.29-.2,.2-.32,.52-.31,.84,.01,.32,.19,.59,.42,.75,.01,0,.06,.02,.09,.02,.07,0,.1-.09,.13-.18,.09-.21,.31-.34,.51-.35,.2-.02,.41,.05,.61,.08,.09,0,.18,.05,.26,0,.16-.06,.22-.27,.19-.46-.03-.18-.13-.34-.22-.49-.06-.06-.1-.14-.18-.14-.09,0-.2,.09-.26,0"/>
      <path class="cls-3" d="M154.78,29.59c-.17-.21-.36-.46-.41-.75-.07-.38,.09-.75,.23-1.08-.19-.2-.41-.35-.64-.47-.06-.05-.12-.06-.19-.05-.12,.02-.19,.18-.22,.29-.03,.11-.13,.27-.26,.26-.03,0-.09-.02-.12-.02-.12,0-.2,.15-.22,.29-.06,.35,.09,.72,.31,.99,.36,.46,.93,.65,1.44,.53"/>
      <path class="cls-3" d="M154.62,30.12c-.19,.08-.41,.08-.6,0-.19-.08-.38-.18-.57-.29-.16-.09-.32-.21-.48-.32-.09,.18-.28,.29-.35,.47-.09,.2,0,.46,.16,.58,.06,.05,.12,.06,.18,.12,.06,.06,.07,.14,.03,.2-.03,.06-.13,.06-.13,.14,0,.06,.03,.09,.07,.12,.31,.21,.68,.34,1.05,.27,.36-.06,.68-.38,.79-.79,.03-.14,.03-.32-.07-.44"/>
      <path class="cls-3" d="M156.09,32.42c-.06-.29,.07-.61,0-.93-.06-.26-.2-.46-.38-.65-.13-.15-.29-.34-.49-.32,.06,.09,0,.21-.03,.29-.12,.26-.23,.52-.39,.75-.13,.21-.29,.46-.26,.72,.03,.15,.12,.27,.22,.4,.06,.08,.13,.15,.22,.12,.07-.02,.1-.12,.16-.15,.12-.08,.26,.05,.38,.08,.23,.08,.51-.12,.55-.4"/>
      <path class="cls-3" d="M157.56,30.17c-.36-.38-.84-.59-1.32-.58-.29,0-.65,.14-.74,.46,0-.05,.07-.05,.12,0,.48,.34,.93,.85,.96,1.51v.08s.03,.02,.07,.05c.32,.08,.67-.09,.85-.41-.17-.09-.2-.41-.07-.58,.07-.06,.16-.09,.22-.18,.06-.09,.06-.24-.03-.26"/>
      <path class="cls-3" d="M161.7,32.54c0-.15-.09-.32-.22-.35h-.18c-.23,.02-.49,.08-.7,.24-.22,.18-.36,.49-.35,.79,.01,.3,.16,.61,.39,.78,.01,0,.06,.05,.09,.05,.07,0,.1-.09,.16-.18,.1-.2,.32-.29,.52-.32,.2-.03,.41,.08,.6,.14,.09,.02,.18,.06,.26,.02,.16-.05,.23-.26,.22-.46-.01-.2-.1-.35-.2-.49-.03-.06-.09-.14-.16-.15-.09,0-.2,.08-.26,0"/>
      <path class="cls-3" d="M160.18,34.1c-.17-.24-.35-.47-.38-.78-.06-.38,.12-.73,.29-1.07-.18-.2-.38-.38-.6-.52-.06-.05-.12-.06-.19-.06-.12,0-.19,.15-.23,.27-.04,.12-.13,.26-.26,.24-.03,0-.09-.05-.12-.05-.12,0-.2,.14-.23,.27-.07,.35,.06,.73,.26,1.01,.32,.47,.89,.73,1.4,.65"/>
      <path class="cls-3" d="M159.96,34.63c-.19,.08-.41,.05-.6-.05-.19-.09-.38-.21-.55-.34-.16-.12-.31-.24-.47-.35-.1,.18-.29,.27-.38,.46-.1,.2-.03,.46,.12,.59,.06,.05,.12,.08,.16,.12,.04,.05,.07,.14,.01,.2-.06,.06-.13,.06-.16,.12,0,.06,.03,.09,.07,.14,.29,.24,.67,.4,1.03,.35s.7-.32,.82-.72c.03-.14,.06-.32-.06-.44"/>
      <path class="cls-3" d="M161.3,37.04c-.03-.29,.1-.61,.06-.91-.03-.26-.19-.47-.32-.67-.12-.18-.28-.35-.48-.35,.03,.09,0,.2-.06,.29-.13,.24-.28,.49-.42,.72-.16,.2-.32,.44-.29,.69,.01,.15,.1,.29,.2,.41,.06,.08,.12,.15,.2,.14,.07-.02,.1-.09,.16-.14,.12-.08,.26,.06,.38,.09,.22,.09,.51-.08,.57-.35"/>
      <path class="cls-3" d="M162.9,34.89c-.32-.4-.8-.65-1.28-.67-.29-.02-.66,.08-.77,.4,.01-.05,.09-.02,.12,0,.47,.35,.87,.93,.87,1.58v.08s.03,.05,.06,.05c.31,.09,.67-.05,.86-.35-.17-.12-.19-.44-.03-.58,.07-.06,.18-.08,.22-.15,.04-.08,.07-.24-.01-.26"/>
      <path class="cls-3" d="M166.69,37.78c.01-.15-.09-.32-.22-.35h-.17c-.23,.02-.5,.06-.7,.21-.22,.18-.36,.47-.36,.79s.16,.61,.38,.79c.01,0,.06,.05,.09,.05,.07,0,.12-.09,.16-.18,.1-.2,.32-.29,.53-.29s.41,.08,.6,.14c.09,.02,.17,.06,.26,.05,.16-.05,.23-.26,.22-.44-.01-.18-.1-.35-.19-.52-.03-.06-.09-.14-.16-.15-.09,0-.2,.06-.26,0"/>
      <path class="cls-3" d="M165.15,39.31c-.16-.24-.32-.49-.36-.79-.03-.38,.13-.73,.31-1.05-.18-.21-.38-.4-.6-.53-.06-.05-.12-.08-.18-.06-.12,0-.19,.15-.26,.27-.07,.12-.16,.26-.28,.24-.03,0-.09-.05-.12-.05-.12,0-.2,.14-.23,.27-.07,.35,.03,.73,.23,1.01,.32,.47,.87,.75,1.38,.67"/>
      <path class="cls-3" d="M164.93,39.84c-.2,.06-.41,.05-.6-.06-.19-.11-.36-.21-.52-.35-.16-.12-.31-.24-.45-.35-.1,.18-.29,.26-.38,.44-.1,.2-.06,.46,.1,.59,.06,.05,.12,.08,.16,.12,.04,.05,.07,.14,.01,.2-.06,.06-.13,.06-.16,.12,0,.06,.03,.09,.07,.14,.29,.26,.66,.41,1.01,.38,.35-.03,.71-.29,.85-.69,.06-.14,.06-.32-.03-.44"/>
      <path class="cls-3" d="M166.22,42.28c-.01-.32,.1-.61,.07-.91-.03-.26-.17-.47-.32-.69-.12-.18-.28-.38-.47-.38,.03,.09,0,.2-.07,.29-.13,.24-.28,.49-.45,.72-.16,.2-.32,.44-.31,.69,0,.15,.1,.29,.19,.41,.06,.08,.12,.15,.2,.14,.07,0,.1-.09,.18-.14,.12-.08,.26,.06,.38,.12,.22,.12,.52-.08,.57-.35"/>
      <path class="cls-3" d="M167.86,40.18c-.32-.41-.79-.67-1.27-.72-.29-.02-.66,.06-.77,.38,.01-.05,.09-.02,.12,0,.47,.38,.86,.94,.85,1.6v.08s.03,.05,.06,.05c.31,.09,.69-.05,.87-.34-.18-.12-.19-.44-.01-.58,.07-.06,.18-.08,.23-.15,.06-.08,.07-.21,0-.26"/>
      <path class="cls-3" d="M171.16,43.07c.03-.15-.06-.34-.19-.38-.06-.02-.12-.02-.17-.02-.23,0-.5,0-.71,.15-.23,.15-.39,.44-.42,.75-.03,.3,.1,.64,.31,.81,.01,.02,.06,.05,.07,.05,.07,0,.12-.08,.16-.15,.12-.2,.35-.26,.55-.24,.2,.02,.39,.12,.58,.2,.09,.05,.18,.08,.26,.06,.16-.02,.26-.24,.26-.41s-.07-.35-.16-.53c-.03-.08-.07-.15-.13-.18-.09-.02-.2,.05-.26-.05"/>
      <path class="cls-3" d="M169.52,44.46c-.13-.26-.29-.52-.29-.84,0-.38,.19-.72,.39-1.01-.16-.24-.35-.44-.55-.59-.06-.05-.1-.08-.17-.08-.12,0-.2,.14-.28,.24-.07,.11-.18,.24-.29,.21-.03,0-.09-.05-.12-.06-.12-.02-.22,.12-.26,.24-.1,.34,0,.73,.16,1.04,.29,.52,.8,.84,1.34,.81"/>
      <path class="cls-3" d="M169.24,44.94c-.2,.05-.41,0-.6-.12-.19-.12-.35-.26-.51-.4-.13-.14-.28-.27-.42-.41-.12,.15-.31,.24-.41,.4-.12,.18-.09,.46,.06,.59,.06,.06,.1,.08,.16,.14,.06,.06,.06,.15,0,.2-.06,.05-.13,.05-.16,.09,0,.06,.01,.09,.06,.14,.28,.27,.61,.47,.99,.47s.74-.24,.89-.61c.06-.14,.09-.32,0-.44"/>
      <path class="cls-3" d="M170.35,47.5c0-.32,.16-.59,.13-.91,0-.26-.13-.49-.28-.72-.1-.2-.23-.4-.45-.41,.03,.09-.03,.2-.09,.29-.16,.24-.32,.46-.5,.65-.18,.18-.36,.4-.36,.66,0,.15,.09,.29,.16,.44,.06,.08,.12,.18,.19,.15,.07,0,.12-.09,.17-.12,.12-.06,.23,.08,.36,.15,.22,.14,.53,0,.6-.29"/>
      <path class="cls-3" d="M172.14,45.58c-.29-.44-.74-.75-1.21-.84-.29-.06-.65,0-.8,.29,.01-.05,.09,0,.12,0,.42,.41,.79,1.04,.71,1.68v.08s.03,.05,.06,.05c.3,.14,.68,.05,.89-.24-.16-.14-.16-.46,.01-.58,.07-.06,.17-.06,.23-.14,.06-.08,.09-.21,0-.26"/>
      <path class="cls-3" d="M175.54,48.6c.03-.15-.03-.34-.17-.4-.06-.02-.12-.05-.18-.05-.23-.02-.49-.02-.71,.09-.23,.14-.42,.41-.47,.72-.04,.3,.07,.64,.28,.85,.01,.02,.06,.05,.07,.05,.07,0,.12-.08,.18-.14,.13-.18,.36-.24,.57-.2,.2,.05,.39,.15,.58,.26,.09,.05,.16,.08,.23,.08,.16,0,.28-.21,.29-.4,.01-.18-.06-.35-.12-.53-.03-.08-.07-.15-.13-.18-.09-.05-.22,.05-.26-.06"/>
      <path class="cls-3" d="M173.81,49.85c-.12-.26-.26-.53-.26-.85,0-.38,.23-.69,.45-.99-.13-.24-.32-.46-.51-.64-.06-.05-.1-.09-.17-.09-.12,0-.2,.12-.29,.21-.09,.09-.19,.21-.29,.2-.03,0-.07-.05-.12-.06-.12-.05-.22,.09-.28,.21-.12,.34-.06,.73,.1,1.04,.26,.53,.77,.88,1.28,.91"/>
      <path class="cls-3" d="M173.52,50.32c-.2,.05-.41-.05-.58-.15-.18-.11-.32-.27-.48-.44-.13-.14-.28-.29-.39-.44-.12,.15-.32,.21-.45,.38-.12,.18-.1,.46,.01,.59,.06,.06,.1,.09,.13,.15,.03,.06,.06,.15,0,.2-.06,.05-.13,.02-.17,.09-.01,.06,0,.09,.06,.14,.26,.29,.6,.52,.96,.55,.36,.03,.76-.18,.93-.55,.07-.14,.1-.32,.01-.44"/>
      <path class="cls-3" d="M174.48,52.96c.01-.32,.19-.59,.19-.88,0-.26-.12-.52-.22-.73-.1-.2-.22-.41-.41-.46,.03,.09-.03,.2-.1,.27-.18,.21-.35,.44-.53,.61-.17,.18-.38,.35-.39,.64,0,.15,.07,.32,.13,.46,.03,.08,.1,.18,.19,.18,.07,0,.12-.08,.19-.12,.12-.06,.23,.09,.36,.18,.2,.14,.52,.02,.61-.24"/>
      <path class="cls-3" d="M176.37,51.17c-.28-.46-.68-.79-1.16-.93-.29-.08-.66-.05-.82,.24,.01-.05,.09,0,.12,.02,.41,.46,.71,1.08,.64,1.72v.08s.03,.05,.06,.06c.29,.15,.67,.08,.9-.18-.16-.14-.12-.47,.06-.58,.09-.05,.18-.06,.26-.12,.09-.06,.1-.21,.01-.26"/>
      <path class="cls-3" d="M179.4,54.55c.06-.14,0-.34-.12-.41-.06-.05-.1-.06-.17-.06-.23-.06-.5-.09-.71-.02-.26,.09-.48,.34-.55,.64-.07,.3,0,.64,.16,.87,.01,.02,.03,.06,.07,.06,.07,.02,.13-.06,.19-.12,.16-.15,.39-.18,.58-.09,.19,.09,.36,.21,.52,.34,.07,.06,.16,.12,.23,.12,.16,0,.29-.15,.32-.34,.03-.18,0-.38-.06-.55-.01-.08-.06-.15-.1-.2-.09-.05-.22,0-.23-.09"/>
      <path class="cls-3" d="M177.54,55.51c-.09-.27-.19-.58-.13-.87,.06-.38,.32-.65,.57-.91-.12-.26-.26-.49-.42-.72-.06-.06-.09-.09-.16-.12-.12-.05-.22,.08-.31,.18-.09,.11-.2,.2-.31,.14-.03-.02-.07-.06-.1-.08-.1-.06-.23,.06-.29,.18-.16,.32-.13,.72-.03,1.05,.19,.58,.65,1.01,1.17,1.13"/>
      <path class="cls-3" d="M177.2,55.93c-.2,0-.39-.12-.57-.26s-.29-.34-.42-.52c-.12-.15-.22-.34-.35-.49-.13,.14-.35,.15-.48,.29-.13,.14-.17,.41-.06,.59,.03,.06,.09,.12,.12,.18,.03,.06,.01,.15-.03,.2-.04,.05-.13,0-.17,.06-.03,.05,0,.09,.03,.15,.22,.34,.51,.61,.87,.69,.36,.08,.76-.06,.98-.4,.09-.12,.13-.29,.07-.41"/>
      <path class="cls-3" d="M177.83,58.7c.06-.29,.26-.55,.31-.85,.03-.26-.06-.52-.13-.78-.07-.21-.18-.46-.36-.52,0,.09-.07,.2-.13,.26-.19,.18-.39,.38-.6,.53-.19,.14-.42,.29-.47,.55-.01,.15,.03,.32,.07,.47,.03,.09,.09,.2,.18,.2,.07,0,.12-.06,.19-.08,.13-.02,.22,.14,.32,.24,.19,.18,.51,.12,.64-.14"/>
      <path class="cls-3" d="M179.93,57.25c-.2-.49-.58-.91-1.03-1.11-.28-.12-.64-.15-.85,.09,.03-.05,.09,0,.1,.05,.35,.52,.58,1.19,.41,1.8v.08s.03,.05,.06,.06c.28,.21,.66,.2,.93-.02-.13-.15-.07-.47,.12-.55,.09-.05,.19-.02,.26-.06s.12-.2,.06-.24"/>
      <path class="cls-3" d="M182.67,60.66c.06-.14,0-.34-.12-.41-.06-.05-.1-.06-.18-.06-.23-.06-.5-.09-.71-.02-.26,.09-.48,.34-.55,.64-.07,.3,0,.64,.16,.87,.01,.02,.03,.06,.07,.06,.07,.02,.13-.06,.19-.12,.16-.15,.39-.18,.58-.09,.19,.09,.36,.21,.53,.34,.07,.06,.16,.12,.23,.12,.16,0,.29-.15,.32-.34,.03-.18,0-.38-.06-.55-.01-.08-.06-.15-.1-.2-.09-.05-.22,0-.23-.09"/>
      <path class="cls-3" d="M180.8,61.62c-.09-.27-.19-.58-.13-.87,.06-.38,.32-.65,.57-.91-.12-.26-.26-.49-.42-.72-.06-.06-.09-.09-.16-.12-.12-.05-.22,.08-.31,.18-.09,.11-.2,.2-.31,.14-.03-.02-.07-.06-.1-.08-.1-.06-.23,.06-.29,.18-.16,.32-.13,.72-.03,1.05,.19,.58,.66,1.01,1.16,1.13"/>
      <path class="cls-3" d="M180.45,62.03c-.2,0-.39-.12-.57-.26-.17-.14-.29-.34-.42-.52-.12-.15-.22-.34-.35-.49-.13,.14-.35,.15-.48,.29s-.18,.41-.06,.59c.03,.06,.09,.12,.12,.18,.03,.06,.01,.15-.03,.2-.04,.05-.13,0-.18,.06-.03,.05,0,.09,.03,.15,.22,.34,.51,.61,.87,.69,.36,.08,.76-.06,.98-.4,.09-.12,.13-.29,.07-.41"/>
      <path class="cls-3" d="M181.06,64.81c.06-.29,.26-.55,.31-.85,.03-.26-.06-.52-.13-.78-.07-.21-.17-.46-.36-.52,0,.09-.07,.2-.13,.26-.19,.18-.39,.38-.6,.53-.19,.14-.42,.29-.47,.55-.01,.15,.03,.32,.07,.47,.03,.09,.09,.2,.18,.2,.07,0,.12-.06,.19-.08,.13-.02,.22,.14,.32,.24,.19,.18,.51,.12,.64-.14"/>
      <path class="cls-3" d="M183.18,63.34c-.2-.49-.58-.91-1.03-1.11-.28-.12-.64-.15-.84,.09,.03-.05,.09,0,.1,.05,.35,.52,.58,1.19,.41,1.8v.08s.03,.05,.06,.06c.28,.21,.65,.2,.93-.02-.13-.15-.07-.47,.12-.55,.09-.05,.19-.02,.26-.06,.07-.05,.12-.2,.06-.24"/>
      <path class="cls-3" d="M186.42,67.61c.06-.14,0-.34-.12-.41-.06-.05-.1-.06-.18-.06-.23-.06-.49-.09-.71-.02-.26,.09-.48,.34-.55,.64-.07,.3,0,.64,.16,.87,.01,.02,.03,.06,.07,.06,.07,.02,.13-.06,.19-.12,.16-.15,.39-.18,.58-.09,.19,.09,.36,.21,.52,.34,.07,.06,.16,.12,.23,.12,.16,0,.29-.15,.32-.34,.03-.18,0-.38-.06-.55-.01-.08-.06-.15-.1-.2-.09-.05-.22,0-.23-.09"/>
      <path class="cls-3" d="M184.56,68.54c-.09-.27-.19-.58-.13-.87,.06-.38,.32-.65,.57-.91-.12-.26-.26-.49-.42-.72-.06-.06-.09-.09-.16-.12-.12-.05-.22,.08-.31,.18-.09,.11-.2,.2-.31,.14-.03-.02-.07-.06-.1-.08-.1-.06-.23,.06-.29,.18-.16,.32-.13,.72-.03,1.05,.19,.58,.66,1.01,1.17,1.13"/>
      <path class="cls-3" d="M184.22,68.98c-.2,0-.39-.12-.57-.26s-.29-.34-.42-.52c-.12-.15-.22-.34-.35-.49-.13,.14-.35,.15-.48,.29s-.18,.41-.06,.59c.03,.06,.09,.12,.12,.18,.03,.06,.01,.15-.03,.2-.06,.05-.13,0-.17,.06-.03,.05,0,.09,.03,.15,.22,.34,.51,.61,.87,.69,.36,.08,.76-.06,.98-.4,.09-.12,.13-.29,.07-.41"/>
      <path class="cls-3" d="M184.85,71.72c.06-.29,.26-.55,.31-.85,.03-.26-.06-.52-.13-.78-.07-.21-.18-.46-.36-.52,0,.09-.07,.2-.13,.26-.19,.18-.39,.38-.6,.53-.19,.14-.42,.29-.47,.55-.01,.15,.03,.32,.07,.47,.03,.09,.09,.2,.17,.2,.07,0,.12-.06,.19-.08,.13-.02,.22,.14,.32,.24,.19,.18,.51,.12,.64-.14"/>
      <path class="cls-3" d="M186.95,70.29c-.2-.49-.58-.91-1.03-1.11-.28-.12-.64-.15-.84,.09,.03-.05,.09,0,.1,.05,.35,.52,.58,1.19,.41,1.8v.08s.03,.05,.06,.06c.28,.21,.65,.2,.93-.02-.13-.15-.07-.47,.12-.55,.09-.05,.19-.02,.26-.06,.07-.05,.12-.2,.06-.24"/>
      <path class="cls-3" d="M196.51,76.73c.06-.14,0-.34-.12-.41-.06-.05-.1-.06-.17-.06-.23-.06-.5-.09-.71-.02-.26,.09-.48,.34-.55,.64-.07,.3,0,.64,.16,.87,.01,.02,.03,.06,.07,.06,.07,.02,.13-.06,.19-.12,.16-.15,.39-.18,.58-.09,.19,.09,.37,.21,.53,.34,.07,.06,.16,.12,.23,.12,.16,0,.29-.15,.32-.34,.03-.18,0-.38-.06-.55-.01-.08-.06-.15-.1-.2-.09-.05-.22,0-.23-.09"/>
      <path class="cls-3" d="M194.65,77.68c-.09-.27-.19-.58-.13-.87,.06-.38,.32-.65,.57-.91-.12-.26-.26-.49-.42-.72-.06-.06-.09-.09-.16-.12-.12-.05-.22,.08-.31,.18-.09,.11-.2,.2-.3,.14-.03-.02-.07-.06-.1-.08-.1-.06-.23,.06-.29,.18-.16,.32-.13,.72-.03,1.05,.19,.58,.66,1.01,1.16,1.13"/>
      <path class="cls-3" d="M194.3,78.1c-.2,0-.39-.12-.57-.26-.17-.14-.29-.34-.42-.52-.12-.15-.22-.34-.35-.49-.13,.14-.35,.15-.48,.29s-.18,.41-.06,.59c.03,.06,.09,.12,.12,.18,.03,.06,.01,.15-.03,.2-.06,.05-.13,0-.18,.06-.03,.05,0,.09,.03,.15,.22,.34,.51,.61,.87,.69,.36,.08,.76-.06,.98-.4,.09-.12,.13-.29,.07-.41"/>
      <path class="cls-3" d="M194.94,80.86c.06-.29,.26-.55,.31-.85,.03-.26-.06-.52-.13-.78-.07-.21-.18-.46-.36-.52,0,.09-.07,.2-.13,.26-.19,.18-.39,.38-.6,.53-.19,.14-.42,.29-.47,.55-.01,.15,.03,.32,.07,.47,.03,.09,.09,.2,.17,.2,.07,0,.12-.06,.19-.08,.13-.02,.22,.14,.32,.24,.19,.18,.51,.12,.64-.14"/>
      <path class="cls-3" d="M197.02,79.43c-.2-.49-.58-.91-1.03-1.11-.28-.12-.64-.15-.84,.09,.03-.05,.09,0,.1,.05,.35,.52,.58,1.19,.41,1.8v.08s.03,.05,.06,.06c.28,.21,.65,.2,.93-.02-.13-.15-.07-.47,.12-.55,.09-.05,.19-.02,.26-.06s.12-.2,.06-.24"/>
      <path class="cls-3" d="M190.05,75.59c-.19-.08-.36-.26-.47-.46-.1-.2-.19-.41-.26-.65-.07-.2-.12-.4-.19-.59-.18,.08-.38,.02-.52,.09-.17,.09-.28,.34-.2,.55,.01,.08,.06,.14,.07,.21,.01,.08-.01,.15-.09,.18-.07,0-.13-.05-.19,0-.03,.05-.03,.09,0,.15,.12,.4,.32,.78,.65,.99,.33,.21,.74,.21,1.03,0,.1-.08,.2-.21,.19-.38"/>
      <path class="cls-3" d="M201.63,81.06c-.19-.08-.36-.26-.47-.46-.1-.2-.19-.41-.26-.65-.07-.2-.12-.4-.19-.59-.17,.08-.38,.02-.52,.09-.17,.09-.28,.34-.2,.55,.01,.08,.06,.14,.07,.21,.01,.08-.01,.15-.09,.18-.07,0-.13-.05-.19,0-.03,.05-.03,.09,0,.15,.12,.4,.32,.78,.65,.99,.33,.21,.74,.21,1.03,0,.1-.08,.2-.21,.19-.38"/>
      <path class="cls-3" d="M197.07,85.79c-.19-.08-.36-.26-.47-.46-.1-.2-.19-.41-.26-.65-.07-.2-.12-.4-.19-.59-.18,.08-.38,.02-.52,.09-.17,.09-.28,.34-.2,.55,.01,.08,.06,.14,.07,.21,.01,.08-.01,.15-.09,.18-.07,0-.13-.05-.19,0-.03,.05-.03,.09,0,.15,.12,.4,.32,.78,.65,.99,.33,.21,.74,.21,1.03,0,.1-.08,.2-.21,.19-.38"/>
      <path class="cls-3" d="M203.9,85.76c.06-.14,0-.34-.12-.41-.06-.05-.1-.06-.17-.06-.23-.06-.5-.09-.71-.02-.26,.09-.48,.34-.55,.64-.07,.3,0,.64,.16,.87,.01,.02,.03,.06,.07,.06,.07,.02,.13-.06,.19-.12,.16-.15,.39-.18,.58-.09,.19,.09,.36,.21,.52,.34,.07,.06,.16,.12,.23,.12,.16,0,.29-.15,.32-.34,.03-.18,0-.38-.06-.55-.01-.08-.06-.15-.1-.2-.09-.05-.22,0-.23-.09"/>
      <path class="cls-3" d="M202.03,86.72c-.09-.27-.19-.58-.13-.87,.06-.38,.32-.65,.57-.91-.12-.26-.26-.49-.42-.72-.06-.06-.09-.09-.16-.12-.12-.05-.22,.08-.31,.18-.09,.11-.2,.2-.31,.14-.03-.02-.07-.06-.1-.08-.1-.06-.23,.06-.29,.18-.16,.32-.13,.72-.03,1.05,.19,.58,.65,1.01,1.16,1.13"/>
      <path class="cls-3" d="M201.68,87.14c-.2,0-.39-.12-.57-.26s-.29-.34-.42-.52c-.12-.15-.22-.34-.35-.49-.13,.14-.35,.15-.48,.29-.13,.14-.17,.41-.06,.59,.03,.06,.09,.12,.12,.18,.03,.06,.01,.15-.03,.2-.06,.05-.13,0-.17,.06-.03,.05,0,.09,.03,.15,.22,.34,.51,.61,.87,.69,.36,.08,.76-.06,.97-.4,.09-.12,.13-.29,.07-.41"/>
      <path class="cls-3" d="M202.32,89.91c.06-.29,.26-.55,.31-.85,.03-.26-.06-.52-.13-.78-.07-.21-.17-.46-.36-.52,0,.09-.07,.2-.13,.26-.19,.18-.39,.38-.6,.53-.19,.14-.42,.29-.47,.55-.01,.15,.03,.32,.07,.47,.03,.09,.09,.2,.18,.2,.07,0,.12-.06,.19-.08,.13-.02,.22,.14,.32,.24,.19,.18,.51,.12,.64-.14"/>
      <path class="cls-3" d="M204.41,88.46c-.2-.49-.58-.91-1.03-1.11-.28-.12-.64-.15-.85,.09,.03-.05,.09,0,.1,.05,.35,.52,.58,1.19,.41,1.8v.08s.03,.05,.06,.06c.28,.21,.66,.2,.93-.02-.13-.15-.07-.47,.12-.55,.09-.05,.19-.02,.26-.06s.12-.2,.06-.24"/>
      <path class="cls-3" d="M207.76,91.49c-.19-.08-.36-.26-.47-.46-.1-.2-.19-.41-.26-.65-.07-.2-.12-.4-.19-.59-.18,.08-.38,.02-.52,.09-.18,.09-.28,.34-.2,.55,.01,.08,.06,.14,.07,.21,.01,.08-.01,.15-.09,.18-.07,0-.13-.05-.19,0-.03,.05-.03,.09,0,.15,.12,.4,.32,.78,.65,.99,.34,.21,.74,.21,1.03,0,.1-.08,.2-.21,.19-.38"/>
      <path class="cls-3" d="M210.41,96.56c.06-.14,0-.34-.12-.41-.06-.04-.1-.06-.17-.06-.23-.06-.49-.09-.71-.01-.26,.09-.48,.33-.55,.64s0,.64,.16,.87c.01,.01,.03,.06,.07,.06,.07,.01,.13-.06,.19-.12,.16-.15,.39-.18,.58-.09,.19,.09,.36,.21,.52,.33,.07,.06,.16,.12,.23,.12,.16,0,.29-.15,.32-.33,.03-.18,0-.38-.06-.55-.01-.08-.06-.15-.1-.2-.09-.04-.22,0-.23-.09"/>
      <path class="cls-3" d="M208.54,97.52c-.09-.27-.19-.58-.13-.87,.06-.38,.32-.65,.57-.91-.12-.26-.26-.49-.42-.72-.06-.06-.09-.09-.16-.12-.12-.04-.22,.08-.31,.18-.09,.11-.2,.2-.31,.14-.03-.01-.07-.06-.1-.08-.1-.06-.23,.06-.29,.18-.16,.32-.13,.72-.03,1.05,.19,.58,.66,1,1.17,1.13"/>
      <path class="cls-3" d="M208.19,97.93c-.2,0-.39-.12-.57-.26-.17-.14-.29-.33-.42-.52-.12-.15-.22-.34-.35-.49-.13,.14-.35,.15-.48,.29-.13,.14-.18,.41-.06,.59,.03,.06,.09,.12,.12,.18,.03,.06,.01,.15-.03,.2-.06,.05-.13,0-.17,.06-.03,.05,0,.09,.03,.15,.22,.33,.51,.61,.87,.68,.36,.08,.76-.06,.98-.4,.09-.12,.13-.29,.07-.41"/>
      <path class="cls-3" d="M208.83,100.71c.06-.29,.26-.55,.31-.85,.03-.26-.06-.52-.13-.78-.07-.21-.18-.46-.36-.52,0,.09-.07,.2-.13,.26-.19,.18-.39,.38-.6,.53-.19,.14-.42,.29-.47,.55-.01,.15,.03,.32,.07,.47,.03,.09,.09,.2,.17,.2,.07,0,.12-.06,.19-.08,.13-.01,.22,.14,.32,.24,.19,.18,.51,.12,.64-.14"/>
      <path class="cls-3" d="M210.92,99.26c-.2-.49-.58-.91-1.03-1.11-.28-.12-.64-.15-.85,.09,.03-.05,.09,0,.1,.05,.35,.52,.58,1.19,.41,1.8v.08s.03,.05,.06,.06c.28,.21,.65,.2,.93-.01-.13-.15-.07-.47,.12-.55,.09-.05,.19-.02,.26-.06,.07-.05,.12-.2,.06-.24"/>
      <path class="cls-3" d="M208.69,105.31c-.19-.08-.36-.26-.47-.46-.1-.2-.19-.41-.26-.65-.07-.2-.12-.4-.19-.59-.18,.08-.38,.02-.52,.09-.18,.09-.28,.33-.2,.55,.01,.08,.06,.14,.07,.21,.01,.08-.01,.15-.09,.18-.07,0-.13-.04-.19,0-.03,.05-.03,.09,0,.15,.12,.4,.32,.78,.65,.99,.33,.21,.74,.21,1.03,0,.1-.08,.2-.21,.19-.38"/>
      <path class="cls-3" d="M201.26,94.22c-.19-.08-.36-.26-.47-.46-.1-.2-.19-.41-.26-.65-.07-.2-.12-.4-.19-.59-.18,.08-.38,.01-.52,.09-.17,.09-.28,.33-.2,.55,.01,.08,.06,.14,.07,.21,.01,.08-.01,.15-.09,.18-.07,0-.13-.05-.19,0-.03,.04-.03,.09,0,.15,.12,.4,.32,.78,.65,.99,.33,.21,.74,.21,1.03,0,.1-.08,.2-.21,.19-.38"/>
    </g>
  </g>
</svg>