<?xml version="1.0" encoding="UTF-8"?>
<svg id="Layer_1" data-name="Layer 1" xmlns="http://www.w3.org/2000/svg" viewBox="0 0 37.65 73.19">
  <defs>
    <style>
      .cls-1 {
        fill: #e7c2a8;
      }

      .cls-2 {
        fill: none;
        stroke: #231f20;
        stroke-miterlimit: 10;
        stroke-width: .25px;
      }
    </style>
  </defs>
  <path class="cls-2" d="M37.59,73.06h.05"/>
  <g>
    <path class="cls-1" d="M5.2,3.97c2.05-.26,3.94-1.18,5.87-1.92,2.06-.79,4.32-1.36,6.43-.49,.21,.09,.3-.29,.09-.38C13.34-.57,9.33,3.06,5.2,3.58c-.22,.03-.23,.42,0,.39h0Z"/>
    <path class="cls-1" d="M20.1,2.3c2.72,1.18,5.38,2.84,7.29,5.33,1.03,1.34,1.73,2.89,2.19,4.57,.53,1.91,.91,3.89,1.34,5.83,.5,2.23,1,4.46,1.5,6.69,.05,.24,.39,.14,.34-.1-.47-2.08-.93-4.16-1.4-6.25s-.86-4.07-1.39-6.07c-.44-1.64-1.08-3.18-2.04-4.53s-2.04-2.37-3.26-3.29c-1.4-1.04-2.92-1.86-4.48-2.54-.21-.09-.3,.28-.09,.38h0Z"/>
    <path class="cls-1" d="M4.36,3.93C3.02,3.23,1.64,2.64,.22,2.17c-.1-.03-.23,.06-.22,.19,.13,1.39,.67,2.69,1.54,3.7,.46,.53,1,.85,1.54,1.27,.37,.29,.36,.72,.36,1.18,0,.49-.03,.98-.11,1.45-.13,.83-.35,1.63-.17,2.47,.14,.68,.47,1.29,.74,1.91,.34,.79,.49,1.55,.37,2.42-.11,.77-.34,1.52-.4,2.31-.12,1.72,.92,3,2.12,3.92,.19,.14,.36-.19,.18-.34-1.18-.9-2.12-2.13-1.92-3.81,.09-.75,.31-1.47,.4-2.22s0-1.38-.26-2.04-.63-1.32-.83-2.03c-.24-.88,0-1.69,.13-2.56,.1-.71,.21-1.57,.06-2.27-.14-.65-.74-.86-1.18-1.2C1.33,5.56,.51,4,.35,2.35l-.22,.19c1.39,.47,2.74,1.04,4.06,1.72,.2,.11,.38-.23,.18-.34h0Z"/>
    <path class="cls-1" d="M15.52,13.49c.57,1.27,1.03,2.63,.75,4.07-.24,1.26-.91,2.36-1.62,3.35s-1.51,1.95-2.2,2.98-1.33,2.16-1.83,3.34c-.56,1.32-.96,2.72-1.13,4.17-.03,.25,.32,.25,.35,0,.34-2.77,1.54-5.31,3.06-7.52,1.35-1.96,3.29-3.8,3.73-6.33,.26-1.51-.21-2.92-.81-4.25-.1-.22-.41-.03-.3,.2h0Z"/>
    <path class="cls-1" d="M12.67,12.35c-.15,.62-.39,1.2-.72,1.72-.31,.48-.71,.85-1.04,1.3-.64,.89-.6,2.19-.53,3.27,.04,.62,.18,1.28-.02,1.87-.17,.49-.55,.84-.95,1.1s-.86,.46-1.31,.64c-.63,.26-1.29,.49-1.97,.37-.22-.04-.32,.34-.09,.38,1.11,.2,2.3-.34,3.28-.89,.88-.49,1.51-1.24,1.49-2.38-.02-1.35-.44-3.04,.42-4.19,.36-.48,.78-.87,1.09-1.39s.54-1.1,.69-1.71c.06-.24-.28-.34-.34-.1h0Z"/>
    <path class="cls-1" d="M17.67,8.21c2.47,.22,4.72,1.65,6.32,3.71,1.79,2.31,2.56,5.27,2.72,8.27,.1,1.82,0,3.64-.15,5.45-.02,.25,.33,.25,.35,0,.28-3.38,.39-6.89-.66-10.14-.83-2.57-2.42-4.81-4.54-6.23-1.23-.82-2.61-1.32-4.04-1.45-.23-.02-.23,.37,0,.39h0Z"/>
    <g>
      <path class="cls-1" d="M5.8,2.72s-.04-.02-.06-.01c0,0-.01,.01-.02,.02-.03,.03-.05,.07-.06,.11,0,.05,0,.1,.04,.13s.08,.05,.12,.04c0,0,0,0,.01,0,0,0,0-.02,0-.04,0-.04,0-.07,.03-.1s.06-.04,.08-.06c.01,0,.03-.02,.03-.03,.01-.02,0-.06-.02-.08s-.05-.02-.07-.03c-.01,0-.03,0-.03,0-.01,0-.02,.03-.03,.03"/>
      <path class="cls-1" d="M5.78,3.09s-.09-.01-.12-.04c-.04-.04-.06-.1-.07-.16-.04,0-.08,0-.12,.02-.01,0-.02,0-.03,.02-.01,.02,0,.04,0,.06s0,.05,0,.06c0,0-.01,0-.02,.01-.02,.01-.01,.04,0,.06,.03,.05,.08,.07,.13,.08,.09,.01,.18-.03,.23-.1"/>
      <path class="cls-1" d="M5.8,3.17s-.05,.06-.08,.07-.06,.02-.1,.03c-.03,0-.06,.01-.09,.02,0,.03,0,.07,0,.1s.04,.06,.07,.05c.01,0,.02,0,.03,0s.02,0,.02,.02c0,.01-.01,.02,0,.03,0,0,.01,0,.02,0,.06,0,.12-.04,.15-.09s.05-.12,.03-.19c0-.02-.03-.04-.05-.04"/>
      <path class="cls-1" d="M6.2,3.28s-.05-.08-.08-.11c-.03-.02-.07-.03-.11-.04-.03,0-.07,0-.09,.02,.01,0,.02,.02,.02,.04,0,.05,.02,.09,.02,.14,0,.04,0,.09,.03,.11,.02,.02,.04,.02,.06,.02,.01,0,.03,0,.04-.01,0,0,0-.02,0-.04,0-.02,.03-.02,.06-.03,.04-.02,.05-.07,.03-.11"/>
      <path class="cls-1" d="M6.18,2.83c-.08,0-.16,.02-.22,.08-.04,.03-.07,.09-.05,.14,0,0,0-.01,.01-.01,.09-.02,.19,0,.26,.07,0,0,0,0,0,0h.01s.08-.09,.07-.15c-.03,0-.06-.02-.06-.06,0-.02,.01-.03,.01-.05s-.01-.03-.03-.03"/>
    </g>
    <g>
      <path class="cls-1" d="M6.9,2.47s-.04-.02-.06-.01c0,0-.01,.01-.02,.02-.03,.03-.05,.07-.06,.11,0,.05,0,.1,.04,.13s.08,.05,.12,.04c0,0,0,0,.01,0,0,0,0-.02,0-.04,0-.04,0-.07,.03-.1s.06-.04,.08-.06c.01,0,.03-.02,.03-.03,.01-.02,0-.06-.02-.08s-.05-.02-.07-.03c-.01,0-.03,0-.03,0-.01,0-.02,.03-.03,.03"/>
      <path class="cls-1" d="M6.87,2.84s-.09-.01-.12-.04c-.04-.04-.06-.1-.07-.16-.04,0-.08,0-.12,.02-.01,0-.02,0-.03,.02-.01,.02,0,.04,0,.06s0,.05,0,.06c0,0-.01,0-.02,.01-.02,.01-.01,.04,0,.06,.03,.05,.08,.07,.13,.08,.09,.01,.18-.03,.23-.1"/>
      <path class="cls-1" d="M6.9,2.92s-.05,.06-.08,.07-.06,.02-.1,.03c-.03,0-.06,.01-.09,.02,0,.03,0,.07,0,.1s.04,.06,.07,.05c.01,0,.02,0,.03,0s.02,0,.02,.02c0,.01-.01,.02,0,.03,0,0,.01,0,.02,0,.06,0,.12-.04,.15-.09s.05-.12,.03-.19c0-.02-.03-.04-.05-.04"/>
      <path class="cls-1" d="M7.29,3.03s-.05-.08-.08-.11c-.03-.02-.07-.03-.11-.04-.03,0-.07,0-.09,.02,.01,0,.02,.02,.02,.04,0,.05,.02,.09,.02,.14,0,.04,0,.09,.03,.11,.02,.02,.04,.02,.06,.02,.01,0,.03,0,.04-.01,0,0,0-.02,0-.04,0-.02,.03-.02,.06-.03,.04-.02,.05-.07,.03-.11"/>
      <path class="cls-1" d="M7.27,2.59c-.08,0-.16,.02-.22,.08-.04,.03-.07,.09-.05,.14,0,0,0-.01,.01-.01,.09-.02,.19,0,.26,.07,0,0,0,0,0,0h.01s.08-.09,.07-.15c-.03,0-.06-.02-.06-.06,0-.02,.01-.03,.01-.05s-.01-.03-.03-.03"/>
    </g>
    <g>
      <path class="cls-1" d="M7.91,2.14s-.05-.02-.06,0c0,0-.01,.02-.02,.02-.02,.04-.04,.08-.03,.13,0,.05,.03,.1,.06,.12s.09,.03,.13,0c0,0,0,0,.01,0,0-.01,0-.02,0-.04-.01-.03,0-.07,.01-.11s.05-.06,.07-.08c.01,0,.02-.02,.03-.04,0-.03,0-.06-.03-.07s-.05-.01-.08-.01c-.01,0-.03,0-.03,0-.01,.01-.01,.04-.03,.04"/>
      <path class="cls-1" d="M7.96,2.51s-.09,0-.13,0c-.05-.02-.08-.08-.1-.14-.04,0-.08,.02-.12,.05,0,0-.02,.01-.02,.02,0,.02,0,.04,.01,.06s.02,.04,0,.06c0,0-.01,0-.01,.02-.01,.02,0,.04,.01,.06,.04,.04,.09,.06,.14,.05,.09,0,.17-.07,.21-.16"/>
      <path class="cls-1" d="M8,2.59s-.03,.07-.06,.09-.06,.04-.09,.05c-.03,.01-.06,.02-.08,.04,.01,.03,0,.07,.02,.1s.05,.05,.08,.03c.01,0,.02-.01,.03-.01s.02,0,.03,.01c0,.01,0,.02,0,.03,0,0,.01,0,.02,0,.06-.02,.11-.07,.13-.12s.03-.14-.01-.19c-.01-.02-.03-.03-.06-.03"/>
      <path class="cls-1" d="M8.41,2.59s-.06-.07-.1-.09c-.03-.02-.07-.01-.11,0-.03,0-.07,0-.08,.04,.01,0,.02,.02,.03,.03,.02,.04,.03,.08,.05,.13,.01,.04,.02,.09,.06,.11,.02,.01,.05,0,.07,0,.01,0,.03,0,.03-.02,0-.01,0-.02,0-.04,0-.02,.03-.03,.05-.05,.03-.02,.04-.09,0-.12"/>
      <path class="cls-1" d="M8.3,2.16c-.08,.02-.15,.07-.2,.14-.03,.04-.05,.11-.02,.15,0,0,0-.02,.01-.02,.08-.04,.19-.05,.26,0,0,0,0,0,0,0s0,0,.01,0c.04-.04,.06-.11,.04-.16-.03,.02-.07,0-.07-.04,0-.02,0-.03,0-.05s-.02-.03-.03-.02"/>
    </g>
    <g>
      <path class="cls-1" d="M8.98,1.73s-.05-.02-.06,0c0,0-.01,.02-.02,.02-.02,.04-.04,.08-.03,.13,0,.05,.03,.1,.06,.12s.09,.03,.13,0c0,0,0,0,.01,0,0-.01,0-.02,0-.04-.01-.03,0-.07,.01-.11s.05-.06,.07-.08c.01,0,.02-.02,.03-.04,0-.03,0-.06-.03-.07s-.05-.01-.08-.01c-.01,0-.03,0-.03,0-.01,.01-.01,.04-.03,.04"/>
      <path class="cls-1" d="M9.03,2.09s-.09,0-.13,0c-.05-.02-.08-.08-.1-.14-.04,0-.08,.02-.12,.05,0,0-.02,.01-.02,.02,0,.02,0,.04,.01,.06s.02,.04,0,.06c0,0-.01,0-.01,.02-.01,.02,0,.04,.01,.06,.04,.04,.09,.06,.14,.05,.09,0,.17-.07,.21-.16"/>
      <path class="cls-1" d="M9.07,2.17s-.03,.07-.06,.09-.06,.04-.09,.05c-.03,.01-.06,.02-.08,.04,.01,.03,0,.07,.02,.1s.05,.05,.08,.03c.01,0,.02-.01,.03-.01s.02,0,.03,.01c0,.01,0,.02,0,.03,0,0,.01,0,.02,0,.06-.02,.11-.07,.13-.12s.03-.14-.01-.19c-.01-.02-.03-.03-.06-.03"/>
      <path class="cls-1" d="M9.48,2.18s-.06-.07-.1-.09c-.03-.02-.07-.01-.11,0-.03,0-.07,0-.08,.04,.01,0,.02,.02,.03,.03,.02,.04,.03,.08,.05,.13,.01,.04,.02,.09,.06,.11,.02,.01,.05,0,.07,0,.01,0,.03,0,.03-.02,0-.01,0-.02,0-.04,0-.02,.03-.03,.05-.05,.03-.02,.04-.09,0-.12"/>
      <path class="cls-1" d="M9.37,1.75c-.08,.02-.15,.07-.2,.14-.03,.04-.05,.11-.02,.15,0,0,0-.02,.01-.02,.08-.04,.19-.05,.26,0,0,0,0,0,0,0s0,0,.01,0c.04-.04,.06-.11,.04-.16-.03,.02-.07,0-.07-.04,0-.02,0-.03,0-.05s-.02-.03-.03-.02"/>
    </g>
    <g>
      <path class="cls-1" d="M10,1.3s-.05-.02-.06,0c0,0-.01,.02-.02,.02-.02,.04-.04,.08-.03,.13,0,.05,.03,.1,.06,.12s.09,.03,.13,0c0,0,0,0,.01,0,0-.01,0-.02,0-.04-.01-.03,0-.07,.01-.11s.05-.06,.07-.08c.01,0,.02-.02,.03-.04,0-.03,0-.06-.03-.07s-.05-.01-.08-.01c-.01,0-.03,0-.03,0-.01,.01-.01,.04-.03,.04"/>
      <path class="cls-1" d="M10.05,1.67s-.09,0-.13,0c-.05-.02-.08-.08-.1-.14-.04,0-.08,.02-.12,.05,0,0-.02,.01-.02,.02,0,.02,0,.04,.01,.06s.02,.04,0,.06c0,0-.01,0-.01,.02-.01,.02,0,.04,.01,.06,.04,.04,.09,.06,.14,.05,.09,0,.17-.07,.21-.16"/>
      <path class="cls-1" d="M10.09,1.74s-.03,.07-.06,.09-.06,.04-.09,.05c-.03,.01-.06,.02-.08,.04,.01,.03,0,.07,.02,.1s.05,.05,.08,.03c.01,0,.02-.01,.03-.01s.02,0,.03,.01c0,.01,0,.02,0,.03,0,0,.01,0,.02,0,.06-.02,.11-.07,.13-.12s.03-.14-.01-.19c-.01-.02-.03-.03-.06-.03"/>
      <path class="cls-1" d="M10.5,1.75s-.06-.07-.1-.09c-.03-.02-.07-.01-.11,0-.03,0-.07,0-.08,.04,.01,0,.02,.02,.03,.03,.02,.04,.03,.08,.05,.13,.01,.04,.02,.09,.06,.11,.02,.01,.05,0,.07,0,.01,0,.03,0,.03-.02,0-.01,0-.02,0-.04,0-.02,.03-.03,.05-.05,.03-.02,.04-.09,0-.12"/>
      <path class="cls-1" d="M10.39,1.32c-.08,.02-.15,.07-.2,.14-.03,.04-.05,.11-.02,.15,0,0,0-.02,.01-.02,.08-.04,.19-.05,.26,0,0,0,0,0,0,0s0,0,.01,0c.04-.04,.06-.11,.04-.16-.03,.02-.07,0-.07-.04,0-.02,0-.03,0-.05s-.02-.03-.03-.02"/>
    </g>
    <g>
      <path class="cls-1" d="M11.09,.87s-.05-.02-.06,0c0,0-.01,.02-.02,.02-.02,.04-.04,.08-.03,.13,0,.05,.03,.1,.06,.12s.09,.03,.13,0c0,0,0,0,.01,0,0-.01,0-.02,0-.04-.01-.03,0-.07,.01-.11s.05-.06,.07-.08c.01,0,.02-.02,.03-.04,0-.03,0-.06-.03-.07s-.05-.01-.08-.01c-.01,0-.03,0-.03,0-.01,.01-.01,.04-.03,.04"/>
      <path class="cls-1" d="M11.14,1.24s-.09,0-.13,0c-.05-.02-.08-.08-.1-.14-.04,0-.08,.02-.12,.05,0,0-.02,.01-.02,.02,0,.02,0,.04,.01,.06s.02,.04,0,.06c0,0-.01,0-.01,.02-.01,.02,0,.04,.01,.06,.04,.04,.09,.06,.14,.05,.09,0,.17-.07,.21-.16"/>
      <path class="cls-1" d="M11.19,1.31s-.03,.07-.06,.09-.06,.04-.09,.05c-.03,.01-.06,.02-.08,.04,.01,.03,0,.07,.02,.1s.05,.05,.08,.03c.01,0,.02-.01,.03-.01s.02,0,.03,.01c0,.01,0,.02,0,.03,0,0,.01,0,.02,0,.06-.02,.11-.07,.13-.12s.03-.14-.01-.19c-.01-.02-.03-.03-.06-.03"/>
      <path class="cls-1" d="M11.59,1.32s-.06-.07-.1-.09c-.03-.02-.07-.01-.11,0-.03,0-.07,0-.08,.04,.01,0,.02,.02,.03,.03,.02,.04,.03,.08,.05,.13,.01,.04,.02,.09,.06,.11,.02,.01,.05,0,.07,0,.01,0,.03,0,.03-.02,0-.01,0-.02,0-.04,0-.02,.03-.03,.05-.05,.03-.02,.04-.09,0-.12"/>
      <path class="cls-1" d="M11.48,.89c-.08,.02-.15,.07-.2,.14-.03,.04-.05,.11-.02,.15,0,0,0-.02,.01-.02,.08-.04,.19-.05,.26,0,0,0,0,0,0,0s0,0,.01,0c.04-.04,.06-.11,.04-.16-.03,.02-.07,0-.07-.04,0-.02,0-.03,0-.05s-.02-.03-.03-.02"/>
    </g>
    <g>
      <path class="cls-1" d="M12.22,.51s-.05-.02-.06,0c0,0-.01,.02-.02,.02-.02,.04-.04,.08-.03,.13,0,.05,.03,.1,.06,.12s.09,.03,.13,0c0,0,0,0,.01,0,0-.01,0-.02,0-.04-.01-.03,0-.07,.01-.11s.05-.06,.07-.08c.01,0,.02-.02,.03-.04,0-.03,0-.06-.03-.07s-.05-.01-.08-.01c-.01,0-.03,0-.03,0-.01,.01-.01,.04-.03,.04"/>
      <path class="cls-1" d="M12.27,.88s-.09,0-.13,0c-.05-.02-.08-.08-.1-.14-.04,0-.08,.02-.12,.05,0,0-.02,.01-.02,.02,0,.02,0,.04,.01,.06s.02,.04,0,.06c0,0-.01,0-.01,.02-.01,.02,0,.04,.01,.06,.04,.04,.09,.06,.14,.05,.09,0,.17-.07,.21-.16"/>
      <path class="cls-1" d="M12.31,.95s-.03,.07-.06,.09-.06,.04-.09,.05c-.03,.01-.06,.02-.08,.04,.01,.03,0,.07,.02,.1s.05,.05,.08,.03c.01,0,.02-.01,.03-.01s.02,0,.03,.01c0,.01,0,.02,0,.03,0,0,.01,0,.02,0,.06-.02,.11-.07,.13-.12s.03-.14-.01-.19c-.01-.02-.03-.03-.06-.03"/>
      <path class="cls-1" d="M12.72,.96s-.06-.07-.1-.09c-.03-.02-.07-.01-.11,0-.03,0-.07,0-.08,.04,.01,0,.02,.02,.03,.03,.02,.04,.03,.08,.05,.13,.01,.04,.02,.09,.06,.11,.02,.01,.05,0,.07,0,.01,0,.03,0,.03-.02,0-.01,0-.02,0-.04,0-.02,.03-.03,.05-.05,.03-.02,.04-.09,0-.12"/>
      <path class="cls-1" d="M12.61,.53c-.08,.02-.15,.07-.2,.14-.03,.04-.05,.11-.02,.15,0,0,0-.02,.01-.02,.08-.04,.19-.05,.26,0,0,0,0,0,0,0s0,0,.01,0c.04-.04,.06-.11,.04-.16-.03,.02-.07,0-.07-.04,0-.02,0-.03,0-.05s-.02-.03-.03-.02"/>
    </g>
    <path class="cls-1" d="M2.69,7.77s-.04-.02-.06-.01c0,0-.01,.01-.02,.02-.03,.03-.05,.07-.06,.11,0,.05,0,.1,.04,.13s.08,.05,.12,.04c0,0,0,0,.01,0,0,0,0-.02,0-.04,0-.04,0-.07,.03-.1s.06-.04,.08-.06c.01,0,.03-.02,.03-.03,.01-.02,0-.06-.02-.08s-.05-.02-.07-.03c-.01,0-.03,0-.03,0-.01,0-.02,.03-.03,.03"/>
    <path class="cls-1" d="M2.66,8.14s-.09-.01-.12-.04c-.04-.04-.06-.1-.07-.16-.04,0-.08,0-.12,.02-.01,0-.02,0-.03,.02-.01,.02,0,.04,0,.06s0,.05,0,.06c0,0-.01,0-.02,.01-.02,.01-.01,.04,0,.06,.03,.05,.08,.07,.13,.08,.09,.01,.18-.03,.23-.1"/>
    <path class="cls-1" d="M2.68,8.22s-.05,.06-.08,.07-.06,.02-.1,.03c-.03,0-.06,.01-.09,.02,0,.03,0,.07,0,.1s.04,.06,.07,.05c.01,0,.02,0,.03,0s.02,0,.02,.02c0,.01-.01,.02,0,.03,0,0,.01,0,.02,0,.06,0,.12-.04,.15-.09s.05-.12,.03-.19c0-.02-.03-.04-.05-.04"/>
    <path class="cls-1" d="M3.08,8.32s-.05-.08-.08-.11c-.03-.02-.07-.03-.11-.04-.03,0-.07,0-.09,.02,.01,0,.02,.02,.02,.04,0,.05,.02,.09,.02,.14,0,.04,0,.09,.03,.11,.02,.02,.04,.02,.06,.02,.01,0,.03,0,.04-.01,0,0,0-.02,0-.04,0-.02,.03-.02,.06-.03,.04-.02,.05-.07,.03-.11"/>
    <path class="cls-1" d="M3.06,7.88c-.08,0-.16,.02-.22,.08-.04,.03-.07,.09-.05,.14,0,0,0-.01,.01-.01,.09-.02,.19,0,.26,.07,0,0,0,0,0,0h.01s.08-.09,.07-.15c-.03,0-.06-.02-.06-.06,0-.02,.01-.03,.01-.05s-.01-.03-.03-.03"/>
    <g>
      <path class="cls-1" d="M2.85,9.56s-.04-.02-.06-.01c0,0-.01,.01-.02,.02-.02,.03-.05,.06-.05,.1,0,.04,0,.09,.03,.12s.07,.04,.11,.03c0,0,0,0,.01,0,0,0,0-.02,0-.03,0-.03,0-.07,.03-.09s.05-.04,.08-.05c.01,0,.02-.02,.03-.02,.01-.02,0-.05-.02-.07s-.04-.02-.06-.03c-.01,0-.02,0-.03,0-.01,0-.02,.03-.03,.03"/>
      <path class="cls-1" d="M2.83,9.89s-.08-.01-.11-.04c-.04-.03-.05-.09-.06-.14-.04,0-.07,0-.11,.02,0,0-.02,0-.03,.01-.01,.02,0,.04,0,.06s0,.04,0,.05c0,0-.01,0-.02,0-.01,.01-.01,.04,0,.05,.02,.04,.07,.07,.12,.07,.08,0,.16-.02,.21-.09"/>
      <path class="cls-1" d="M2.85,9.97s-.04,.05-.07,.06-.06,.02-.09,.02c-.03,0-.05,0-.08,.02,0,.03,0,.06,0,.09,0,.03,.04,.05,.06,.05,0,0,.02,0,.03,0s.02,0,.02,.02c0,0,0,.02,0,.03,0,0,.01,0,.02,0,.05,0,.1-.03,.14-.08s.05-.11,.03-.16c0-.02-.02-.04-.04-.04"/>
      <path class="cls-1" d="M3.2,10.06s-.04-.07-.07-.1c-.03-.02-.06-.03-.1-.03-.03,0-.06,0-.08,.02,.01,0,.02,.02,.02,.04,0,.04,.01,.08,.02,.12,0,.04,0,.08,.03,.1,.02,.02,.04,.02,.06,.02,.01,0,.03,0,.03,0,0,0,0-.02,0-.03,0-.02,.03-.02,.05-.03,.03-.02,.05-.07,.03-.1"/>
      <path class="cls-1" d="M3.19,9.66c-.07,0-.14,.02-.2,.07-.03,.03-.06,.08-.05,.13,0,0,0-.01,.01-.01,.08-.02,.17,0,.23,.06,0,0,0,0,0,0h0s.07-.08,.06-.13c-.03,0-.06-.02-.05-.06,0-.02,0-.03,.01-.04s-.01-.03-.03-.02"/>
    </g>
    <g>
      <path class="cls-1" d="M2.4,12.08s-.04-.02-.06-.01c0,0-.01,.01-.02,.02-.02,.03-.05,.06-.05,.1,0,.04,0,.09,.03,.12s.07,.04,.11,.03c0,0,0,0,.01,0,0,0,0-.02,0-.03,0-.03,0-.07,.03-.09s.05-.04,.08-.05c.01,0,.02-.02,.03-.02,.01-.02,0-.05-.02-.07s-.04-.02-.06-.03c-.01,0-.02,0-.03,0-.01,0-.02,.03-.03,.03"/>
      <path class="cls-1" d="M2.37,12.41s-.08-.01-.11-.04c-.04-.03-.05-.09-.06-.14-.04,0-.07,0-.11,.02,0,0-.02,0-.03,.01-.01,.02,0,.04,0,.06s0,.04,0,.05c0,0-.01,0-.02,0-.01,.01-.01,.04,0,.05,.02,.04,.07,.07,.12,.07,.08,0,.16-.02,.21-.09"/>
      <path class="cls-1" d="M2.39,12.49s-.04,.05-.07,.06-.06,.02-.09,.02c-.03,0-.05,0-.08,.02,0,.03,0,.06,0,.09,0,.03,.04,.05,.06,.05,0,0,.02,0,.03,0s.02,0,.02,.02c0,0,0,.02,0,.03,0,0,.01,0,.02,0,.05,0,.1-.03,.14-.08s.05-.11,.03-.16c0-.02-.02-.04-.04-.04"/>
      <path class="cls-1" d="M2.75,12.58s-.04-.07-.07-.1c-.03-.02-.06-.03-.1-.03-.03,0-.06,0-.08,.02,.01,0,.02,.02,.02,.04,0,.04,.01,.08,.02,.12,0,.04,0,.08,.03,.1,.02,.02,.04,.02,.06,.02,.01,0,.03,0,.03,0,0,0,0-.02,0-.03,0-.02,.03-.02,.05-.03,.03-.02,.05-.07,.03-.1"/>
      <path class="cls-1" d="M2.73,12.18c-.07,0-.14,.02-.2,.07-.03,.03-.06,.08-.05,.13,0,0,0-.01,.01-.01,.08-.02,.17,0,.23,.06,0,0,0,0,0,0h0s.07-.08,.06-.13c-.03,0-.06-.02-.05-.06,0-.02,0-.03,.01-.04s-.01-.03-.03-.02"/>
    </g>
    <path class="cls-1" d="M2.17,9.31s.04-.06,.07-.08c.03-.02,.06-.03,.09-.04,.03,0,.06-.02,.09-.03,0-.03,0-.07-.01-.1-.01-.03-.05-.05-.08-.04-.01,0-.02,0-.03,0s-.02,0-.03-.02c0-.01,0-.02,0-.03,0,0-.01,0-.02,0-.06,.02-.11,.05-.14,.11s-.04,.13,0,.19c.01,.02,.03,.04,.05,.04"/>
    <path class="cls-1" d="M2,9.93s-.02,.07-.04,.1-.05,.05-.08,.07c-.03,.02-.05,.04-.07,.06,.02,.02,.02,.06,.04,.09,.02,.03,.06,.03,.08,.01,0,0,.02-.02,.03-.02s.02,0,.03,0,0,.02,0,.03c0,0,.01,0,.02,0,.05-.04,.09-.09,.11-.16s0-.14-.05-.18c-.02-.02-.04-.02-.06-.02"/>
    <path class="cls-1" d="M2.59,10.77s-.02,.07-.04,.1-.05,.05-.08,.07c-.03,.02-.05,.04-.07,.06,.02,.02,.02,.06,.04,.09,.02,.03,.06,.03,.08,.01,0,0,.02-.02,.03-.02s.02,0,.03,0,0,.02,0,.03c0,0,.01,0,.02,0,.05-.04,.09-.09,.11-.16s0-.14-.05-.18c-.02-.02-.04-.02-.06-.02"/>
    <g>
      <path class="cls-1" d="M2.63,14.39s-.04-.02-.06-.01c0,0-.01,.01-.02,.02-.02,.03-.05,.06-.05,.1,0,.04,0,.09,.03,.12s.07,.04,.11,.03c0,0,0,0,.01,0,0,0,0-.02,0-.03,0-.03,0-.07,.03-.09s.05-.04,.08-.05c.01,0,.02-.02,.03-.02,.01-.02,0-.05-.02-.07s-.04-.02-.06-.03c-.01,0-.02,0-.03,0-.01,0-.02,.03-.03,.03"/>
      <path class="cls-1" d="M2.61,14.72s-.08-.01-.11-.04c-.04-.03-.05-.09-.06-.14-.04,0-.07,0-.11,.02,0,0-.02,0-.03,.01-.01,.02,0,.04,0,.06s0,.04,0,.05c0,0-.01,0-.02,0-.01,.01-.01,.04,0,.05,.02,.04,.07,.07,.12,.07,.08,0,.16-.02,.21-.09"/>
      <path class="cls-1" d="M2.63,14.79s-.04,.05-.07,.06-.06,.02-.09,.02c-.03,0-.05,0-.08,.02,0,.03,0,.06,0,.09,0,.03,.04,.05,.06,.05,0,0,.02,0,.03,0s.02,0,.02,.02c0,0,0,.02,0,.03,0,0,.01,0,.02,0,.05,0,.1-.03,.14-.08s.05-.11,.03-.16c0-.02-.02-.04-.04-.04"/>
      <path class="cls-1" d="M2.98,14.89s-.04-.07-.07-.1c-.03-.02-.06-.03-.1-.03-.03,0-.06,0-.08,.02,.01,0,.02,.02,.02,.04,0,.04,.01,.08,.02,.12,0,.04,0,.08,.03,.1,.02,.02,.04,.02,.06,.02,.01,0,.03,0,.03,0,0,0,0-.02,0-.03,0-.02,.03-.02,.05-.03,.03-.02,.05-.07,.03-.1"/>
      <path class="cls-1" d="M2.97,14.49c-.07,0-.14,.02-.2,.07-.03,.03-.06,.08-.05,.13,0,0,0-.01,.01-.01,.08-.02,.17,0,.23,.06,0,0,0,0,0,0h0s.07-.08,.06-.13c-.03,0-.06-.02-.05-.06,0-.02,0-.03,.01-.04s-.01-.03-.03-.02"/>
    </g>
    <path class="cls-1" d="M1.81,11.43s.07,.02,.09,.04,.05,.05,.07,.08c.02,.02,.04,.05,.06,.08,.02-.02,.06-.02,.08-.05,.02-.02,.03-.07,0-.09,0,0-.01-.02-.02-.03s0-.02,0-.03c0,0,.02,0,.03,0,0,0,0-.02,0-.02-.04-.05-.09-.1-.15-.11s-.12,0-.16,.07c-.01,.02-.02,.05-.01,.07"/>
    <path class="cls-1" d="M2.65,13.19s-.02,.07-.04,.1-.05,.05-.08,.07c-.03,.02-.05,.04-.07,.06,.02,.02,.02,.06,.04,.09,.02,.03,.06,.03,.08,.01,0,0,.02-.02,.03-.02s.02,0,.03,0,0,.02,0,.03c0,0,.01,0,.02,0,.05-.04,.09-.09,.11-.16s0-.14-.05-.18c-.02-.02-.04-.02-.06-.02"/>
    <g>
      <path class="cls-1" d="M13.39,.23s-.05-.02-.06,0c0,0-.01,.02-.02,.02-.02,.04-.05,.08-.05,.12,0,.05,.01,.1,.05,.13s.08,.04,.13,.02c0,0,0,0,.01,0,0,0,0-.02,0-.04-.01-.03,0-.07,.02-.1s.05-.05,.08-.07c.01,0,.02-.02,.03-.03,.01-.03,0-.06-.03-.07s-.05-.02-.08-.02c-.01,0-.03,0-.03,0-.01,.01-.01,.04-.03,.03"/>
      <path class="cls-1" d="M13.39,.6s-.09,0-.12-.03c-.05-.03-.06-.09-.08-.15-.04,0-.08,.01-.12,.03,0,0-.02,0-.03,.02-.01,.02,0,.04,0,.06s.01,.05,0,.06c0,0-.01,0-.02,.01-.01,.02,0,.04,0,.06,.03,.05,.08,.07,.14,.07,.09,0,.17-.05,.22-.13"/>
      <path class="cls-1" d="M13.42,.68s-.04,.06-.07,.08-.06,.03-.1,.04c-.03,0-.06,.02-.09,.03,0,.03,0,.07,0,.1,.01,.03,.05,.05,.08,.04,.01,0,.02,0,.03,0s.02,0,.03,.02c0,.01,0,.02,0,.03,0,0,.01,0,.02,0,.06-.02,.11-.05,.15-.11s.04-.13,.01-.19c-.01-.02-.03-.04-.05-.04"/>
      <path class="cls-1" d="M13.83,.74s-.06-.08-.09-.1c-.03-.02-.07-.02-.11-.02-.03,0-.07,0-.09,.03,.01,0,.02,.02,.03,.04,.01,.04,.03,.09,.03,.13,0,.04,.01,.09,.05,.11,.02,.01,.04,.02,.07,.02,.01,0,.03,0,.04-.02,0-.01,0-.02,0-.04,0-.02,.03-.03,.05-.04,.04-.02,.05-.08,.02-.11"/>
      <path class="cls-1" d="M13.77,.3c-.08,0-.15,.04-.21,.11-.03,.04-.06,.1-.04,.15,0,0,0-.01,.01-.02,.09-.03,.19-.02,.26,.04,0,0,0,0,0,0s0,0,.01,0c.05-.03,.07-.1,.05-.16-.03,.01-.07-.02-.06-.05,0-.02,0-.03,0-.05s-.02-.03-.03-.02"/>
    </g>
    <g>
      <path class="cls-1" d="M14.64,.05s-.04-.03-.06-.02c0,0-.02,.01-.02,.02-.03,.03-.06,.07-.07,.11-.01,.05,0,.1,.03,.14,.03,.04,.08,.06,.12,.05,0,0,0,0,.01,0,0,0,0-.02,0-.04,0-.04,.01-.07,.04-.1s.06-.04,.09-.05c.01,0,.03-.01,.03-.03,.01-.02,0-.06-.01-.08s-.05-.03-.07-.04c-.01,0-.02,0-.03,0-.01,0-.02,.03-.03,.03"/>
      <path class="cls-1" d="M14.59,.42s-.09-.02-.12-.05c-.04-.04-.05-.1-.06-.16-.04,0-.08,0-.12,0-.01,0-.02,0-.03,.01-.01,.02-.01,.04,0,.06s0,.05-.01,.06c0,0-.01,0-.02,0-.02,.01-.01,.04,0,.06,.02,.05,.07,.08,.12,.09,.08,.02,.18-.01,.24-.08"/>
      <path class="cls-1" d="M14.61,.5s-.05,.05-.08,.07-.06,.02-.1,.02c-.03,0-.06,0-.09,0,0,.03-.01,.07,0,.1s.04,.06,.07,.06c.01,0,.02,0,.03,0s.02,0,.02,.02-.01,.02,0,.03c0,0,.01,0,.02,0,.06,0,.12-.03,.16-.07s.06-.12,.04-.18c0-.02-.02-.04-.05-.05"/>
      <path class="cls-1" d="M15,.64s-.04-.09-.08-.12c-.03-.03-.07-.04-.1-.04-.03,0-.07-.01-.09,.01,.01,0,.02,.02,.02,.04,0,.05,.01,.09,.01,.14,0,.04,0,.09,.03,.12,.02,.02,.04,.02,.06,.03,.01,0,.03,0,.04,0,0,0,0-.02,0-.04,0-.02,.04-.02,.06-.03,.04-.01,.06-.07,.04-.11"/>
      <path class="cls-1" d="M15.01,.2c-.08,0-.16,.01-.23,.07-.04,.03-.08,.08-.06,.14,0,0,0-.01,.01-.01,.09,0,.19,.01,.25,.09,0,0,0,0,0,0h.01s.08-.08,.08-.14c-.03,0-.06-.03-.06-.07,0-.02,.01-.03,.01-.05s-.01-.03-.03-.03"/>
    </g>
    <g>
      <path class="cls-1" d="M15.81,.1s-.04-.03-.06-.02c0,0-.02,0-.03,.02-.03,.03-.06,.06-.08,.1-.02,.05,0,.1,.02,.14,.03,.04,.07,.06,.12,.06,0,0,0,0,.01,0,.01,0,0-.02,0-.04,0-.04,.02-.07,.05-.09s.06-.03,.09-.04c.01,0,.03-.01,.04-.02,.02-.02,.01-.06,0-.08s-.04-.03-.07-.04c-.01,0-.02,0-.03,0-.01,0-.02,.03-.04,.02"/>
      <path class="cls-1" d="M15.73,.46s-.08-.03-.11-.06c-.04-.04-.04-.11-.05-.17-.04,0-.08,0-.12,0-.01,0-.02,0-.03,0-.01,.01-.01,.04-.01,.06s0,.05-.02,.06c0,0-.01,0-.02,0-.02,0-.02,.04-.01,.06,.02,.05,.06,.09,.12,.11,.08,.03,.18,0,.24-.06"/>
      <path class="cls-1" d="M15.74,.55s-.05,.05-.08,.06-.07,0-.1,.01h-.09s-.02,.07-.01,.1c0,.03,.03,.07,.06,.07h.03s.02,.01,.02,.02-.01,.02-.01,.03c0,0,.01,0,.02,0,.06,0,.12-.02,.17-.06s.07-.11,.05-.18c0-.02-.02-.05-.04-.05"/>
      <path class="cls-1" d="M16.11,.72s-.04-.09-.06-.12c-.03-.03-.06-.04-.1-.06-.03,0-.07-.02-.09,0,.01,0,.01,.03,.02,.04v.14s0,.09,.02,.12c.01,.02,.04,.03,.06,.03,.01,0,.03,0,.04,0s0-.02,.01-.03c.01-.02,.04-.02,.06-.02,.04,0,.06-.07,.05-.11"/>
      <path class="cls-1" d="M16.16,.28c-.08-.02-.16,0-.23,.04-.04,.03-.08,.08-.07,.13,0,0,0-.01,.02-.01,.09,0,.19,.03,.24,.11,0,0,0,0,0,0h.01c.05-.02,.09-.07,.09-.13-.03,0-.06-.04-.05-.07,0-.02,.01-.03,.02-.04s0-.04-.02-.03"/>
    </g>
    <g>
      <path class="cls-1" d="M16.96,.24s-.03-.04-.05-.03c0,0-.02,0-.03,.01-.03,.02-.07,.05-.09,.09-.02,.04-.03,.1,0,.14s.06,.07,.1,.08h.01s.01-.02,.01-.03c0-.04,.03-.07,.06-.08s.06-.02,.1-.03c.01,0,.03,0,.04-.02,.02-.02,.02-.06,0-.08s-.04-.04-.06-.06c-.01,0-.02-.01-.03,0-.01,0-.03,.02-.04,.02"/>
      <path class="cls-1" d="M16.82,.58s-.08-.04-.1-.08c-.03-.05-.03-.11-.02-.17-.04-.02-.08-.02-.12-.03-.01,0-.02,0-.03,0-.02,.01-.02,.04-.02,.06s0,.05-.03,.06c0,0-.01,0-.02,0-.02,0-.02,.03-.02,.06,.01,.06,.05,.1,.1,.12,.08,.04,.17,.04,.25-.02"/>
      <path class="cls-1" d="M16.82,.67s-.06,.04-.09,.04-.07,0-.1,0c-.03,0-.06,0-.09-.02,0,.03-.03,.06-.03,.09,0,.03,.02,.07,.05,.07,.01,0,.02,0,.03,0s.02,.02,.02,.03-.02,.02-.01,.03c0,0,.01,.01,.02,.01,.06,.01,.12,0,.17-.03s.09-.1,.08-.16c0-.02-.01-.05-.03-.06"/>
      <path class="cls-1" d="M17.17,.91s-.02-.1-.05-.14c-.02-.03-.06-.05-.09-.07-.03-.02-.06-.03-.09-.02,.01,0,.01,.03,0,.05,0,.05-.01,.09-.02,.14,0,.04-.02,.09,0,.12,.01,.02,.03,.03,.05,.04,.01,0,.03,.01,.04,0,0,0,0-.02,.02-.03,.01-.02,.04-.01,.06-.01,.04,0,.07-.05,.06-.1"/>
      <path class="cls-1" d="M17.28,.49c-.07-.03-.16-.03-.23,0-.05,.02-.09,.06-.09,.11,0,0,.01,0,.02,0,.09,.02,.19,.07,.23,.16,0,0,0,0,0,0h.01c.05,0,.1-.06,.11-.12-.03,0-.05-.05-.04-.08,0-.02,.02-.02,.03-.04s0-.04-.02-.03"/>
    </g>
    <g>
      <path class="cls-1" d="M20.85,1.41s-.03-.04-.05-.04c0,0-.02,0-.03,0-.04,.02-.08,.03-.1,.07-.03,.04-.04,.09-.03,.14s.05,.08,.09,.1h.01s.01-.02,.02-.03c0-.04,.04-.06,.07-.07s.07,0,.1,0c.01,0,.03,0,.04,0,.02-.02,.03-.05,.02-.08s-.03-.05-.05-.07c0,0-.02-.02-.03-.02-.01,0-.03,.02-.04,0"/>
      <path class="cls-1" d="M20.67,1.72s-.07-.06-.09-.1c-.02-.06,0-.12,0-.17-.04-.02-.08-.04-.12-.05-.01,0-.02,0-.03,0-.02,0-.03,.03-.03,.05s-.01,.05-.03,.05h-.02s-.03,.03-.03,.05c0,.06,.04,.11,.08,.14,.07,.06,.17,.07,.25,.03"/>
      <path class="cls-1" d="M20.66,1.81s-.06,.02-.1,.02-.07-.01-.1-.02c-.03,0-.06-.02-.08-.03,0,.03-.03,.06-.04,.09,0,.03,.01,.07,.04,.08,.01,0,.02,0,.03,.01s.02,.02,.01,.03-.02,.02-.02,.02,0,.01,.02,.02c.06,.02,.12,.03,.17,0s.1-.08,.1-.15c0-.02,0-.05-.02-.06"/>
      <path class="cls-1" d="M20.96,2.11s0-.1-.03-.14c-.02-.04-.05-.06-.08-.09-.03-.02-.06-.04-.09-.03,.01,.01,0,.03,0,.05-.01,.04-.03,.09-.04,.13-.01,.04-.03,.08-.02,.12,0,.02,.03,.04,.05,.05,.01,0,.03,.02,.04,0,0,0,.01-.02,.02-.03,.02-.02,.04,0,.06,0,.04,0,.08-.04,.08-.08"/>
      <path class="cls-1" d="M21.13,1.71c-.07-.04-.15-.06-.23-.04-.05,.01-.1,.04-.11,.1,0,0,.01,0,.02,0,.09,.03,.17,.1,.2,.2,0,0,0,0,0,0h.01c.05,0,.1-.04,.12-.1-.03,0-.05-.06-.03-.08,0-.01,.02-.02,.03-.03s0-.04-.01-.04"/>
    </g>
    <g>
      <path class="cls-1" d="M21.85,1.92s-.03-.04-.05-.04c0,0-.02,0-.03,0-.04,.02-.08,.03-.1,.07-.03,.04-.04,.09-.03,.14s.05,.08,.09,.1h.01s.01-.02,.02-.03c0-.04,.04-.06,.07-.07s.07,0,.1,0c.01,0,.03,0,.04,0,.02-.02,.03-.05,.02-.08s-.03-.05-.05-.07c0,0-.02-.02-.03-.02-.01,0-.03,.02-.04,0"/>
      <path class="cls-1" d="M21.67,2.23s-.07-.06-.09-.1c-.02-.06,0-.12,0-.17-.04-.02-.08-.04-.12-.05-.01,0-.02,0-.03,0-.02,0-.03,.03-.03,.05s-.01,.05-.03,.05h-.02s-.03,.03-.03,.05c0,.06,.04,.11,.08,.14,.07,.06,.17,.07,.25,.03"/>
      <path class="cls-1" d="M21.66,2.32s-.06,.02-.1,.02-.07-.01-.1-.02c-.03,0-.06-.02-.08-.03,0,.03-.03,.06-.04,.09,0,.03,.01,.07,.04,.08,.01,0,.02,0,.03,.01s.02,.02,.01,.03c0,0-.02,.02-.02,.02s0,.01,.02,.02c.06,.02,.12,.03,.17,0s.1-.08,.1-.15c0-.02,0-.05-.02-.06"/>
      <path class="cls-1" d="M21.96,2.62s0-.1-.03-.14c-.02-.04-.05-.06-.08-.09-.03-.02-.06-.04-.09-.03,.01,.01,0,.03,0,.05-.01,.04-.03,.09-.04,.13-.01,.04-.03,.08-.02,.12,0,.02,.03,.04,.05,.05,.01,0,.03,.02,.04,0,0,0,.01-.02,.02-.03,.02-.02,.04,0,.06,0,.04,0,.08-.04,.08-.08"/>
      <path class="cls-1" d="M22.13,2.22c-.07-.04-.15-.06-.23-.04-.05,.01-.1,.04-.11,.1,0,0,.01,0,.02,0,.09,.03,.17,.1,.2,.2,0,0,0,0,0,0h.01c.05,0,.1-.04,.12-.1-.03,0-.05-.06-.03-.08,0-.01,.02-.02,.03-.03s0-.04-.01-.04"/>
    </g>
    <g>
      <path class="cls-1" d="M22.86,2.47s-.02-.05-.05-.05c0,0-.02,0-.03,0-.04,.01-.08,.03-.1,.06-.03,.04-.04,.09-.03,.14s.05,.09,.08,.11c0,0,0,0,.01,0,.01,0,.01-.02,.02-.03,.01-.03,.04-.06,.08-.07s.07,0,.1,0c.01,0,.03,0,.04,0,.02-.01,.03-.05,.02-.08s-.03-.05-.05-.07c0,0-.02-.02-.03-.02-.01,0-.03,.02-.04,0"/>
      <path class="cls-1" d="M22.67,2.77s-.07-.06-.08-.11c-.02-.06,0-.12,.01-.17-.03-.02-.07-.04-.11-.06-.01,0-.02,0-.03,0-.02,0-.03,.03-.03,.05,0,.02-.01,.05-.03,.05h-.02s-.03,.03-.03,.05c0,.06,.03,.11,.07,.14,.07,.06,.16,.08,.24,.05"/>
      <path class="cls-1" d="M22.65,2.86s-.06,.02-.1,.02-.06-.02-.1-.03c-.03-.01-.06-.02-.08-.04-.01,.03-.04,.05-.05,.08,0,.03,0,.07,.04,.09,0,0,.02,0,.03,.01s.01,.02,.01,.03c0,0-.02,.01-.02,.02,0,0,0,.02,.01,.02,.05,.02,.12,.03,.17,.01s.1-.08,.11-.14c0-.02,0-.05-.02-.07"/>
      <path class="cls-1" d="M22.94,3.17s0-.1-.02-.14c-.01-.04-.05-.07-.07-.09-.03-.02-.06-.04-.09-.04,0,.01,0,.03,0,.05-.01,.04-.03,.09-.05,.13-.02,.04-.04,.08-.03,.12,0,.02,.03,.04,.05,.06,.01,0,.03,.02,.04,.01s.01-.02,.02-.03c.02-.02,.04,0,.06,0,.04,0,.08-.03,.08-.08"/>
      <path class="cls-1" d="M23.13,2.78c-.06-.05-.15-.07-.23-.06-.05,0-.1,.04-.11,.09,0,0,.01,0,.02,0,.08,.04,.17,.11,.19,.21,0,0,0,0,0,0,0,0,0,0,.01,0,.05,0,.11-.03,.13-.09-.03,0-.04-.06-.02-.09,0-.01,.02-.02,.03-.03s0-.04-.01-.04"/>
    </g>
    <g>
      <path class="cls-1" d="M23.85,3.05s-.02-.05-.05-.05c0,0-.02,0-.03,0-.04,.01-.08,.03-.11,.06-.03,.03-.05,.09-.04,.14s.04,.09,.08,.11c0,0,0,0,.01,0,.01,0,.01-.02,.02-.03,.01-.03,.05-.06,.08-.07s.07,0,.1,0c.01,0,.03,0,.04,0,.03-.01,.03-.05,.03-.08s-.03-.05-.05-.07c0,0-.02-.02-.03-.02-.01,0-.03,.02-.04,0"/>
      <path class="cls-1" d="M23.65,3.35s-.07-.06-.08-.11c-.02-.06,0-.12,.02-.17-.03-.02-.07-.05-.11-.06-.01,0-.02,0-.03,0-.02,0-.03,.03-.03,.05s-.02,.04-.04,.05h-.02s-.03,.03-.03,.05c0,.06,.03,.11,.07,.15,.06,.06,.16,.08,.24,.05"/>
      <path class="cls-1" d="M23.62,3.44s-.06,.02-.1,.01-.06-.02-.1-.03c-.03-.01-.06-.02-.08-.04-.01,.03-.04,.05-.05,.08-.01,.03,0,.07,.03,.09,0,0,.02,0,.03,.01s.01,.02,0,.03c0,0-.02,.01-.02,.02,0,0,0,.02,.01,.02,.05,.03,.12,.04,.17,.02s.11-.07,.12-.14c0-.02,0-.05-.02-.07"/>
      <path class="cls-1" d="M23.91,3.76s0-.1-.01-.14c-.01-.04-.04-.07-.07-.09-.03-.02-.05-.05-.09-.04,0,.01,0,.03,0,.05-.02,.04-.03,.08-.05,.12-.02,.04-.04,.08-.03,.12,0,.02,.03,.04,.04,.06,.01,0,.03,.02,.04,.01,.01,0,.01-.02,.02-.03,.02-.02,.04,0,.06,0,.04,0,.08-.03,.08-.07"/>
      <path class="cls-1" d="M24.11,3.38c-.06-.05-.15-.07-.23-.06-.05,0-.1,.03-.11,.09,0,0,.01,0,.02,0,.08,.04,.17,.11,.18,.21,0,0,0,0,0,0,0,0,0,0,.01,0,.05,0,.11-.03,.13-.08-.03-.01-.04-.06-.02-.09,0-.01,.03-.02,.03-.03s0-.04,0-.04"/>
    </g>
    <g>
      <path class="cls-1" d="M24.79,3.72s-.02-.05-.04-.05h-.03s-.08,.02-.11,.05c-.03,.03-.05,.08-.05,.13s.03,.09,.07,.12c0,0,0,0,.01,0,.01,0,.02-.02,.02-.03,.01-.03,.05-.05,.08-.06s.07,0,.1,.01c.01,0,.03,0,.04,0,.03,0,.04-.04,.03-.07s-.02-.05-.04-.08c0,0-.02-.02-.03-.02-.01,0-.03,.02-.04,0"/>
      <path class="cls-1" d="M24.55,3.98s-.06-.07-.07-.12c-.01-.06,.01-.12,.04-.17-.03-.03-.07-.06-.1-.07,0,0-.02,0-.03,0-.02,0-.03,.03-.04,.05s-.02,.04-.04,.04c0,0-.01,0-.02,0-.02,0-.03,.02-.04,.05,0,.06,.01,.11,.05,.16,.06,.07,.15,.1,.24,.08"/>
      <path class="cls-1" d="M24.52,4.07s-.07,.01-.1,0-.06-.03-.09-.05c-.03-.02-.05-.03-.08-.05-.01,.03-.05,.05-.06,.07-.01,.03,0,.07,.03,.09,0,0,.02,0,.03,.02s.01,.02,0,.03c0,0-.02,0-.02,.02,0,0,0,.02,.01,.02,.05,.03,.11,.05,.17,.04s.11-.06,.13-.12c0-.02,0-.05-.01-.07"/>
      <path class="cls-1" d="M24.76,4.43s.01-.1,0-.15c0-.04-.03-.07-.06-.1-.02-.02-.05-.05-.08-.05,0,.02,0,.03,0,.05-.02,.04-.04,.08-.06,.12-.02,.03-.05,.07-.04,.11,0,.02,.02,.04,.04,.06,0,.01,.02,.02,.04,.02,.01,0,.02-.02,.03-.02,.02-.01,.04,0,.06,.01,.04,.01,.08-.02,.09-.06"/>
      <path class="cls-1" d="M25.01,4.07c-.06-.06-.14-.09-.22-.09-.05,0-.11,.02-.12,.07,0,0,.01,0,.02,0,.08,.05,.15,.13,.16,.24h0s0,.02,.01,.02c.05,.01,.11-.02,.14-.07-.03-.02-.03-.07-.01-.09,.01,0,.03-.02,.04-.03s0-.04,0-.04"/>
    </g>
    <g>
      <path class="cls-1" d="M25.67,4.38s-.02-.05-.04-.05h-.03s-.08,.02-.11,.05c-.03,.03-.05,.08-.05,.13s.03,.09,.07,.12c0,0,0,0,.01,0,.01,0,.02-.02,.02-.03,.01-.03,.05-.05,.08-.06s.07,0,.1,.01c.01,0,.03,0,.04,0,.03,0,.04-.04,.03-.07s-.02-.05-.04-.08c0,0-.02-.02-.03-.02-.01,0-.03,.02-.04,0"/>
      <path class="cls-1" d="M25.43,4.64s-.06-.07-.07-.12c-.01-.06,.01-.12,.04-.17-.03-.03-.07-.06-.1-.07,0,0-.02,0-.03,0-.02,0-.03,.03-.04,.05s-.02,.04-.04,.04c0,0-.01,0-.02,0-.02,0-.03,.02-.04,.05,0,.06,.01,.11,.05,.16,.06,.07,.15,.1,.24,.08"/>
      <path class="cls-1" d="M25.4,4.73s-.07,.01-.1,0-.06-.03-.09-.05c-.03-.02-.05-.03-.08-.05-.01,.03-.05,.05-.06,.07-.01,.03,0,.07,.03,.09,0,0,.02,0,.03,.02s.01,.02,0,.03c0,0-.02,0-.02,.02,0,0,0,.02,.01,.02,.05,.03,.11,.05,.17,.04s.11-.06,.13-.12c0-.02,0-.05-.01-.07"/>
      <path class="cls-1" d="M25.64,5.09s.01-.1,0-.15c0-.04-.03-.07-.06-.1-.02-.02-.05-.05-.08-.05,0,.02,0,.03,0,.05-.02,.04-.04,.08-.06,.12-.02,.03-.05,.07-.04,.11,0,.02,.02,.04,.04,.06,0,.01,.02,.02,.04,.02,.01,0,.02-.02,.03-.02,.02-.01,.04,0,.06,.01,.04,.01,.08-.02,.09-.06"/>
      <path class="cls-1" d="M25.89,4.73c-.06-.06-.14-.09-.22-.09-.05,0-.11,.02-.12,.07,0,0,.01,0,.02,0,.08,.05,.15,.13,.16,.24h0s0,.02,.01,.02c.05,.01,.11-.02,.14-.07-.03-.02-.03-.07-.01-.09,.01,0,.03-.02,.04-.03s0-.04,0-.04"/>
    </g>
    <g>
      <path class="cls-1" d="M26.57,5.11s-.01-.05-.04-.06h-.03s-.08,.01-.12,.04c-.04,.03-.06,.08-.06,.12s.03,.1,.06,.12c0,0,0,0,.01,0,.01,0,.02-.02,.03-.03,.02-.03,.05-.05,.09-.05s.07,.01,.1,.02c.01,0,.03,0,.04,0,.03,0,.04-.04,.04-.07s-.02-.06-.03-.08c0,0-.01-.02-.03-.02-.01,0-.03,.01-.04,0"/>
      <path class="cls-1" d="M26.32,5.35s-.06-.07-.06-.12c0-.06,.02-.11,.05-.17-.03-.03-.06-.06-.1-.08,0,0-.02,0-.03,0-.02,0-.03,.02-.04,.04s-.02,.04-.04,.04c0,0-.01,0-.02,0-.02,0-.03,.02-.04,.04-.01,.06,0,.11,.04,.16,.05,.07,.15,.11,.23,.1"/>
      <path class="cls-1" d="M26.28,5.44s-.07,0-.1,0-.06-.03-.09-.05c-.03-.02-.05-.04-.08-.06-.02,.03-.05,.04-.06,.07-.02,.03,0,.07,.02,.09,0,0,.02,.01,.03,.02s.01,.02,0,.03-.02,0-.03,.02c0,0,0,.02,.01,.02,.05,.04,.11,.06,.17,.06s.12-.05,.14-.11c0-.02,0-.05,0-.07"/>
      <path class="cls-1" d="M26.5,5.81s.02-.1,0-.14c0-.04-.03-.07-.05-.11-.02-.03-.05-.06-.08-.06,0,.02,0,.03,0,.05-.02,.04-.05,.08-.07,.11-.03,.03-.05,.07-.05,.11,0,.02,.02,.05,.03,.07,0,.01,.02,.02,.03,.02,.01,0,.02-.02,.03-.02,.02-.01,.04,0,.06,.02,.04,.02,.08-.01,.09-.06"/>
      <path class="cls-1" d="M26.76,5.48c-.05-.06-.13-.1-.21-.11-.05,0-.11,.01-.13,.06,0,0,.01,0,.02,0,.08,.06,.14,.15,.14,.25h0s0,.02,0,.02c.05,.02,.11,0,.14-.06-.03-.02-.03-.07,0-.09,.01,0,.03-.01,.04-.02s.01-.04,0-.04"/>
    </g>
    <g>
      <path class="cls-1" d="M27.39,5.93s-.01-.05-.04-.06h-.03s-.08,0-.12,.03c-.04,.03-.06,.07-.06,.12s.03,.1,.06,.12c0,0,0,0,.01,0,.01,0,.02-.02,.03-.03,.02-.03,.05-.05,.09-.05s.07,.01,.1,.02c.01,0,.03,0,.04,0,.03,0,.04-.04,.04-.07s-.02-.06-.03-.08c0,0-.01-.02-.03-.02-.01,0-.03,0-.04,0"/>
      <path class="cls-1" d="M27.13,6.17s-.05-.08-.06-.12c0-.06,.02-.11,.05-.16-.03-.03-.06-.06-.1-.08,0,0-.02-.01-.03,0-.02,0-.03,.02-.04,.04s-.03,.04-.05,.04c0,0-.01,0-.02,0-.02,0-.03,.02-.04,.04-.01,.06,0,.11,.04,.16,.05,.07,.14,.12,.23,.11"/>
      <path class="cls-1" d="M27.1,6.25s-.07,0-.1,0-.06-.03-.09-.06c-.03-.02-.05-.04-.07-.06-.02,.03-.05,.04-.06,.07-.02,.03,0,.07,.02,.09,0,0,.02,.01,.03,.02s.01,.02,0,.03-.02,0-.03,.02c0,0,0,.02,.01,.02,.05,.04,.11,.07,.17,.06s.12-.05,.14-.11c0-.02,0-.05,0-.07"/>
      <path class="cls-1" d="M27.31,6.63s.02-.1,.01-.14c0-.04-.03-.07-.05-.11-.02-.03-.05-.06-.08-.06,0,.02,0,.03-.01,.05-.02,.04-.05,.08-.07,.11-.03,.03-.05,.07-.05,.11,0,.02,.02,.05,.03,.07,0,.01,.02,.02,.03,.02,.01,0,.02-.02,.03-.02,.02-.01,.04,0,.06,.02,.04,.02,.09-.01,.09-.06"/>
      <path class="cls-1" d="M27.58,6.31c-.05-.07-.13-.11-.21-.11-.05,0-.11,0-.13,.06,0,0,.01,0,.02,0,.08,.06,.14,.15,.14,.25h0s0,.02,0,.02c.05,.02,.11,0,.14-.05-.03-.02-.03-.07,0-.09,.01,0,.03-.01,.04-.02s.01-.03,0-.04"/>
    </g>
    <g>
      <path class="cls-1" d="M28.12,6.76s0-.05-.03-.06c0,0-.02,0-.03,0-.04,0-.08,0-.12,.02-.04,.02-.06,.07-.07,.12s.02,.1,.05,.13c0,0,0,0,.01,0,.01,0,.02-.01,.03-.02,.02-.03,.06-.04,.09-.04s.06,.02,.1,.03c.01,0,.03,.01,.04,0,.03,0,.04-.04,.04-.07s-.01-.06-.03-.08c0-.01-.01-.02-.02-.03-.01,0-.03,0-.04,0"/>
      <path class="cls-1" d="M27.85,6.98s-.05-.08-.05-.13c0-.06,.03-.11,.06-.16-.03-.04-.06-.07-.09-.09,0,0-.02-.01-.03-.01-.02,0-.03,.02-.05,.04s-.03,.04-.05,.03c0,0-.01,0-.02,0-.02,0-.04,.02-.04,.04-.02,.05,0,.11,.03,.16,.05,.08,.13,.13,.22,.13"/>
      <path class="cls-1" d="M27.81,7.05s-.07,0-.1-.02-.06-.04-.08-.06c-.02-.02-.05-.04-.07-.07-.02,.02-.05,.04-.07,.06-.02,.03-.01,.07,0,.09,0,0,.02,.01,.03,.02s0,.02,0,.03-.02,0-.03,.02c0,0,0,.02,0,.02,.05,.04,.1,.07,.16,.07s.12-.04,.15-.1c0-.02,.01-.05,0-.07"/>
      <path class="cls-1" d="M27.99,7.45s.03-.09,.02-.14c0-.04-.02-.08-.05-.11-.02-.03-.04-.06-.07-.07,0,.02,0,.03-.01,.05-.03,.04-.05,.07-.08,.1-.03,.03-.06,.06-.06,.1,0,.02,.01,.05,.03,.07,0,.01,.02,.03,.03,.02,.01,0,.02-.02,.03-.02,.02,0,.04,.01,.06,.02,.04,.02,.09,0,.1-.05"/>
      <path class="cls-1" d="M28.28,7.15c-.05-.07-.12-.12-.2-.13-.05,0-.11,0-.13,.05,0,0,.01,0,.02,0,.07,.07,.13,.16,.12,.26h0s0,.02,0,.02c.05,.02,.11,0,.15-.04-.03-.02-.03-.07,0-.09,.01,0,.03,0,.04-.02s.01-.03,0-.04"/>
    </g>
    <g>
      <path class="cls-1" d="M28.84,7.63s0-.05-.03-.06c0,0-.02,0-.03,0-.04,0-.08,0-.12,.02-.04,.02-.07,.07-.08,.11s.01,.1,.05,.13c0,0,0,0,.01,0,.01,0,.02-.01,.03-.02,.02-.03,.06-.04,.09-.03s.06,.02,.1,.04c.01,0,.03,.01,.04,.01,.03,0,.05-.03,.05-.06s0-.06-.02-.08c0-.01-.01-.02-.02-.03-.01,0-.04,0-.04,0"/>
      <path class="cls-1" d="M28.56,7.82s-.04-.08-.04-.13c0-.06,.04-.11,.07-.16-.02-.04-.05-.07-.08-.1,0,0-.02-.02-.03-.02-.02,0-.03,.02-.05,.03s-.03,.03-.05,.03c0,0-.01,0-.02,0-.02,0-.04,.02-.05,.03-.02,.05,0,.11,.02,.16,.04,.08,.13,.14,.21,.14"/>
      <path class="cls-1" d="M28.51,7.9s-.07,0-.1-.02-.05-.04-.08-.07c-.02-.02-.05-.05-.06-.07-.02,.02-.05,.03-.07,.06-.02,.03-.02,.07,0,.09,0,0,.02,.02,.02,.02s0,.02,0,.03-.02,0-.03,.02c0,0,0,.02,0,.02,.04,.05,.1,.08,.16,.09s.12-.03,.15-.09c.01-.02,.02-.05,0-.07"/>
      <path class="cls-1" d="M28.67,8.31s.03-.09,.03-.14c0-.04-.02-.08-.04-.11-.02-.03-.04-.07-.07-.07,0,.02,0,.03-.02,.04-.03,.03-.06,.07-.09,.1-.03,.03-.06,.06-.06,.1,0,.02,.01,.05,.02,.07,0,.01,.02,.03,.03,.03,.01,0,.02-.01,.03-.02,.02,0,.04,.02,.06,.03,.03,.02,.09,0,.1-.04"/>
      <path class="cls-1" d="M28.98,8.03c-.05-.07-.11-.12-.19-.15-.05-.01-.11,0-.14,.04,0,0,.01,0,.02,0,.07,.07,.12,.17,.1,.27h0s0,.02,0,.02c.05,.02,.11,.01,.15-.03-.03-.02-.02-.07,0-.09,.01,0,.03,0,.04-.02s.02-.03,0-.04"/>
    </g>
    <g>
      <path class="cls-1" d="M29.48,8.56s0-.05-.02-.07c0,0-.02,0-.03,0-.04,0-.08-.02-.12,0-.04,.02-.08,.05-.09,.1s0,.1,.03,.14c0,0,0,0,.01,0,.01,0,.02,0,.03-.02,.03-.02,.06-.03,.1-.02s.06,.03,.09,.05c.01,0,.03,.02,.04,.02,.03,0,.05-.02,.05-.05s0-.06,0-.09c0-.01,0-.02-.02-.03-.01,0-.04,0-.04-.02"/>
      <path class="cls-1" d="M29.17,8.71s-.03-.09-.02-.14c0-.06,.05-.1,.09-.14-.02-.04-.04-.08-.07-.11,0,0-.01-.02-.03-.02-.02,0-.04,.01-.05,.03s-.03,.03-.05,.02c0,0-.01,0-.02-.01-.02,0-.04,0-.05,.03-.03,.05-.02,.11,0,.16,.03,.09,.11,.16,.19,.18"/>
      <path class="cls-1" d="M29.11,8.78s-.06-.02-.09-.04-.05-.05-.07-.08c-.02-.02-.04-.05-.06-.08-.02,.02-.06,.02-.08,.05s-.03,.07,0,.09c0,0,.01,.02,.02,.03s0,.02,0,.03-.02,0-.03,0c0,0,0,.02,0,.02,.04,.05,.08,.1,.14,.11s.12,0,.16-.06c.01-.02,.02-.05,.01-.07"/>
      <path class="cls-1" d="M29.22,9.21s.04-.09,.05-.13c0-.04,0-.08-.02-.12-.01-.03-.03-.07-.06-.08,0,.02-.01,.03-.02,.04-.03,.03-.06,.06-.1,.08-.03,.02-.07,.05-.08,.09,0,.02,0,.05,.01,.07,0,.02,.01,.03,.03,.03,.01,0,.02,0,.03-.01,.02,0,.04,.02,.05,.04,.03,.03,.08,.02,.1-.02"/>
      <path class="cls-1" d="M29.56,8.99c-.03-.08-.1-.14-.17-.17-.05-.02-.1-.02-.14,.02,0,0,.01,0,.02,0,.06,.08,.1,.19,.07,.28h0s0,.02,0,.02c.05,.03,.11,.03,.15,0-.02-.02-.01-.07,.02-.09,.01,0,.03,0,.04,0s.02-.03,0-.04"/>
    </g>
    <g>
      <path class="cls-1" d="M30.01,9.52s0-.05-.02-.07c0,0-.02,0-.03,0-.04,0-.08-.02-.12,0-.04,.02-.08,.05-.09,.1s0,.1,.03,.14c0,0,0,0,.01,0,.01,0,.02,0,.03-.02,.03-.02,.06-.03,.1-.02s.06,.03,.09,.05c.01,0,.03,.02,.04,.02,.03,0,.05-.02,.05-.05s0-.06,0-.09c0-.01,0-.02-.02-.03-.01,0-.04,0-.04-.02"/>
      <path class="cls-1" d="M29.71,9.67s-.03-.09-.02-.14c0-.06,.05-.1,.09-.14-.02-.04-.04-.08-.07-.11,0,0-.01-.02-.03-.02-.02,0-.04,.01-.05,.03s-.03,.03-.05,.02c0,0-.01,0-.02-.01-.02,0-.04,0-.05,.03-.03,.05-.02,.11,0,.16,.03,.09,.11,.16,.19,.18"/>
      <path class="cls-1" d="M29.65,9.74s-.06-.02-.09-.04-.05-.05-.07-.08c-.02-.02-.04-.05-.06-.08-.02,.02-.06,.02-.08,.05s-.03,.07,0,.09c0,0,.01,.02,.02,.03s0,.02,0,.03-.02,0-.03,0c0,0,0,.02,0,.02,.04,.05,.08,.1,.14,.11s.12,0,.16-.06c.01-.02,.02-.05,.01-.07"/>
      <path class="cls-1" d="M29.75,10.17s.04-.09,.05-.13c0-.04,0-.08-.02-.12-.01-.03-.03-.07-.06-.08,0,.02-.01,.03-.02,.04-.03,.03-.06,.06-.1,.08-.03,.02-.07,.05-.08,.09,0,.02,0,.05,.01,.07,0,.02,.01,.03,.03,.03,.01,0,.02,0,.03-.01,.02,0,.04,.02,.05,.04,.03,.03,.08,.02,.1-.02"/>
      <path class="cls-1" d="M30.1,9.94c-.03-.08-.1-.14-.17-.17-.05-.02-.1-.02-.14,.02,0,0,.01,0,.02,0,.06,.08,.1,.19,.07,.28h0s0,.02,0,.02c.05,.03,.11,.03,.15,0-.02-.02-.01-.07,.02-.09,.01,0,.03,0,.04,0s.02-.03,0-.04"/>
    </g>
    <g>
      <path class="cls-1" d="M30.63,10.61s0-.05-.02-.07c0,0-.02,0-.03,0-.04,0-.08-.02-.12,0-.04,.02-.08,.05-.09,.1s0,.1,.03,.14c0,0,0,0,.01,0,.01,0,.02,0,.03-.02,.03-.02,.06-.03,.1-.02s.06,.03,.09,.05c.01,0,.03,.02,.04,.02,.03,0,.05-.02,.05-.05s0-.06,0-.09c0-.01,0-.02-.02-.03-.01,0-.04,0-.04-.02"/>
      <path class="cls-1" d="M30.32,10.76s-.03-.09-.02-.14c0-.06,.05-.1,.09-.14-.02-.04-.04-.08-.07-.11,0,0-.01-.02-.03-.02-.02,0-.04,.01-.05,.03s-.03,.03-.05,.02c0,0-.01,0-.02-.01-.02,0-.04,0-.05,.03-.03,.05-.02,.11,0,.16,.03,.09,.11,.16,.19,.18"/>
      <path class="cls-1" d="M30.27,10.83s-.06-.02-.09-.04-.05-.05-.07-.08c-.02-.02-.04-.05-.06-.08-.02,.02-.06,.02-.08,.05s-.03,.07,0,.09c0,0,.01,.02,.02,.03s0,.02,0,.03c0,0-.02,0-.03,0,0,0,0,.02,0,.02,.04,.05,.08,.1,.14,.11s.12,0,.16-.06c.01-.02,.02-.05,.01-.07"/>
      <path class="cls-1" d="M30.37,11.26s.04-.09,.05-.13c0-.04,0-.08-.02-.12-.01-.03-.03-.07-.06-.08,0,.02-.01,.03-.02,.04-.03,.03-.06,.06-.1,.08-.03,.02-.07,.05-.08,.09,0,.02,0,.05,.01,.07,0,.02,.01,.03,.03,.03,.01,0,.02,0,.03-.01,.02,0,.04,.02,.05,.04,.03,.03,.08,.02,.1-.02"/>
      <path class="cls-1" d="M30.72,11.03c-.03-.08-.1-.14-.17-.17-.05-.02-.1-.02-.14,.02,0,0,.01,0,.02,0,.06,.08,.1,.19,.07,.28h0s0,.02,0,.02c.05,.03,.11,.03,.15,0-.02-.02-.01-.07,.02-.09,.01,0,.03,0,.04,0s.02-.03,0-.04"/>
    </g>
    <g>
      <path class="cls-1" d="M32.29,12.05s0-.05-.02-.07c0,0-.02,0-.03,0-.04,0-.08-.02-.12,0-.04,.02-.08,.05-.09,.1s0,.1,.03,.14c0,0,0,0,.01,0,.01,0,.02,0,.03-.02,.03-.02,.06-.03,.1-.02s.06,.03,.09,.05c.01,0,.03,.02,.04,.02,.03,0,.05-.02,.05-.05s0-.06,0-.09c0-.01,0-.02-.02-.03-.01,0-.04,0-.04-.02"/>
      <path class="cls-1" d="M31.98,12.2s-.03-.09-.02-.14c0-.06,.05-.1,.09-.14-.02-.04-.04-.08-.07-.11,0,0-.01-.02-.03-.02-.02,0-.04,.01-.05,.03s-.03,.03-.05,.02c0,0-.01,0-.02-.01-.02,0-.04,0-.05,.03-.03,.05-.02,.11,0,.16,.03,.09,.11,.16,.19,.18"/>
      <path class="cls-1" d="M31.93,12.26s-.06-.02-.09-.04-.05-.05-.07-.08c-.02-.02-.04-.05-.06-.08-.02,.02-.06,.02-.08,.05s-.03,.07,0,.09c0,0,.01,.02,.02,.03s0,.02,0,.03c0,0-.02,0-.03,0,0,0,0,.02,0,.02,.04,.05,.08,.1,.14,.11s.12,0,.16-.06c.01-.02,.02-.05,.01-.07"/>
      <path class="cls-1" d="M32.03,12.7s.04-.09,.05-.13c0-.04,0-.08-.02-.12-.01-.03-.03-.07-.06-.08,0,.02-.01,.03-.02,.04-.03,.03-.06,.06-.1,.08-.03,.02-.07,.05-.08,.09,0,.02,0,.05,.01,.07,0,.02,.01,.03,.03,.03,.01,0,.02,0,.03-.01,.02,0,.04,.02,.05,.04,.03,.03,.08,.02,.1-.02"/>
      <path class="cls-1" d="M32.37,12.47c-.03-.08-.1-.14-.17-.17-.05-.02-.1-.02-.14,.02,0,0,.01,0,.02,0,.06,.08,.1,.19,.07,.28h0s0,.02,0,.02c.05,.03,.11,.03,.15,0-.02-.02-.01-.07,.02-.09,.01,0,.03,0,.04,0s.02-.03,0-.04"/>
    </g>
    <path class="cls-1" d="M31.22,11.87s-.06-.04-.08-.07-.03-.07-.04-.1c-.01-.03-.02-.06-.03-.09-.03,.01-.06,0-.09,.02-.03,.02-.05,.05-.03,.09,0,.01,0,.02,.01,.03s0,.02-.01,.03c-.01,0-.02,0-.03,0,0,0,0,.02,0,.02,.02,.06,.05,.12,.11,.16s.12,.03,.17,0c.02-.01,.03-.03,.03-.06"/>
    <path class="cls-1" d="M33.13,12.73s-.06-.04-.08-.07-.03-.07-.04-.1c-.01-.03-.02-.06-.03-.09-.03,.01-.06,0-.09,.02-.03,.02-.05,.05-.03,.09,0,.01,0,.02,.01,.03s0,.02-.01,.03c-.01,0-.02,0-.03,0,0,0,0,.02,0,.02,.02,.06,.05,.12,.11,.16s.12,.03,.17,0c.02-.01,.03-.03,.03-.06"/>
    <path class="cls-1" d="M32.38,13.47s-.06-.04-.08-.07-.03-.07-.04-.1c-.01-.03-.02-.06-.03-.09-.03,.01-.06,0-.09,.02-.03,.02-.05,.05-.03,.09,0,.01,0,.02,.01,.03s0,.02-.01,.03c-.01,0-.02,0-.03,0,0,0,0,.02,0,.02,.02,.06,.05,.12,.11,.16s.12,.03,.17,0c.02-.01,.03-.03,.03-.06"/>
    <g>
      <path class="cls-1" d="M33.5,13.47s0-.05-.02-.07c0,0-.02,0-.03,0-.04,0-.08-.02-.12,0-.04,.02-.08,.05-.09,.1s0,.1,.03,.14c0,0,0,0,.01,0,.01,0,.02,0,.03-.02,.03-.02,.06-.03,.1-.02s.06,.03,.09,.05c.01,0,.03,.02,.04,.02,.03,0,.05-.02,.05-.05s0-.06,0-.09c0-.01,0-.02-.02-.03-.01,0-.04,0-.04-.02"/>
      <path class="cls-1" d="M33.19,13.62s-.03-.09-.02-.14c0-.06,.05-.1,.09-.14-.02-.04-.04-.08-.07-.11,0,0-.01-.02-.03-.02-.02,0-.04,.01-.05,.03s-.03,.03-.05,.02c0,0-.01,0-.02-.01-.02,0-.04,0-.05,.03-.03,.05-.02,.11,0,.16,.03,.09,.11,.16,.19,.18"/>
      <path class="cls-1" d="M33.14,13.68s-.06-.02-.09-.04-.05-.05-.07-.08c-.02-.02-.04-.05-.06-.08-.02,.02-.06,.02-.08,.05s-.03,.07,0,.09c0,0,.01,.02,.02,.03s0,.02,0,.03c0,0-.02,0-.03,0,0,0,0,.02,0,.02,.04,.05,.08,.1,.14,.11s.12,0,.16-.06c.01-.02,.02-.05,.01-.07"/>
      <path class="cls-1" d="M33.24,14.12s.04-.09,.05-.13c0-.04,0-.08-.02-.12-.01-.03-.03-.07-.06-.08,0,.02-.01,.03-.02,.04-.03,.03-.06,.06-.1,.08-.03,.02-.07,.05-.08,.09,0,.02,0,.05,.01,.07,0,.02,.01,.03,.03,.03,.01,0,.02,0,.03-.01,.02,0,.04,.02,.05,.04,.03,.03,.08,.02,.1-.02"/>
      <path class="cls-1" d="M33.59,13.89c-.03-.08-.1-.14-.17-.17-.05-.02-.1-.02-.14,.02,0,0,.01,0,.02,0,.06,.08,.1,.19,.07,.28h0s0,.02,0,.02c.05,.03,.11,.03,.15,0-.02-.02-.01-.07,.02-.09,.01,0,.03,0,.04,0s.02-.03,0-.04"/>
    </g>
    <path class="cls-1" d="M34.13,14.37s-.06-.04-.08-.07-.03-.07-.04-.1c-.01-.03-.02-.06-.03-.09-.03,.01-.06,0-.09,.02-.03,.02-.05,.05-.03,.09,0,.01,0,.02,.01,.03s0,.02-.01,.03c-.01,0-.02,0-.03,0,0,0,0,.02,0,.02,.02,.06,.05,.12,.11,.16s.12,.03,.17,0c.02-.01,.03-.03,.03-.06"/>
    <g>
      <path class="cls-1" d="M34.57,15.16s0-.05-.02-.07c0,0-.02,0-.03,0-.04,0-.08-.02-.12,0-.04,.02-.08,.05-.09,.1s0,.1,.03,.14c0,0,0,0,.01,0,.01,0,.02,0,.03-.02,.03-.02,.06-.03,.1-.02s.06,.03,.09,.05c.01,0,.03,.02,.04,.02,.03,0,.05-.02,.05-.05s0-.06,0-.09c0-.01,0-.02-.02-.03-.01,0-.04,0-.04-.02"/>
      <path class="cls-1" d="M34.26,15.31s-.03-.09-.02-.14c0-.06,.05-.1,.09-.14-.02-.04-.04-.08-.07-.11,0,0-.01-.02-.03-.02-.02,0-.04,.01-.05,.03s-.03,.03-.05,.02c0,0-.01,0-.02-.01-.02,0-.04,0-.05,.03-.03,.05-.02,.11,0,.16,.03,.09,.11,.16,.19,.18"/>
      <path class="cls-1" d="M34.21,15.38s-.06-.02-.09-.04-.05-.05-.07-.08c-.02-.02-.04-.05-.06-.08-.02,.02-.06,.02-.08,.05s-.03,.07,0,.09c0,0,.01,.02,.02,.03s0,.02,0,.03c0,0-.02,0-.03,0,0,0,0,.02,0,.02,.04,.05,.08,.1,.14,.11s.12,0,.16-.06c.01-.02,.02-.05,.01-.07"/>
      <path class="cls-1" d="M34.31,15.81s.04-.09,.05-.13c0-.04,0-.08-.02-.12-.01-.03-.03-.07-.06-.08,0,.02-.01,.03-.02,.04-.03,.03-.06,.06-.1,.08-.03,.02-.07,.05-.08,.09,0,.02,0,.05,.01,.07,0,.02,.01,.03,.03,.03,.01,0,.02,0,.03-.01,.02,0,.04,.02,.05,.04,.03,.03,.08,.02,.1-.02"/>
      <path class="cls-1" d="M34.65,15.59c-.03-.08-.1-.14-.17-.17-.05-.02-.1-.02-.14,.02,0,0,.01,0,.02,0,.06,.08,.1,.19,.07,.28h0s0,.02,0,.02c.05,.03,.11,.03,.15,0-.02-.02-.01-.07,.02-.09,.01,0,.03,0,.04,0s.02-.03,0-.04"/>
    </g>
    <path class="cls-1" d="M34.29,16.54s-.06-.04-.08-.07-.03-.07-.04-.1c-.01-.03-.02-.06-.03-.09-.03,.01-.06,0-.09,.02-.03,.02-.05,.05-.03,.09,0,.01,0,.02,.01,.03s0,.02-.01,.03c-.01,0-.02,0-.03,0,0,0,0,.02,0,.02,.02,.06,.05,.12,.11,.16s.12,.03,.17,0c.02-.01,.03-.03,.03-.06"/>
    <path class="cls-1" d="M33.07,14.79s-.06-.04-.08-.07-.03-.07-.04-.1c-.01-.03-.02-.06-.03-.09-.03,.01-.06,0-.09,.02-.03,.02-.05,.05-.03,.09,0,.01,0,.02,.01,.03s0,.02-.01,.03c-.01,0-.02,0-.03,0,0,0,0,.02,0,.02,.02,.06,.05,.12,.11,.16s.12,.03,.17,0c.02-.01,.03-.03,.03-.06"/>
  </g>
</svg>