<?xml version="1.0" encoding="utf-8"?>
<!-- Generator: Adobe Illustrator 27.0.0, SVG Export Plug-In . SVG Version: 6.00 Build 0)  -->
<svg version="1.1" id="Layer_1" xmlns="http://www.w3.org/2000/svg" xmlns:xlink="http://www.w3.org/1999/xlink" x="0px" y="0px"
	 viewBox="0 0 100 150" style="enable-background:new 0 0 100 150;" xml:space="preserve">
<style type="text/css">
	.st0{fill:#E7C2A8;}
</style>
<g>
	<g>
		<g>
			<path class="st0" d="M49,56.61c-0.4-0.64-1.31-0.91-2-0.58c-0.29,0.14-0.53,0.36-0.76,0.58c-0.97,0.92-1.91,1.95-2.3,3.23
				c-0.43,1.4-0.11,3.02,0.83,4.15c0.94,1.13,2.47,1.74,3.93,1.58c0.15-0.02,0.31-0.05,0.43-0.14c0.31-0.25,0.18-0.73,0.12-1.13
				c-0.17-1.11,0.48-2.21,1.35-2.91c0.87-0.7,1.94-1.1,2.97-1.54c0.43-0.18,0.88-0.39,1.17-0.77c0.53-0.7,0.26-1.77-0.35-2.4
				c-0.62-0.63-1.49-0.93-2.33-1.19c-0.37-0.12-0.79-0.23-1.12-0.03c-0.43,0.25-0.67,0.97-1.15,0.83"/>
			<g>
				<path class="st0" d="M49.43,56.35c-0.64-0.9-1.84-1.26-2.83-0.69c-0.51,0.29-0.94,0.77-1.34,1.2c-0.47,0.49-0.91,1.02-1.26,1.61
					c-1.33,2.24-0.81,5.19,1.35,6.7c0.97,0.68,2.29,1.05,3.47,0.86c1.53-0.25,0.69-1.76,1-2.76c0.45-1.4,1.87-2.11,3.13-2.64
					c1.07-0.46,2.39-0.87,2.54-2.21c0.16-1.44-0.97-2.49-2.19-3.02c-0.62-0.27-1.39-0.61-2.07-0.55c-0.28,0.02-0.54,0.14-0.76,0.32
					c-0.08,0.06-0.51,0.63-0.56,0.63c-0.63-0.1-0.9,0.86-0.27,0.96c0.39,0.07,0.7-0.03,0.99-0.3c0.13-0.12,0.23-0.27,0.35-0.4
					c0.23-0.24,0.45-0.23,0.77-0.14c0.92,0.24,2.12,0.64,2.57,1.55c0.19,0.37,0.27,0.86,0.04,1.23c-0.26,0.43-0.85,0.62-1.29,0.8
					c-1,0.42-2,0.83-2.85,1.52c-0.75,0.62-1.34,1.5-1.49,2.47c-0.06,0.42,0.01,0.79,0.05,1.2c0.03,0.31-0.03,0.36-0.36,0.38
					c-0.28,0.02-0.55,0.01-0.83-0.04c-2.1-0.33-3.58-2.26-3.35-4.38c0.13-1.21,0.88-2.23,1.7-3.09c0.63-0.66,1.78-1.87,2.59-0.71
					C48.93,57.38,49.8,56.88,49.43,56.35L49.43,56.35z"/>
			</g>
		</g>
		<g>
			<path class="st0" d="M47.05,67.55c-1.39-0.31-2.85-0.66-3.87-1.64c-1.3-1.23-1.6-3.16-1.82-4.93c-1.37-0.16-2.76-0.13-4.12,0.1
				c-0.34,0.06-0.7,0.14-0.95,0.38c-0.47,0.45-0.36,1.22-0.24,1.86c0.12,0.64,0.14,1.45-0.42,1.79c-0.2,0.12-0.43,0.16-0.63,0.29
				c-0.56,0.36-0.49,1.2-0.21,1.8c0.72,1.54,2.33,2.51,3.99,2.88c2.8,0.63,5.9-0.28,7.92-2.33"/>
			<g>
				<path class="st0" d="M47.19,67.07c-1.47-0.33-3.09-0.69-4.06-1.95c-0.89-1.16-1.09-2.73-1.27-4.13c-0.04-0.29-0.2-0.47-0.5-0.5
					c-1.14-0.13-2.29-0.13-3.44,0c-0.81,0.1-1.81,0.18-2.25,0.97c-0.42,0.75-0.1,1.57-0.06,2.36c0.03,0.54-0.1,0.79-0.59,1.01
					c-0.36,0.16-0.64,0.39-0.8,0.76c-0.68,1.55,0.93,3.26,2.11,4.02c1.53,0.98,3.45,1.31,5.24,1.11c2.07-0.23,4-1.14,5.48-2.61
					c0.46-0.45-0.25-1.16-0.71-0.71c-1.42,1.41-3.33,2.26-5.33,2.37c-1.9,0.1-4.05-0.47-5.29-2.01c-0.3-0.37-0.59-0.83-0.63-1.32
					c-0.05-0.55,0.22-0.6,0.64-0.82c0.82-0.41,0.95-1.3,0.85-2.14c-0.05-0.38-0.16-0.77-0.13-1.16c0.06-0.64,0.62-0.71,1.15-0.79
					c1.24-0.19,2.51-0.19,3.76-0.05c-0.17-0.17-0.33-0.33-0.5-0.5c0.22,1.66,0.46,3.42,1.52,4.78c1.11,1.42,2.86,1.89,4.54,2.27
					C47.55,68.17,47.81,67.21,47.19,67.07L47.19,67.07z"/>
			</g>
		</g>
		<g>
			<path class="st0" d="M47.67,70.21c-0.64,0.92-1.65,1.54-2.71,1.89c-1.06,0.35-2.19,0.46-3.31,0.56c-1,0.09-1.99,0.16-2.99,0.23
				c0.11,0.99-0.45,1.96-0.3,2.94c0.15,1.03,1.16,1.86,2.2,1.8c0.35-0.02,0.7-0.13,1.06-0.08s0.72,0.32,0.69,0.67
				c-0.03,0.34-0.41,0.65-0.28,0.96c0.1,0.24,0.42,0.27,0.68,0.26c1.98-0.08,3.99-0.76,5.4-2.15c1.41-1.4,2.1-3.58,1.44-5.45
				c-0.24-0.68-0.73-1.36-1.44-1.45"/>
			<g>
				<path class="st0" d="M47.23,69.96c-0.87,1.21-2.33,1.73-3.74,1.98c-1.59,0.28-3.23,0.34-4.84,0.44c-0.26,0.02-0.52,0.22-0.5,0.5
					c0.07,0.97-0.4,1.88-0.31,2.85c0.07,0.78,0.5,1.48,1.15,1.92c0.33,0.23,0.72,0.38,1.12,0.44c0.18,0.03,0.36,0.03,0.55,0.02
					c0.25-0.02,0.73-0.19,0.97-0.06c0.31,0.16-0.14,0.7-0.13,0.98c0.01,0.39,0.27,0.69,0.62,0.82c0.72,0.26,1.79-0.01,2.51-0.18
					c0.89-0.21,1.75-0.55,2.53-1.03c1.49-0.92,2.63-2.38,3-4.11c0.34-1.58,0.04-4.27-1.93-4.63c-0.63-0.12-0.9,0.85-0.27,0.96
					c0.93,0.17,1.25,1.29,1.31,2.11c0.07,0.93-0.16,1.87-0.6,2.68c-0.95,1.75-2.77,2.75-4.68,3.12c-0.25,0.05-0.51,0.09-0.76,0.11
					c-0.19,0.02-0.5-0.03-0.67,0.04c-0.15-0.06-0.18-0.03-0.07,0.1c0.04-0.1,0.09-0.19,0.14-0.29c0.08-0.17,0.15-0.35,0.16-0.54
					c0.04-1-1.06-1.22-1.82-1.13c-0.92,0.1-1.88-0.2-2.11-1.23c-0.21-0.97,0.36-1.98,0.29-2.96c-0.17,0.17-0.33,0.33-0.5,0.5
					c1.83-0.12,3.72-0.17,5.52-0.56c1.55-0.33,2.98-1.06,3.92-2.36C48.48,69.94,47.61,69.44,47.23,69.96L47.23,69.96z"/>
			</g>
		</g>
		<g>
			<path class="st0" d="M60.43,74.6c-1.01-1.04-1.36-2.61-2.42-3.6c-0.91-0.85-2.19-1.15-3.41-1.41c-1.04-0.22-2.25-0.41-3.08,0.26
				c0.46,0.21,0.56,0.8,0.61,1.3c0.13,1.37,0.26,2.75,0.24,4.13c-0.02,1.26-0.12,2.7,0.79,3.58c0.54,0.53,1.33,0.72,2.07,0.88
				c0.45,0.1,1.02,0.16,1.29-0.21c0.22-0.3,0.13-0.74,0.28-1.08c0.29-0.67,1.22-0.65,1.92-0.86c1.29-0.39,2-2.06,1.38-3.25"/>
			<g>
				<path class="st0" d="M60.78,74.25c-0.69-0.74-1.05-1.69-1.58-2.54c-0.55-0.88-1.27-1.54-2.22-1.95
					c-0.93-0.4-1.95-0.63-2.95-0.79c-0.95-0.15-1.97-0.16-2.78,0.44c-0.29,0.21-0.35,0.66,0,0.86c0.26,0.15,0.31,0.47,0.35,0.75
					c0.07,0.46,0.09,0.94,0.13,1.4c0.08,0.95,0.14,1.9,0.12,2.86c-0.02,1.36-0.11,2.99,0.99,3.99c0.58,0.52,1.33,0.75,2.07,0.92
					c0.63,0.14,1.4,0.26,1.89-0.25c0.47-0.49,0.15-1.34,0.85-1.59c0.63-0.22,1.28-0.21,1.85-0.59c1.18-0.8,1.61-2.39,1-3.67
					c-0.28-0.58-1.14-0.07-0.86,0.5c0.46,0.97-0.13,2.23-1.14,2.53c-0.53,0.16-1.09,0.17-1.58,0.45c-0.53,0.31-0.66,0.79-0.75,1.36
					c-0.06,0.38-0.27,0.41-0.62,0.36c-0.34-0.05-0.69-0.14-1.01-0.24c-0.69-0.21-1.26-0.58-1.5-1.28c-0.2-0.58-0.21-1.22-0.2-1.83
					c0.01-0.75,0.02-1.49-0.02-2.24c-0.05-0.92-0.12-1.84-0.23-2.75c-0.08-0.62-0.26-1.22-0.84-1.54c0,0.29,0,0.58,0,0.86
					c0.73-0.54,1.63-0.43,2.47-0.26c0.9,0.18,1.85,0.37,2.67,0.8c1.63,0.87,1.97,2.84,3.17,4.12
					C60.51,75.43,61.22,74.72,60.78,74.25L60.78,74.25z"/>
			</g>
		</g>
		<g>
			<path class="st0" d="M61.04,61.31c-2.6-0.36-5.32,0.29-7.48,1.78c-1.34,0.93-2.54,2.49-2.14,4.07c-0.06-0.23,0.26-0.36,0.5-0.37
				c3.06-0.22,6.45,0.48,8.33,2.9c0.07,0.09,0.15,0.19,0.26,0.23c0.12,0.04,0.25,0,0.37-0.05c1.64-0.68,2.76-2.46,2.66-4.23
				c-1.05,0.16-2.07-0.98-1.81-2.01c0.12-0.47,0.45-0.88,0.52-1.37c0.07-0.48-0.37-1.08-0.82-0.88"/>
			<g>
				<path class="st0" d="M61.04,60.81c-2.36-0.31-4.79,0.16-6.87,1.32c-1.84,1.03-3.72,2.87-3.22,5.16
					c0.12,0.57,0.95,0.41,0.98-0.13c-0.01,0.24,0.17,0.12,0.35,0.11c0.18-0.01,0.36-0.01,0.54-0.02c0.36,0,0.72,0.01,1.08,0.03
					c0.67,0.04,1.34,0.14,1.99,0.31c1.35,0.34,2.65,0.96,3.61,1.99c0.46,0.49,0.76,1.04,1.52,0.77c0.6-0.21,1.16-0.62,1.6-1.07
					c0.95-0.97,1.47-2.29,1.43-3.64c-0.01-0.25-0.22-0.52-0.5-0.5c-0.58,0.05-1.13-0.3-1.31-0.87c-0.18-0.58,0.27-1.08,0.43-1.61
					c0.27-0.87-0.32-2.06-1.37-1.76c-0.62,0.18-0.36,1.14,0.27,0.96c0.44-0.12-0.22,1.33-0.26,1.45c-0.16,0.47-0.14,0.96,0.05,1.42
					c0.36,0.87,1.24,1.48,2.19,1.4c-0.17-0.17-0.33-0.33-0.5-0.5c0.04,1.43-0.69,2.83-1.94,3.56c-0.45,0.26-0.53,0.08-0.84-0.27
					c-0.21-0.23-0.45-0.45-0.69-0.65c-0.5-0.41-1.05-0.76-1.64-1.03c-1.21-0.56-2.53-0.86-3.86-0.96c-0.85-0.07-3.07-0.42-3.15,0.87
					c0.33-0.04,0.65-0.09,0.98-0.13c-0.44-2.02,1.73-3.56,3.3-4.31c1.81-0.88,3.85-1.16,5.83-0.9C61.68,61.9,61.67,60.9,61.04,60.81
					L61.04,60.81z"/>
			</g>
		</g>
	</g>
	<g>
		<g>
			<path class="st0" d="M24.16,69.34c-0.21-0.34-0.69-0.48-1.05-0.31c-0.15,0.07-0.28,0.19-0.4,0.3c-0.51,0.48-1,1.02-1.21,1.69
				c-0.23,0.74-0.06,1.58,0.44,2.17s1.29,0.91,2.06,0.83c0.08-0.01,0.16-0.02,0.23-0.07c0.16-0.13,0.1-0.38,0.07-0.59
				c-0.09-0.58,0.25-1.16,0.71-1.52c0.46-0.37,1.02-0.58,1.56-0.8c0.23-0.1,0.46-0.21,0.61-0.4c0.28-0.37,0.14-0.93-0.18-1.26
				c-0.32-0.33-0.78-0.49-1.22-0.63c-0.19-0.06-0.41-0.12-0.59-0.02c-0.22,0.13-0.35,0.51-0.6,0.43"/>
			<g>
				<path class="st0" d="M24.6,69.09c-0.41-0.58-1.17-0.81-1.81-0.45c-0.28,0.16-0.53,0.43-0.75,0.66c-0.26,0.27-0.51,0.57-0.7,0.89
					c-0.77,1.29-0.45,2.97,0.79,3.84c0.57,0.39,1.32,0.59,2,0.47c0.38-0.07,0.65-0.33,0.69-0.72c0.03-0.31-0.1-0.59,0-0.89
					c0.46-1.41,2.83-1.04,2.98-2.61c0.08-0.84-0.55-1.48-1.26-1.79c-0.37-0.16-0.8-0.35-1.21-0.32c-0.21,0.01-0.41,0.1-0.57,0.24
					c-0.05,0.05-0.1,0.1-0.15,0.15c-0.03,0.04-0.06,0.07-0.09,0.11c-0.1,0.09-0.05,0.09,0.18,0.01c-0.27-0.04-0.54,0.07-0.62,0.35
					c-0.07,0.24,0.08,0.57,0.35,0.62c0.29,0.05,0.53-0.01,0.75-0.22c0.06-0.06,0.11-0.15,0.18-0.21c0.09-0.07,0.02-0.05,0.17-0.01
					c0.41,0.11,1.01,0.28,1.21,0.7c0.2,0.43-0.17,0.57-0.51,0.72c-0.56,0.24-1.12,0.47-1.6,0.86c-0.42,0.35-0.75,0.85-0.84,1.4
					c-0.04,0.24-0.05,0.52,0.03,0.75c0.01,0.02-0.01,0.07,0,0.08c0.04-0.06,0.08-0.13,0.12-0.19c-0.03,0-0.05,0-0.08,0
					c-0.13-0.02-0.27,0.01-0.4-0.01c-0.98-0.16-1.68-1.07-1.55-2.06c0.07-0.57,0.44-1.05,0.82-1.45c0.19-0.2,0.69-0.84,0.99-0.42
					c0.15,0.22,0.44,0.32,0.68,0.18C24.64,69.65,24.75,69.31,24.6,69.09L24.6,69.09z"/>
			</g>
		</g>
		<g>
			<path class="st0" d="M23.14,75.08c-0.73-0.16-1.49-0.34-2.03-0.86c-0.68-0.65-0.84-1.65-0.96-2.58
				c-0.72-0.09-1.45-0.07-2.16,0.05c-0.18,0.03-0.37,0.07-0.5,0.2c-0.25,0.24-0.19,0.64-0.13,0.97c0.06,0.34,0.07,0.76-0.22,0.94
				c-0.1,0.06-0.23,0.08-0.33,0.15c-0.29,0.19-0.26,0.63-0.11,0.94c0.38,0.81,1.22,1.31,2.09,1.51c1.47,0.33,3.09-0.15,4.15-1.22"/>
			<g>
				<path class="st0" d="M23.28,74.59c-0.7-0.16-1.51-0.32-1.98-0.91c-0.45-0.56-0.55-1.36-0.63-2.04c-0.04-0.29-0.2-0.47-0.5-0.5
					c-0.6-0.07-1.2-0.07-1.8,0c-0.52,0.06-1.1,0.13-1.39,0.63c-0.25,0.44-0.09,0.89-0.06,1.36c0.01,0.2,0.02,0.23-0.13,0.3
					c-0.25,0.11-0.44,0.25-0.56,0.51c-0.44,0.93,0.46,1.96,1.19,2.43c0.83,0.54,1.89,0.72,2.86,0.61c1.15-0.13,2.22-0.62,3.04-1.44
					c0.46-0.45-0.25-1.16-0.71-0.71c-0.7,0.69-1.64,1.12-2.63,1.17c-0.93,0.05-2.01-0.21-2.6-0.98c-0.12-0.15-0.22-0.33-0.26-0.52
					c-0.04-0.19,0.02-0.13,0.22-0.22c0.5-0.25,0.62-0.81,0.56-1.33c-0.02-0.18-0.11-0.43-0.07-0.61c0.04-0.17,0.27-0.16,0.43-0.18
					c0.63-0.09,1.27-0.09,1.91-0.02c-0.17-0.17-0.33-0.33-0.5-0.5c0.12,0.91,0.25,1.87,0.83,2.62c0.62,0.8,1.58,1.09,2.52,1.3
					C23.64,75.7,23.91,74.73,23.28,74.59L23.28,74.59z"/>
			</g>
		</g>
		<g>
			<path class="st0" d="M23.47,76.47c-0.33,0.48-0.86,0.8-1.42,0.99c-0.56,0.18-1.15,0.24-1.73,0.29c-0.52,0.04-1.04,0.08-1.57,0.12
				c0.06,0.52-0.23,1.03-0.16,1.54c0.08,0.54,0.61,0.97,1.15,0.94c0.19-0.01,0.37-0.07,0.55-0.04c0.18,0.02,0.38,0.17,0.36,0.35
				c-0.01,0.18-0.22,0.34-0.15,0.5c0.05,0.12,0.22,0.14,0.35,0.14c1.04-0.04,2.09-0.4,2.83-1.13c0.74-0.73,1.1-1.88,0.76-2.86
				c-0.12-0.36-0.38-0.71-0.76-0.76"/>
			<g>
				<path class="st0" d="M23.03,76.22c-0.42,0.58-1.15,0.81-1.82,0.93c-0.81,0.14-1.65,0.17-2.47,0.22c-0.26,0.02-0.52,0.22-0.5,0.5
					c0.03,0.51-0.21,0.98-0.16,1.49c0.04,0.5,0.31,0.93,0.72,1.21c0.19,0.13,0.41,0.22,0.64,0.25c0.12,0.02,0.23,0.03,0.35,0.02
					c0.01,0,0.44-0.03,0.44-0.04c-0.01-0.04-0.02-0.08-0.03-0.13c0-0.14-0.02-0.17-0.05-0.09c-0.04,0.03-0.06,0.12-0.08,0.17
					c-0.05,0.1-0.08,0.22-0.08,0.33c0,0.31,0.22,0.56,0.5,0.66c0.43,0.14,1.01,0.01,1.44-0.1c0.48-0.11,0.96-0.3,1.38-0.56
					c0.83-0.51,1.48-1.33,1.68-2.3c0.2-0.95,0-2.51-1.18-2.72c-0.27-0.05-0.54,0.07-0.62,0.35c-0.07,0.24,0.08,0.57,0.35,0.62
					c0.44,0.08,0.52,0.73,0.52,1.1c-0.01,0.52-0.21,1.04-0.53,1.44c-0.32,0.41-0.77,0.72-1.25,0.91c-0.28,0.11-0.57,0.19-0.86,0.24
					c-0.15,0.03-0.54,0.12-0.64,0.05c0.06,0.06,0.12,0.12,0.18,0.18c0,0,0,0,0,0c0,0.09,0,0.18,0,0.27c0.03-0.2,0.17-0.35,0.18-0.57
					c0.01-0.24-0.11-0.46-0.28-0.61c-0.19-0.17-0.44-0.24-0.69-0.24c-0.2,0-0.4,0.08-0.59,0.04c-0.3-0.06-0.51-0.33-0.52-0.63
					c0-0.46,0.2-0.88,0.17-1.35c-0.17,0.17-0.33,0.33-0.5,0.5c1.77-0.12,3.99-0.05,5.15-1.65c0.16-0.22,0.04-0.56-0.18-0.68
					C23.47,75.89,23.19,76,23.03,76.22L23.03,76.22z"/>
			</g>
		</g>
		<g>
			<path class="st0" d="M30.15,78.77c-0.53-0.55-0.71-1.37-1.27-1.89c-0.48-0.45-1.15-0.6-1.79-0.74c-0.55-0.12-1.18-0.22-1.61,0.14
				c0.24,0.11,0.3,0.42,0.32,0.68c0.07,0.72,0.14,1.44,0.12,2.17c-0.01,0.66-0.06,1.42,0.41,1.88c0.29,0.28,0.7,0.38,1.08,0.46
				c0.24,0.05,0.53,0.08,0.68-0.11c0.12-0.16,0.07-0.39,0.15-0.57c0.15-0.35,0.64-0.34,1.01-0.45c0.67-0.2,1.05-1.08,0.72-1.7"/>
			<g>
				<path class="st0" d="M30.51,78.42c-0.34-0.37-0.52-0.86-0.79-1.28c-0.31-0.5-0.73-0.88-1.28-1.12c-0.5-0.21-1.04-0.34-1.57-0.42
					c-0.56-0.09-1.16-0.1-1.64,0.26c-0.29,0.21-0.35,0.66,0,0.86c0.03,0.02,0.05,0.12,0.07,0.18c0.04,0.24,0.05,0.49,0.07,0.74
					c0.04,0.5,0.07,1,0.06,1.5c-0.01,0.78-0.04,1.69,0.59,2.26c0.33,0.3,0.76,0.45,1.19,0.54c0.42,0.09,0.89,0.14,1.22-0.19
					c0.16-0.16,0.22-0.37,0.25-0.59c0.02-0.13,0-0.14,0.09-0.18c0.14-0.07,0.33-0.07,0.48-0.11c0.19-0.04,0.38-0.12,0.55-0.23
					c0.73-0.49,0.99-1.46,0.61-2.25c-0.12-0.24-0.47-0.31-0.68-0.18c-0.25,0.15-0.3,0.44-0.18,0.68c0.17,0.36-0.07,0.86-0.46,0.98
					c-0.3,0.09-0.61,0.1-0.88,0.26c-0.31,0.18-0.51,0.53-0.51,0.89c0,0-0.02,0.08-0.02,0.08c0.01,0,0.06-0.08,0.06-0.08
					c-0.01-0.02-0.09-0.01-0.1-0.01c-0.17-0.03-0.34-0.07-0.5-0.12c-0.28-0.08-0.52-0.22-0.62-0.51c-0.11-0.28-0.1-0.6-0.1-0.9
					c0-0.39,0.01-0.78-0.01-1.18c-0.02-0.48-0.06-0.96-0.12-1.44c-0.05-0.41-0.18-0.8-0.56-1.01c0,0.29,0,0.58,0,0.86
					c0.33-0.24,0.73-0.19,1.11-0.11c0.45,0.09,0.93,0.18,1.34,0.4c0.82,0.43,1.01,1.48,1.61,2.12
					C30.24,79.6,30.95,78.89,30.51,78.42L30.51,78.42z"/>
			</g>
		</g>
		<g>
			<path class="st0" d="M30.47,71.81c-1.36-0.19-2.79,0.15-3.92,0.94c-0.7,0.49-1.33,1.3-1.12,2.13c-0.03-0.12,0.14-0.19,0.26-0.2
				c1.6-0.11,3.38,0.25,4.36,1.52c0.04,0.05,0.08,0.1,0.14,0.12c0.06,0.02,0.13,0,0.19-0.03c0.86-0.36,1.44-1.29,1.4-2.22
				c-0.55,0.08-1.09-0.51-0.95-1.05c0.06-0.25,0.24-0.46,0.27-0.72s-0.19-0.57-0.43-0.46"/>
			<g>
				<path class="st0" d="M30.47,71.31c-1.28-0.17-2.6,0.1-3.72,0.72c-1.06,0.59-2.08,1.66-1.8,2.98c0.12,0.57,0.95,0.41,0.98-0.13
					c0-0.02,0-0.04,0-0.07c-0.02,0.08-0.05,0.17-0.07,0.25c0.01-0.02,0.03-0.04,0.04-0.05c-0.06,0.06-0.12,0.12-0.18,0.18
					c0.1-0.06,0.32-0.03,0.43-0.03c0.19,0,0.38,0,0.56,0.02c0.33,0.02,0.66,0.07,0.98,0.15c0.67,0.17,1.31,0.47,1.79,0.98
					c0.3,0.32,0.53,0.64,1.03,0.47c0.35-0.12,0.68-0.36,0.94-0.62c0.54-0.55,0.84-1.31,0.82-2.08c-0.01-0.25-0.22-0.52-0.5-0.5
					c-0.2,0.02-0.39-0.07-0.45-0.28c-0.07-0.23,0.16-0.5,0.23-0.72c0.2-0.63-0.29-1.42-1.01-1.21c-0.62,0.18-0.36,1.14,0.27,0.96
					c-0.07,0.02-0.18-0.07-0.2-0.05c-0.01,0.01-0.03,0.08-0.05,0.11c-0.06,0.14-0.13,0.27-0.18,0.41c-0.1,0.29-0.08,0.61,0.04,0.9
					c0.22,0.54,0.77,0.93,1.37,0.88c-0.17-0.17-0.33-0.33-0.5-0.5c0.01,0.39-0.08,0.74-0.29,1.07c-0.13,0.21-0.51,0.68-0.8,0.67
					c0.08,0.02,0.17,0.05,0.25,0.07c-0.08-0.05-0.15-0.18-0.21-0.25c-0.09-0.1-0.19-0.19-0.29-0.28c-0.19-0.16-0.4-0.32-0.62-0.44
					c-0.46-0.27-0.97-0.46-1.49-0.58c-0.52-0.12-1.05-0.17-1.58-0.17c-0.55,0-1.28,0.01-1.32,0.72c0.33-0.04,0.65-0.09,0.98-0.13
					c-0.2-0.93,0.92-1.65,1.62-1.99c0.91-0.44,1.94-0.57,2.94-0.44c0.27,0.03,0.5-0.25,0.5-0.5C30.97,71.51,30.74,71.34,30.47,71.31
					L30.47,71.31z"/>
			</g>
		</g>
	</g>
	<g>
		<g>
			<path class="st0" d="M73.7,69.64c-0.21-0.34-0.69-0.48-1.05-0.31c-0.15,0.07-0.28,0.19-0.4,0.3c-0.51,0.48-1,1.02-1.21,1.69
				c-0.23,0.74-0.06,1.58,0.44,2.17c0.49,0.59,1.29,0.91,2.06,0.83c0.08-0.01,0.16-0.02,0.23-0.07c0.16-0.13,0.1-0.38,0.07-0.59
				c-0.09-0.58,0.25-1.16,0.71-1.52s1.02-0.58,1.56-0.8c0.23-0.1,0.46-0.21,0.61-0.4c0.28-0.37,0.14-0.93-0.18-1.26
				s-0.78-0.49-1.22-0.63c-0.19-0.06-0.41-0.12-0.59-0.02c-0.22,0.13-0.35,0.51-0.6,0.43"/>
			<g>
				<path class="st0" d="M74.13,69.38c-0.41-0.58-1.17-0.81-1.81-0.45c-0.28,0.16-0.53,0.43-0.75,0.66
					c-0.26,0.27-0.51,0.57-0.7,0.89c-0.77,1.29-0.45,2.97,0.79,3.84c0.57,0.39,1.32,0.59,2,0.47c0.38-0.07,0.65-0.33,0.69-0.72
					c0.03-0.31-0.1-0.59,0-0.89c0.46-1.41,2.83-1.04,2.98-2.61c0.08-0.84-0.55-1.48-1.26-1.79c-0.37-0.16-0.8-0.35-1.21-0.32
					c-0.21,0.01-0.41,0.1-0.57,0.24c-0.05,0.05-0.1,0.1-0.15,0.15c-0.03,0.04-0.06,0.07-0.09,0.11c-0.1,0.09-0.05,0.09,0.18,0.01
					c-0.27-0.04-0.54,0.07-0.62,0.35c-0.07,0.24,0.08,0.57,0.35,0.62c0.29,0.05,0.53-0.01,0.75-0.22c0.06-0.06,0.11-0.15,0.18-0.21
					c0.09-0.07,0.02-0.05,0.17-0.01c0.41,0.11,1.01,0.28,1.21,0.7c0.2,0.43-0.17,0.57-0.51,0.72c-0.56,0.24-1.12,0.47-1.6,0.86
					c-0.42,0.35-0.75,0.85-0.84,1.4c-0.04,0.24-0.05,0.52,0.03,0.75c0.01,0.02-0.01,0.07,0,0.08c0.04-0.06,0.08-0.13,0.12-0.19
					c-0.03,0-0.05,0-0.08,0c-0.13-0.02-0.27,0.01-0.4-0.01c-0.98-0.16-1.68-1.07-1.55-2.06c0.07-0.57,0.44-1.05,0.82-1.45
					c0.19-0.2,0.69-0.84,0.99-0.42c0.15,0.22,0.44,0.32,0.68,0.18C74.17,69.94,74.28,69.61,74.13,69.38L74.13,69.38z"/>
			</g>
		</g>
		<g>
			<path class="st0" d="M72.68,75.37c-0.73-0.16-1.49-0.34-2.03-0.86c-0.68-0.65-0.84-1.65-0.96-2.58
				c-0.72-0.09-1.45-0.07-2.16,0.05c-0.18,0.03-0.37,0.07-0.5,0.2c-0.25,0.24-0.19,0.64-0.13,0.97c0.06,0.34,0.07,0.76-0.22,0.94
				c-0.1,0.06-0.23,0.08-0.33,0.15c-0.29,0.19-0.26,0.63-0.11,0.94c0.38,0.81,1.22,1.31,2.09,1.51c1.47,0.33,3.09-0.15,4.15-1.22"/>
			<g>
				<path class="st0" d="M72.81,74.89c-0.7-0.16-1.51-0.32-1.98-0.91c-0.45-0.56-0.55-1.36-0.63-2.04c-0.04-0.29-0.2-0.47-0.5-0.5
					c-0.6-0.07-1.2-0.07-1.8,0c-0.52,0.06-1.1,0.13-1.39,0.63c-0.25,0.44-0.09,0.89-0.06,1.36c0.01,0.2,0.02,0.23-0.13,0.3
					c-0.25,0.11-0.44,0.25-0.56,0.51c-0.44,0.93,0.46,1.96,1.19,2.43c0.83,0.54,1.89,0.72,2.86,0.61c1.15-0.13,2.22-0.62,3.04-1.44
					c0.46-0.45-0.25-1.16-0.71-0.71c-0.7,0.69-1.64,1.12-2.63,1.17c-0.93,0.05-2.01-0.21-2.6-0.98c-0.12-0.15-0.22-0.33-0.26-0.52
					c-0.04-0.19,0.02-0.13,0.22-0.22c0.5-0.25,0.62-0.81,0.56-1.33c-0.02-0.18-0.11-0.43-0.07-0.61c0.04-0.17,0.27-0.16,0.43-0.18
					c0.63-0.09,1.27-0.09,1.91-0.02c-0.17-0.17-0.33-0.33-0.5-0.5c0.12,0.91,0.25,1.87,0.83,2.62c0.62,0.8,1.58,1.09,2.52,1.3
					C73.17,75.99,73.44,75.03,72.81,74.89L72.81,74.89z"/>
			</g>
		</g>
		<g>
			<path class="st0" d="M73,76.76c-0.33,0.48-0.86,0.8-1.42,0.99s-1.15,0.24-1.73,0.29c-0.52,0.04-1.04,0.08-1.57,0.12
				c0.06,0.52-0.23,1.03-0.16,1.54c0.08,0.54,0.61,0.97,1.15,0.94c0.19-0.01,0.37-0.07,0.55-0.04s0.38,0.17,0.36,0.35
				c-0.01,0.18-0.22,0.34-0.15,0.5c0.05,0.12,0.22,0.14,0.35,0.14c1.04-0.04,2.09-0.4,2.83-1.13c0.74-0.73,1.1-1.88,0.76-2.86
				c-0.12-0.36-0.38-0.71-0.76-0.76"/>
			<g>
				<path class="st0" d="M72.57,76.51c-0.42,0.58-1.15,0.81-1.82,0.93c-0.81,0.14-1.65,0.17-2.47,0.22c-0.26,0.02-0.52,0.22-0.5,0.5
					c0.03,0.51-0.21,0.98-0.16,1.49c0.04,0.5,0.31,0.93,0.72,1.21c0.19,0.13,0.41,0.22,0.64,0.25c0.12,0.02,0.23,0.03,0.35,0.02
					c0.01,0,0.44-0.03,0.44-0.04c-0.01-0.04-0.02-0.08-0.03-0.13c0-0.14-0.02-0.17-0.05-0.09c-0.04,0.03-0.06,0.12-0.08,0.17
					c-0.05,0.1-0.08,0.22-0.08,0.33c0,0.31,0.22,0.56,0.5,0.66c0.43,0.14,1.01,0.01,1.44-0.1c0.48-0.11,0.96-0.3,1.38-0.56
					c0.83-0.51,1.48-1.33,1.68-2.3c0.2-0.95,0-2.51-1.18-2.72c-0.27-0.05-0.54,0.07-0.62,0.35c-0.07,0.24,0.08,0.57,0.35,0.62
					c0.44,0.08,0.52,0.73,0.52,1.1c-0.01,0.52-0.21,1.04-0.53,1.44c-0.32,0.41-0.77,0.72-1.25,0.91c-0.28,0.11-0.57,0.19-0.86,0.24
					c-0.15,0.03-0.54,0.12-0.64,0.05c0.06,0.06,0.12,0.12,0.18,0.18c0,0,0,0,0,0c0,0.09,0,0.18,0,0.27c0.03-0.2,0.17-0.35,0.18-0.57
					c0.01-0.24-0.11-0.46-0.28-0.61c-0.19-0.17-0.44-0.24-0.69-0.24c-0.2,0-0.4,0.08-0.59,0.04c-0.3-0.06-0.51-0.33-0.52-0.63
					c0-0.46,0.2-0.88,0.17-1.35c-0.17,0.17-0.33,0.33-0.5,0.5c1.77-0.12,3.99-0.05,5.15-1.65c0.16-0.22,0.04-0.56-0.18-0.68
					C73,76.19,72.73,76.29,72.57,76.51L72.57,76.51z"/>
			</g>
		</g>
		<g>
			<path class="st0" d="M79.69,79.07c-0.53-0.55-0.71-1.37-1.27-1.89c-0.48-0.45-1.15-0.6-1.79-0.74c-0.55-0.12-1.18-0.22-1.61,0.14
				c0.24,0.11,0.3,0.42,0.32,0.68c0.07,0.72,0.14,1.44,0.12,2.17c-0.01,0.66-0.06,1.42,0.41,1.88c0.29,0.28,0.7,0.38,1.08,0.46
				c0.24,0.05,0.53,0.08,0.68-0.11c0.12-0.16,0.07-0.39,0.15-0.57c0.15-0.35,0.64-0.34,1.01-0.45c0.67-0.2,1.05-1.08,0.72-1.7"/>
			<g>
				<path class="st0" d="M80.04,78.71c-0.34-0.37-0.52-0.86-0.79-1.28c-0.31-0.5-0.73-0.88-1.28-1.12c-0.5-0.21-1.04-0.34-1.57-0.42
					c-0.56-0.09-1.16-0.1-1.64,0.26c-0.29,0.21-0.35,0.66,0,0.86c0.03,0.02,0.05,0.12,0.07,0.18c0.04,0.24,0.05,0.49,0.07,0.74
					c0.04,0.5,0.07,1,0.06,1.5c-0.01,0.78-0.04,1.69,0.59,2.26c0.33,0.3,0.76,0.45,1.19,0.54c0.42,0.09,0.89,0.14,1.22-0.19
					c0.16-0.16,0.22-0.37,0.25-0.59c0.02-0.13,0-0.14,0.09-0.18c0.14-0.07,0.33-0.07,0.48-0.11c0.19-0.04,0.38-0.12,0.55-0.23
					c0.73-0.49,0.99-1.46,0.61-2.25c-0.12-0.24-0.47-0.31-0.68-0.18c-0.25,0.15-0.3,0.44-0.18,0.68c0.17,0.36-0.07,0.86-0.46,0.98
					c-0.3,0.09-0.61,0.1-0.88,0.26c-0.31,0.18-0.51,0.53-0.51,0.89c0,0-0.02,0.08-0.02,0.08c0.01,0,0.06-0.08,0.06-0.08
					c-0.01-0.02-0.09-0.01-0.1-0.01c-0.17-0.03-0.34-0.07-0.5-0.12c-0.28-0.08-0.52-0.22-0.62-0.51c-0.11-0.28-0.1-0.6-0.1-0.9
					c0-0.39,0.01-0.78-0.01-1.18c-0.02-0.48-0.06-0.96-0.12-1.44c-0.05-0.41-0.18-0.8-0.56-1.01c0,0.29,0,0.58,0,0.86
					c0.33-0.24,0.73-0.19,1.11-0.11c0.45,0.09,0.93,0.18,1.34,0.4c0.82,0.43,1.01,1.48,1.61,2.12
					C79.77,79.89,80.48,79.18,80.04,78.71L80.04,78.71z"/>
			</g>
		</g>
		<g>
			<path class="st0" d="M80.01,72.1c-1.36-0.19-2.79,0.15-3.92,0.94c-0.7,0.49-1.33,1.3-1.12,2.13c-0.03-0.12,0.14-0.19,0.26-0.2
				c1.6-0.11,3.38,0.25,4.36,1.52c0.04,0.05,0.08,0.1,0.14,0.12c0.06,0.02,0.13,0,0.19-0.03c0.86-0.36,1.44-1.29,1.4-2.22
				c-0.55,0.08-1.09-0.51-0.95-1.05c0.06-0.25,0.24-0.46,0.27-0.72c0.04-0.25-0.19-0.57-0.43-0.46"/>
			<g>
				<path class="st0" d="M80.01,71.6c-1.28-0.17-2.6,0.1-3.72,0.72c-1.06,0.59-2.08,1.66-1.8,2.98c0.12,0.57,0.95,0.41,0.98-0.13
					c0-0.02,0-0.04,0-0.07c-0.02,0.08-0.05,0.17-0.07,0.25c0.01-0.02,0.03-0.04,0.04-0.05c-0.06,0.06-0.12,0.12-0.18,0.18
					c0.1-0.06,0.32-0.03,0.43-0.03c0.19,0,0.38,0,0.56,0.02c0.33,0.02,0.66,0.07,0.98,0.15c0.67,0.17,1.31,0.47,1.79,0.98
					c0.3,0.32,0.53,0.64,1.03,0.47c0.35-0.12,0.68-0.36,0.94-0.62c0.54-0.55,0.84-1.31,0.82-2.08c-0.01-0.25-0.22-0.52-0.5-0.5
					c-0.2,0.02-0.39-0.07-0.45-0.28c-0.07-0.23,0.16-0.5,0.23-0.72c0.2-0.63-0.29-1.42-1.01-1.21c-0.62,0.18-0.36,1.14,0.27,0.96
					c-0.07,0.02-0.18-0.07-0.2-0.05c-0.01,0.01-0.03,0.08-0.05,0.11c-0.06,0.14-0.13,0.27-0.18,0.41c-0.1,0.29-0.08,0.61,0.04,0.9
					c0.22,0.54,0.77,0.93,1.37,0.88c-0.17-0.17-0.33-0.33-0.5-0.5c0.01,0.39-0.08,0.74-0.29,1.07c-0.13,0.21-0.51,0.68-0.8,0.67
					c0.08,0.02,0.17,0.05,0.25,0.07c-0.08-0.05-0.15-0.18-0.21-0.25c-0.09-0.1-0.19-0.19-0.29-0.28c-0.19-0.16-0.4-0.32-0.62-0.44
					c-0.46-0.27-0.97-0.46-1.49-0.58c-0.52-0.12-1.05-0.17-1.58-0.17c-0.55,0-1.28,0.01-1.32,0.72c0.33-0.04,0.65-0.09,0.98-0.13
					c-0.2-0.93,0.92-1.65,1.62-1.99c0.91-0.44,1.94-0.57,2.94-0.44c0.27,0.03,0.5-0.25,0.5-0.5C80.51,71.81,80.27,71.64,80.01,71.6
					L80.01,71.6z"/>
			</g>
		</g>
	</g>
</g>
</svg>
